<svg xmlns="http://www.w3.org/2000/svg" viewBox="0 0 1240 800" width="1240" height="800" font-family="Inter, system-ui, sans-serif">
  <defs>
    <filter id="sh" x="-6%" y="-6%" width="112%" height="118%">
      <feDropShadow dx="0" dy="10" stdDeviation="18" flood-color="#1C1B22" flood-opacity="0.07"/>
    </filter>
  </defs>

  <rect width="1240" height="800" fill="#FBFAF7"/>

  <g filter="url(#sh)">
    <rect x="60" y="52" width="1120" height="696" rx="14" fill="#FFFFFF" stroke="#E8E4DE"/>
  </g>

  <line x1="60" y1="100" x2="1180" y2="100" stroke="#EDE9E3"/>
  <circle cx="86" cy="76" r="5" fill="#E8E4DE"/><circle cx="104" cy="76" r="5" fill="#E8E4DE"/><circle cx="122" cy="76" r="5" fill="#E8E4DE"/>
  <rect x="150" y="68" width="118" height="16" rx="4" fill="#F2EEE8"/>
  <rect x="280" y="68" width="176" height="16" rx="4" fill="#F2EEE8"/>

  <rect x="60" y="100" width="66" height="648" fill="#FAF8F5"/>
  <line x1="126" y1="100" x2="126" y2="748" stroke="#EDE9E3"/>
  <rect x="80" y="124" width="26" height="26" rx="6" fill="#E4DED6"/>
  <rect x="80" y="166" width="26" height="26" rx="6" fill="#F0EBE4"/>
  <rect x="80" y="208" width="26" height="26" rx="6" fill="#F0EBE4"/>

  <text x="156" y="138" font-size="11" letter-spacing="1.3" fill="#9A948C" font-family="'IBM Plex Mono', monospace">SAMPLE REQUEST</text>
  <rect x="156" y="150" width="52" height="20" rx="5" fill="#F2EEE8"/>
  <text x="182" y="164" font-size="11" fill="#6E6A78" text-anchor="middle" font-family="'IBM Plex Mono', monospace">SR-00</text>
  <text x="222" y="165" font-size="17" fill="#1C1B22" font-family="Fraunces, Georgia, serif">25 records sampled from a population of 400</text>
  <rect x="704" y="150" width="48" height="20" rx="10" fill="#FBE4EE"/>
  <text x="728" y="164" font-size="10.5" fill="#D6336C" text-anchor="middle" font-family="'IBM Plex Mono', monospace">OPEN</text>

  <rect x="156" y="188" width="596" height="44" rx="9" fill="#FDF3F7" stroke="#F2CBDB"/>
  <text x="174" y="206" font-size="10.5" letter-spacing="1.2" fill="#D6336C" font-family="'IBM Plex Mono', monospace">LINEAGE</text>
  <text x="174" y="223" font-size="12.5" fill="#7C5266">Population request  ›  Population (400)  ›  This sample (25)  ›  Testing</text>

  <rect x="156" y="246" width="596" height="52" rx="9" fill="#FAF8F5" stroke="#EDE9E3"/>
  <rect x="174" y="264" width="4" height="16" rx="2" fill="#D6336C"/>
  <text x="190" y="270" font-size="12.5" fill="#1C1B22" font-weight="600">Existing evidence has been attached for you.</text>
  <text x="190" y="288" font-size="12" fill="#6E6A78">Nothing is submitted until a human reviews it, record by record.</text>

  <rect x="156" y="316" width="152" height="32" rx="8" fill="#1C1B22"/>
  <text x="232" y="337" font-size="12.5" fill="#FBFAF7" text-anchor="middle" font-weight="600">Attach existing evidence</text>
  <rect x="320" y="316" width="104" height="32" rx="8" fill="#fff" stroke="#E0DAD1"/>
  <text x="372" y="337" font-size="12.5" fill="#4A4650" text-anchor="middle">Add records</text>
  <rect x="436" y="316" width="98" height="32" rx="8" fill="#fff" stroke="#E0DAD1"/>
  <text x="485" y="337" font-size="12.5" fill="#4A4650" text-anchor="middle">Resample</text>

  <text x="156" y="382" font-size="12.5" fill="#6E6A78" font-weight="600">Sample records</text>
  <text x="752" y="382" font-size="11.5" fill="#9A948C" text-anchor="end" font-family="'IBM Plex Mono', monospace">18 / 25 WITH EVIDENCE</text>

  <rect x="156" y="396" width="596" height="90" rx="9" fill="#FCFAF8" stroke="#EDE9E3"/>
  <rect x="174" y="416" width="14" height="14" rx="3" fill="#fff" stroke="#D9D3CA"/>
  <rect x="204" y="416" width="104" height="12" rx="3" fill="#E4DED6"/>
  <rect x="640" y="412" width="46" height="20" rx="5" fill="#fff" stroke="#E8E4DE"/>
  <text x="663" y="426" font-size="9.5" fill="#8A847C" text-anchor="middle" font-family="'IBM Plex Mono', monospace">N/A</text>
  <rect x="694" y="412" width="42" height="20" rx="5" fill="#fff" stroke="#E8E4DE"/>
  <text x="715" y="426" font-size="9.5" fill="#8A847C" text-anchor="middle" font-family="'IBM Plex Mono', monospace">EDIT</text>
  <rect x="204" y="444" width="128" height="26" rx="6" fill="#fff" stroke="#E8E4DE"/>
  <rect x="214" y="452" width="10" height="10" rx="2" fill="#D9D3CA"/>
  <rect x="232" y="454" width="76" height="7" rx="3" fill="#EDE9E3"/>
  <rect x="342" y="444" width="128" height="26" rx="6" fill="#fff" stroke="#E8E4DE"/>
  <rect x="352" y="452" width="10" height="10" rx="2" fill="#D9D3CA"/>
  <rect x="370" y="454" width="76" height="7" rx="3" fill="#EDE9E3"/>
  <rect x="480" y="444" width="112" height="26" rx="6" fill="#FDF3F7" stroke="#F2CBDB" stroke-dasharray="4 3"/>
  <text x="536" y="461" font-size="10" fill="#D6336C" text-anchor="middle" font-family="'IBM Plex Mono', monospace">+ ATTACH</text>
  <rect x="604" y="447" width="132" height="20" rx="10" fill="#F2EEE8"/>
  <text x="670" y="461" font-size="9.5" fill="#7A746C" text-anchor="middle" font-family="'IBM Plex Mono', monospace">AUTO-ATTACHED</text>

  <rect x="156" y="498" width="596" height="90" rx="9" fill="#FCFAF8" stroke="#EDE9E3"/>
  <rect x="174" y="518" width="14" height="14" rx="3" fill="#fff" stroke="#D9D3CA"/>
  <rect x="204" y="518" width="92" height="12" rx="3" fill="#E4DED6"/>
  <rect x="640" y="514" width="46" height="20" rx="5" fill="#fff" stroke="#E8E4DE"/>
  <text x="663" y="528" font-size="9.5" fill="#8A847C" text-anchor="middle" font-family="'IBM Plex Mono', monospace">N/A</text>
  <rect x="694" y="514" width="42" height="20" rx="5" fill="#fff" stroke="#E8E4DE"/>
  <text x="715" y="528" font-size="9.5" fill="#8A847C" text-anchor="middle" font-family="'IBM Plex Mono', monospace">EDIT</text>
  <rect x="204" y="546" width="532" height="26" rx="6" fill="#fff" stroke="#E0DAD1" stroke-dasharray="5 4"/>
  <text x="470" y="563" font-size="11" fill="#9A948C" text-anchor="middle">Drag and drop, or click to upload evidence for this record</text>

  <rect x="156" y="600" width="596" height="90" rx="9" fill="#FCFAF8" stroke="#EDE9E3"/>
  <rect x="174" y="620" width="14" height="14" rx="3" fill="#fff" stroke="#D9D3CA"/>
  <rect x="204" y="620" width="116" height="12" rx="3" fill="#E4DED6"/>
  <rect x="640" y="616" width="46" height="20" rx="5" fill="#fff" stroke="#E8E4DE"/>
  <text x="663" y="630" font-size="9.5" fill="#8A847C" text-anchor="middle" font-family="'IBM Plex Mono', monospace">N/A</text>
  <rect x="694" y="616" width="42" height="20" rx="5" fill="#fff" stroke="#E8E4DE"/>
  <text x="715" y="630" font-size="9.5" fill="#8A847C" text-anchor="middle" font-family="'IBM Plex Mono', monospace">EDIT</text>
  <rect x="204" y="648" width="128" height="26" rx="6" fill="#fff" stroke="#E8E4DE"/>
  <rect x="214" y="656" width="10" height="10" rx="2" fill="#D9D3CA"/>
  <rect x="232" y="658" width="76" height="7" rx="3" fill="#EDE9E3"/>
  <rect x="342" y="648" width="112" height="26" rx="6" fill="#FDF3F7" stroke="#F2CBDB" stroke-dasharray="4 3"/>
  <text x="398" y="665" font-size="10" fill="#D6336C" text-anchor="middle" font-family="'IBM Plex Mono', monospace">+ ATTACH</text>
  <rect x="604" y="651" width="132" height="20" rx="10" fill="#F2EEE8"/>
  <text x="670" y="665" font-size="9.5" fill="#7A746C" text-anchor="middle" font-family="'IBM Plex Mono', monospace">AUTO-ATTACHED</text>

  <rect x="156" y="702" width="596" height="30" rx="9" fill="#FCFAF8" stroke="#EDE9E3" stroke-dasharray="5 4"/>
  <rect x="204" y="713" width="150" height="9" rx="3" fill="#EDE9E3"/>

  <line x1="784" y1="120" x2="784" y2="748" stroke="#EDE9E3"/>
  <text x="812" y="146" font-size="11" letter-spacing="1.3" fill="#9A948C" font-family="'IBM Plex Mono', monospace">GUIDANCE</text>

  <text x="812" y="182" font-size="12.5" fill="#1C1B22" font-weight="600">What counts as evidence here</text>
  <rect x="812" y="196" width="336" height="9" rx="3" fill="#F0EBE4"/>
  <rect x="812" y="214" width="300" height="9" rx="3" fill="#F0EBE4"/>
  <rect x="812" y="232" width="322" height="9" rx="3" fill="#F0EBE4"/>

  <text x="812" y="278" font-size="12.5" fill="#1C1B22" font-weight="600">If your environment is set up differently</text>
  <rect x="812" y="294" width="20" height="9" rx="3" fill="#F2CBDB"/>
  <rect x="842" y="294" width="290" height="9" rx="3" fill="#F0EBE4"/>
  <rect x="842" y="312" width="252" height="9" rx="3" fill="#F0EBE4"/>
  <rect x="812" y="338" width="20" height="9" rx="3" fill="#F2CBDB"/>
  <rect x="842" y="338" width="278" height="9" rx="3" fill="#F0EBE4"/>
  <rect x="842" y="356" width="230" height="9" rx="3" fill="#F0EBE4"/>

  <text x="812" y="414" font-size="12.5" fill="#1C1B22" font-weight="600">Shared across frameworks</text>
  <rect x="812" y="430" width="336" height="58" rx="9" fill="#FDF3F7" stroke="#F2CBDB"/>
  <text x="830" y="454" font-size="11.5" fill="#7C5266">This evidence is reused by a parallel audit.</text>
  <text x="830" y="472" font-size="11.5" fill="#7C5266">The customer is only asked for it once.</text>

  <text x="812" y="532" font-size="12.5" fill="#1C1B22" font-weight="600">Linked requirements</text>
  <rect x="812" y="546" width="62" height="22" rx="5" fill="#F2EEE8"/>
  <rect x="884" y="546" width="62" height="22" rx="5" fill="#F2EEE8"/>
  <rect x="956" y="546" width="62" height="22" rx="5" fill="#F2EEE8"/>
</svg>
