<svg xmlns="http://www.w3.org/2000/svg" viewBox="0 0 4471 839" role="img" aria-label="caption"><g transform="translate(0.000000,839.000000) scale(0.100000,-0.100000)" fill="currentColor" stroke="none"><path d="M123 8289 c-75 -50 -81 -73 -29 -122 36 -33 49 -70 61 -167 4 -30 13
-77 21 -104 8 -27 14 -79 14 -115 0 -36 7 -91 15 -121 8 -30 15 -78 15 -106 0
-28 10 -86 23 -130 13 -43 29 -113 36 -154 14 -82 28 -129 90 -292 23 -59 41
-123 41 -142 0 -38 14 -73 51 -131 14 -22 34 -65 44 -95 24 -76 35 -94 133
-242 48 -72 98 -147 112 -168 14 -21 90 -101 169 -179 116 -114 149 -141 172
-141 15 0 31 5 35 11 18 30 129 69 196 69 88 0 219 43 279 92 44 36 119 78
138 78 16 0 61 -103 61 -141 1 -72 58 -336 116 -539 14 -47 43 -159 65 -250
22 -91 56 -199 74 -240 27 -60 36 -97 45 -185 7 -60 20 -173 31 -250 10 -77
21 -175 25 -218 7 -75 9 -80 48 -118 51 -48 91 -57 160 -36 103 33 122 96 61
204 -28 51 -85 256 -85 307 0 39 -44 228 -64 278 -7 18 -16 56 -20 84 -3 28
-22 98 -41 155 -20 57 -49 165 -66 239 -16 74 -47 200 -69 280 -21 80 -42 172
-46 205 -4 33 -19 96 -34 140 -18 52 -30 112 -33 170 -4 50 -16 134 -27 189
-28 138 -27 162 15 226 19 30 38 69 41 87 7 39 -3 730 -11 743 -3 4 -9 57 -14
117 -9 105 -37 219 -86 353 -13 36 -31 87 -40 114 -31 87 -97 139 -154 121
-11 -3 -34 -28 -51 -55 -36 -56 -38 -80 -44 -405 -4 -206 23 -542 54 -683 6
-23 10 -68 10 -100 1 -86 35 -365 48 -389 21 -38 15 -111 -9 -131 -27 -21 -46
-43 -97 -108 -36 -45 -114 -108 -180 -143 -38 -20 -165 -30 -224 -17 -89 19
-230 109 -267 171 -18 29 -64 97 -103 151 -75 105 -126 205 -190 374 -14 36
-39 101 -56 145 -59 156 -130 495 -142 685 -5 74 -14 164 -20 200 -7 37 -9 98
-5 141 7 75 -16 263 -34 282 -10 10 -106 37 -156 43 -35 4 -48 -1 -102 -37z M7063 7610 c-31 -12 -93 -114 -94 -153 -2 -90 11 -438 21 -552 11
-131 28 -507 23 -514 -4 -5 -214 18 -308 34 -44 8 -116 19 -159 25 -67 9 -87
16 -125 45 -53 41 -60 42 -128 11 -56 -27 -98 -77 -109 -134 -10 -49 48 -116
119 -137 269 -80 400 -103 667 -118 l45 -2 0 -115 c0 -63 -3 -245 -8 -405 -9
-383 8 -532 63 -550 47 -15 188 47 209 91 14 31 14 114 1 185 -9 48 -8 57 10
81 27 37 25 55 -9 72 -30 16 -41 47 -41 113 0 19 -7 62 -15 94 -14 53 -14 62
1 96 12 28 16 67 15 151 l0 112 122 0 c165 1 263 25 311 79 43 48 9 131 -58
142 -42 7 -72 31 -80 64 -9 34 -32 37 -87 14 -45 -20 -56 -21 -116 -11 -36 6
-70 17 -75 24 -6 8 -6 163 -2 373 9 424 9 474 5 540 -2 28 0 84 3 125 7 70 5
79 -21 130 -44 84 -111 118 -180 90z M8005 7346 c-36 -36 -55 -86 -55 -143 0 -26 -7 -87 -15 -136 -9 -48
-15 -131 -15 -185 1 -53 -3 -187 -7 -297 -11 -244 2 -587 24 -665 29 -103 43
-165 57 -265 25 -173 63 -253 171 -362 49 -50 103 -97 118 -102 79 -30 247 6
247 53 0 6 12 29 26 49 14 21 40 66 56 100 67 135 138 183 138 95 1 -68 83
-217 135 -244 22 -11 58 -33 79 -48 65 -44 75 -45 215 -10 85 22 99 36 108
113 6 50 5 53 -28 81 -40 35 -64 37 -104 10 -81 -54 -149 17 -193 200 -66 277
-64 262 -57 429 4 86 11 173 17 195 10 40 26 166 33 269 3 32 11 68 20 80 19
28 20 145 1 191 -11 26 -22 36 -47 41 -48 11 -127 9 -142 -3 -35 -30 -61 -163
-77 -407 -5 -74 -17 -162 -29 -205 -11 -41 -21 -104 -21 -140 0 -39 -8 -84
-19 -115 -11 -27 -36 -95 -56 -150 -38 -102 -57 -143 -114 -250 -42 -76 -59
-95 -87 -95 -25 0 -66 47 -79 90 -4 13 -22 47 -40 75 -18 27 -36 70 -39 94 -4
24 -15 65 -25 90 -34 86 -45 156 -48 311 -8 430 2 679 37 925 35 253 36 262
11 289 -29 31 -73 52 -128 61 -37 6 -45 3 -68 -19z M2875 7160 c-135 -16 -265 -58 -350 -114 -27 -18 -66 -43 -87 -56
-20 -13 -44 -37 -53 -52 -9 -15 -29 -35 -45 -43 -16 -8 -41 -35 -56 -60 -14
-25 -45 -58 -68 -74 -72 -50 -96 -94 -73 -135 7 -13 12 -79 12 -181 1 -206 24
-308 84 -370 21 -22 44 -56 50 -76 15 -48 114 -142 166 -159 22 -7 68 -31 102
-52 110 -69 336 -86 597 -43 l109 17 33 -36 c18 -20 42 -36 54 -36 11 0 42
-11 68 -24 47 -24 177 -55 242 -57 67 -3 341 11 352 17 7 4 51 11 99 15 69 5
100 13 146 37 32 17 74 37 94 45 35 14 90 76 143 159 37 59 -14 181 -102 241
-26 18 -78 62 -117 99 -89 85 -285 235 -445 342 -89 59 -131 93 -144 118 -38
71 -8 81 224 79 163 -1 232 -13 300 -53 19 -11 54 -26 78 -33 42 -13 45 -12
73 13 27 25 28 30 19 64 -35 122 -305 228 -585 228 -192 0 -358 -117 -376
-265 -7 -59 6 -108 31 -117 5 -1 25 -25 42 -53 24 -36 47 -57 85 -75 28 -14
75 -48 105 -76 29 -27 105 -84 168 -127 63 -43 142 -97 175 -122 33 -25 87
-62 120 -84 139 -91 148 -108 86 -164 -55 -49 -105 -62 -236 -59 -60 1 -147
-3 -193 -8 -85 -11 -109 -7 -232 34 -54 18 -51 42 7 52 42 8 48 12 51 36 4 33
-21 51 -102 72 -33 8 -76 28 -97 45 -58 47 -89 34 -89 -37 0 -41 -14 -49 -116
-71 -49 -11 -113 -25 -142 -31 -29 -7 -62 -10 -72 -7 -10 3 -57 1 -104 -5 -77
-8 -89 -7 -132 13 -26 12 -65 27 -86 35 -63 22 -221 175 -262 253 -32 62 -76
207 -76 251 0 25 35 26 164 5 135 -21 348 -39 392 -32 21 4 75 25 121 47 45
22 88 40 94 40 6 0 38 26 71 58 120 113 150 187 123 296 -13 54 -22 68 -77
120 -123 115 -220 171 -288 164 -8 0 -42 -4 -75 -8z m153 -276 c74 -47 96 -80
73 -108 -13 -15 -142 -60 -206 -71 -21 -4 -52 -13 -67 -21 -38 -20 -88 -18
-143 6 -26 11 -69 20 -96 20 -54 0 -89 24 -89 59 0 22 35 51 61 51 9 0 32 14
50 31 48 45 58 48 165 55 55 4 106 10 114 15 31 18 69 7 138 -37z M11714 6875 c-46 -19 -92 -63 -104 -99 -8 -24 -6 -127 6 -397 24
-538 29 -623 37 -635 3 -6 11 -44 17 -85 6 -41 22 -107 36 -148 13 -40 24 -88
24 -106 0 -36 2 -34 -93 -51 -46 -8 -97 -55 -97 -90 0 -33 45 -121 69 -134 11
-5 40 -10 65 -10 66 0 87 -25 125 -146 36 -115 51 -134 108 -134 95 0 135 29
158 114 20 75 13 109 -38 188 -25 39 -39 76 -52 143 -9 50 -22 101 -27 115 -6
14 -14 59 -18 100 -4 41 -15 116 -24 165 -19 107 -37 462 -42 815 -2 140 -6
274 -10 298 -10 77 -77 124 -140 97z M27042 6803 c-29 -15 -59 -38 -68 -51 -24 -37 -19 -243 11 -454 14
-95 25 -212 25 -260 0 -48 6 -115 14 -150 8 -35 20 -124 26 -198 6 -74 18
-184 26 -245 8 -60 19 -164 24 -230 12 -151 35 -314 55 -385 8 -30 15 -66 15
-80 1 -14 17 -70 36 -125 19 -55 43 -129 53 -165 42 -148 75 -178 171 -155
104 25 112 37 108 165 -3 74 -1 85 15 88 12 2 22 -7 32 -32 8 -20 26 -43 39
-51 12 -8 49 -51 80 -94 89 -125 175 -194 283 -232 29 -10 68 -28 85 -40 38
-28 94 -28 210 0 45 10 105 22 131 26 94 14 85 73 -18 121 -42 20 -66 24 -146
24 -112 0 -163 13 -241 63 -71 46 -85 66 -186 252 -121 224 -131 255 -134 427
-3 123 0 148 15 177 11 19 22 69 27 120 5 47 14 136 20 198 16 155 1 183 -96
183 -92 0 -114 -27 -134 -168 -6 -45 -18 -101 -26 -124 -8 -22 -14 -54 -14
-70 0 -17 -7 -55 -16 -85 -13 -44 -15 -76 -9 -147 11 -145 9 -190 -14 -241
-17 -38 -25 -46 -43 -43 -37 5 -59 65 -68 184 -5 57 -12 110 -16 116 -5 7 -9
55 -11 108 -3 113 -18 284 -27 298 -3 5 -11 70 -16 143 -6 74 -15 161 -20 194
-6 33 -16 233 -25 445 -8 212 -19 409 -24 439 -14 87 -56 102 -149 54z M20917 6808 c-55 -42 -54 -112 4 -308 17 -58 35 -125 40 -150 5 -24
18 -68 29 -98 24 -63 26 -134 5 -155 -19 -20 -66 -34 -140 -42 -77 -9 -213
-45 -290 -78 -33 -14 -78 -28 -100 -32 -22 -4 -67 -19 -100 -33 -33 -13 -95
-31 -138 -39 -117 -20 -132 -30 -158 -111 -28 -88 -22 -115 31 -136 61 -24 89
-20 186 28 49 25 188 77 309 116 121 39 260 85 308 102 132 46 138 39 192
-197 9 -38 27 -108 40 -155 23 -85 28 -107 65 -293 11 -55 32 -125 46 -158 26
-57 26 -60 14 -139 -19 -125 0 -180 69 -201 40 -12 113 3 184 38 39 19 38 81
-4 159 -22 43 -33 81 -39 139 -12 108 -17 132 -55 265 -122 425 -141 548 -85
578 34 18 186 9 210 -13 22 -20 40 -80 40 -133 0 -43 -1 -42 100 -116 36 -27
58 -58 110 -152 35 -66 76 -135 91 -154 15 -19 33 -55 39 -80 6 -25 24 -61 39
-80 14 -19 35 -48 46 -65 41 -66 171 -197 220 -222 28 -14 63 -36 78 -49 61
-51 142 -15 199 90 54 99 50 132 -38 290 -55 98 -216 270 -315 336 -81 54
-239 201 -239 222 0 11 10 20 28 24 15 3 55 15 89 26 94 31 270 24 333 -13 77
-45 85 -45 107 -2 14 29 25 39 47 41 54 6 156 -62 156 -103 0 -8 20 -64 44
-127 24 -62 54 -153 66 -203 13 -53 40 -123 65 -170 25 -46 50 -110 58 -150 9
-38 21 -85 28 -102 18 -43 7 -52 -72 -61 -72 -8 -75 -13 -78 -113 -1 -55 0
-55 104 -99 106 -45 111 -50 155 -176 21 -60 42 -122 48 -139 6 -16 15 -71 21
-121 7 -70 16 -105 40 -149 17 -32 31 -68 31 -81 0 -64 26 -176 54 -236 27
-60 36 -70 73 -84 41 -16 44 -16 90 7 80 40 102 118 61 221 -14 35 -29 81 -32
103 -4 22 -20 60 -35 85 -16 25 -34 68 -41 95 -7 28 -23 73 -35 100 -13 28
-26 77 -30 110 -4 33 -18 80 -30 106 -13 25 -32 78 -41 118 -23 93 -19 96 144
145 144 43 177 58 269 127 89 67 104 87 163 216 67 146 67 175 0 310 -27 55
-68 122 -91 149 -22 26 -52 66 -66 88 -40 65 -71 92 -182 163 -108 69 -246
130 -366 163 -38 10 -97 28 -129 39 -33 12 -78 21 -101 21 -23 0 -66 7 -96 17
-109 33 -461 18 -597 -26 -35 -12 -103 -25 -150 -31 -48 -5 -103 -14 -122 -20
-50 -15 -96 -12 -133 6 -44 23 -118 39 -291 63 -148 21 -191 35 -203 69 -3 9
-19 46 -36 81 -17 35 -36 98 -43 140 -8 42 -20 100 -28 129 -9 30 -18 88 -22
130 -7 89 -22 118 -69 138 -42 17 -125 18 -148 2z m2108 -1013 c47 -6 130 -29
220 -63 22 -8 67 -24 100 -36 49 -18 67 -31 102 -76 23 -30 59 -75 80 -99 57
-65 62 -79 63 -166 0 -161 -55 -265 -164 -310 -22 -9 -73 -32 -112 -50 -90
-43 -113 -49 -146 -36 -32 12 -53 49 -62 109 -4 24 -18 71 -32 105 -13 34 -29
93 -35 132 -6 38 -20 90 -31 115 -11 25 -23 84 -28 132 -8 80 -12 93 -49 146
-23 32 -41 65 -41 74 0 23 29 39 60 33 14 -2 48 -6 75 -10z m-865 -510 c0 -8
-7 -15 -15 -15 -8 0 -15 7 -15 15 0 8 7 15 15 15 8 0 15 -7 15 -15z M9720 6475 c-105 -30 -174 -53 -220 -74 -56 -26 -232 -197 -256 -250
-12 -25 -31 -55 -43 -65 -49 -44 -61 -78 -61 -172 -1 -198 27 -309 101 -402
48 -59 166 -150 208 -162 20 -5 65 -16 101 -25 36 -9 124 -21 195 -26 368 -26
469 -20 630 33 113 37 124 53 87 119 -28 50 -60 58 -135 31 -76 -27 -320 -32
-440 -8 -40 8 -107 20 -150 27 -60 9 -90 20 -135 49 -31 20 -74 45 -94 55 -74
34 -143 149 -120 199 10 22 13 23 176 24 180 2 282 13 337 36 19 8 66 22 103
30 71 17 150 71 243 167 60 62 66 85 47 172 -21 100 -81 179 -174 227 -88 46
-264 52 -400 15z m303 -217 c65 -31 77 -49 55 -87 -30 -50 -198 -101 -333
-101 -33 0 -76 -4 -95 -10 -19 -5 -70 -13 -112 -16 -92 -8 -99 3 -49 73 33 46
63 69 141 107 30 15 71 36 90 47 54 31 223 24 303 -13z M12490 6293 c-14 -9 -28 -22 -33 -29 -11 -19 -105 -74 -125 -74 -10
0 -27 7 -38 15 -23 18 -100 20 -111 3 -4 -7 -15 -31 -23 -53 -11 -29 -25 -45
-53 -58 -22 -10 -37 -24 -37 -35 0 -10 45 -65 101 -122 132 -138 129 -128 128
-357 0 -293 16 -344 173 -559 56 -77 336 -206 408 -189 59 15 94 50 124 125
28 72 28 73 18 190 -12 130 -52 256 -101 320 -15 19 -54 80 -87 134 -54 92
-65 103 -134 148 -83 53 -109 82 -117 133 -8 49 34 89 108 103 30 6 92 17 139
26 47 9 117 16 156 16 41 0 87 6 107 15 67 28 211 20 282 -15 33 -16 65 -30
71 -30 6 0 24 -12 39 -26 l28 -25 -7 -102 c-4 -56 -9 -204 -11 -329 l-5 -227
39 -123 c104 -325 273 -478 546 -495 l90 -5 67 51 c72 55 80 70 97 179 12 76
-7 265 -36 352 -35 108 -152 322 -212 386 -146 159 -151 174 -48 174 41 0 108
3 150 6 l77 7 58 -60 c65 -69 90 -82 221 -112 129 -29 162 -50 224 -141 61
-90 104 -198 118 -300 6 -41 21 -122 34 -180 13 -58 26 -143 30 -190 3 -47 10
-123 15 -170 5 -47 16 -159 25 -250 8 -91 20 -210 26 -264 6 -55 15 -174 20
-265 5 -91 13 -198 18 -237 13 -95 13 -339 0 -387 -9 -35 -8 -42 11 -62 11
-12 33 -60 48 -106 24 -75 31 -86 62 -101 55 -28 116 -24 150 10 l28 29 -5
124 c-6 116 -8 128 -40 187 -26 51 -33 75 -33 122 0 32 -5 71 -10 86 -14 37
-37 293 -50 554 -6 118 -14 242 -19 275 -23 152 -9 260 37 284 9 5 100 29 202
55 297 74 431 138 557 264 71 72 70 188 -4 339 l-48 97 -111 72 c-159 104
-219 135 -394 203 -85 34 -177 71 -205 82 -27 12 -81 27 -120 35 -38 7 -83 17
-98 23 -16 6 -69 20 -117 31 -93 20 -119 30 -210 86 -77 47 -122 61 -257 79
-65 9 -170 25 -233 35 -132 23 -202 24 -355 9 l-109 -11 -49 56 c-127 145
-289 191 -505 143 -66 -15 -82 -15 -158 -1 -47 8 -89 12 -93 10 -4 -3 -53 -12
-109 -22 -98 -16 -102 -16 -128 2 -67 48 -81 54 -124 54 -26 0 -56 -7 -70 -17z
m1295 -663 c9 -16 20 -30 25 -30 42 0 175 -174 251 -330 26 -53 69 -225 76
-301 5 -63 4 -66 -22 -87 -19 -15 -42 -22 -73 -22 -42 0 -49 4 -129 83 -86 83
-160 189 -187 264 -28 79 -20 393 11 446 10 16 33 5 48 -23z m-1158 -67 c146
-167 198 -270 209 -418 7 -85 7 -85 -17 -85 -63 1 -130 50 -178 132 -17 29
-41 65 -52 79 -22 28 -76 315 -65 344 11 31 44 14 103 -52z m2613 -63 c36 -16
106 -46 155 -68 50 -22 100 -43 112 -47 60 -17 228 -159 259 -217 30 -58 9
-85 -105 -133 -34 -14 -90 -41 -124 -59 -54 -28 -76 -34 -161 -40 -112 -8
-116 -6 -116 61 0 38 -5 46 -58 92 -53 46 -63 61 -101 156 -55 136 -81 256
-61 280 20 24 116 12 200 -25z M31237 6232 c-10 -10 -17 -32 -17 -48 0 -16 -5 -49 -11 -74 -16 -72
57 -451 119 -607 22 -56 40 -112 40 -125 0 -24 12 -52 67 -158 36 -69 43 -104
23 -116 -6 -4 -82 -11 -167 -15 -224 -10 -247 -17 -343 -108 -46 -43 -90 -95
-104 -123 -14 -27 -39 -58 -59 -71 -44 -27 -51 -53 -30 -103 12 -29 15 -54 10
-96 -6 -51 -4 -63 23 -110 16 -29 39 -79 52 -111 22 -57 90 -127 171 -174 48
-28 34 -48 -37 -51 -117 -6 -253 85 -357 238 -19 27 -23 75 -7 85 15 9 12 53
-6 81 -12 17 -18 52 -19 112 -2 48 -10 105 -18 127 -8 22 -20 69 -27 105 -12
71 -19 94 -61 190 -15 36 -30 82 -34 102 -12 78 -86 99 -165 48 -58 -38 -71
-63 -81 -170 -5 -47 -12 -112 -15 -146 -6 -55 -3 -65 19 -100 19 -28 29 -62
36 -116 5 -49 17 -90 30 -110 12 -18 27 -46 34 -63 6 -16 36 -77 65 -134 60
-116 61 -136 13 -168 -49 -33 -102 -30 -187 11 -118 56 -160 127 -143 239 8
49 5 90 -10 192 -23 157 -56 250 -130 370 -30 50 -68 115 -83 146 -39 79 -57
92 -131 97 -46 3 -66 0 -74 -10 -25 -29 -36 -273 -19 -398 26 -189 49 -276 83
-313 40 -43 113 -190 113 -228 0 -41 -34 -53 -128 -45 -87 8 -146 32 -201 81
-53 48 -111 154 -128 233 -7 35 -28 100 -47 145 -19 45 -37 102 -41 127 -11
88 -38 152 -86 204 -35 38 -48 62 -54 96 -17 101 -31 110 -176 110 -149 0
-312 -65 -413 -166 -70 -71 -83 -94 -91 -165 -4 -30 -20 -98 -37 -152 -34
-108 -36 -88 17 -262 15 -49 42 -112 60 -140 18 -27 40 -66 49 -86 35 -74 123
-146 236 -192 70 -28 106 -48 108 -60 2 -11 -3 -17 -15 -17 -10 0 -37 -19 -60
-42 -71 -74 -70 -128 4 -178 53 -36 84 -35 140 3 49 33 60 76 33 132 -35 72
-30 78 85 92 135 16 159 25 216 78 53 50 77 55 120 24 93 -66 321 -95 419 -54
29 13 70 19 116 20 70 0 72 -1 115 -40 67 -62 162 -89 282 -82 125 7 152 18
169 69 25 77 86 87 156 24 121 -109 363 -173 547 -146 44 7 152 15 240 19 186
9 234 24 280 87 40 54 107 124 120 124 19 0 105 -81 105 -100 0 -58 118 -254
162 -269 90 -32 207 0 209 56 2 55 -3 69 -45 108 -31 30 -54 66 -87 143 -25
58 -63 126 -87 155 -48 58 -105 169 -156 303 -19 49 -41 107 -49 129 -22 57
-65 188 -86 265 -20 75 -65 193 -111 295 -32 70 -42 121 -60 294 -8 77 -16
103 -40 143 -17 27 -37 75 -45 106 -8 31 -23 68 -33 82 -37 50 -51 89 -66 180
-17 103 -25 117 -102 160 -60 35 -84 37 -107 12z m-2367 -1227 c7 -9 16 -37
21 -63 10 -69 72 -221 138 -342 31 -58 63 -116 69 -130 7 -14 30 -44 51 -67
88 -95 59 -163 -68 -163 -180 1 -371 134 -435 304 -58 155 -49 210 59 346 106
133 134 152 165 115z m2615 -204 c71 -34 113 -75 154 -153 17 -32 45 -83 61
-114 51 -95 34 -174 -57 -266 -136 -138 -311 -103 -540 107 -75 68 -132 240
-100 301 23 43 88 103 143 129 78 39 255 36 339 -4z M17635 6223 c-27 -6 -125 -103 -125 -124 0 -9 7 -30 16 -48 10 -20
14 -47 11 -69 -3 -24 8 -79 30 -157 19 -66 38 -156 44 -200 5 -44 14 -93 19
-110 13 -40 47 -200 66 -305 8 -47 21 -105 28 -130 8 -25 17 -71 20 -103 9
-82 29 -124 89 -186 135 -139 177 -145 292 -44 42 37 85 81 95 98 38 62 88
227 93 310 3 44 13 103 23 132 16 50 16 53 -2 80 -16 25 -19 50 -19 208 -1
121 -5 193 -14 218 -7 22 -10 53 -7 73 5 22 0 58 -14 104 -12 39 -20 85 -18
103 3 30 1 31 -42 39 -52 10 -196 -15 -219 -37 -24 -24 4 -115 57 -183 47 -61
48 -67 26 -180 -4 -22 1 -49 16 -87 14 -34 22 -76 22 -112 1 -108 -10 -241
-21 -262 -6 -11 -11 -62 -11 -113 0 -69 -5 -102 -18 -127 -37 -73 -82 -64 -82
17 0 27 -10 66 -24 96 -48 103 -57 133 -66 226 -6 52 -14 124 -20 160 -5 36
-10 91 -10 122 0 31 -5 69 -11 84 -15 42 -39 237 -39 324 0 70 -2 78 -27 102
-72 65 -119 90 -158 81z M18608 6145 c-31 -43 -70 -65 -120 -65 -23 0 -66 -54 -73 -93 -3 -18
-5 -66 -3 -106 3 -74 4 -75 38 -95 26 -16 59 -22 128 -26 l94 -5 14 -40 c7
-22 19 -65 25 -95 7 -30 21 -67 31 -82 10 -14 18 -34 18 -45 0 -10 8 -47 19
-83 10 -36 21 -96 25 -135 4 -38 17 -106 28 -150 18 -72 19 -86 7 -135 -20
-81 -7 -144 34 -179 11 -8 17 -45 22 -129 4 -64 17 -162 30 -217 12 -55 28
-148 34 -208 7 -59 18 -124 25 -145 8 -20 17 -62 21 -92 4 -30 15 -95 25 -145
11 -49 22 -117 26 -150 4 -33 21 -105 39 -160 18 -55 36 -120 39 -145 8 -50
38 -105 67 -121 57 -30 189 40 204 109 8 39 -31 180 -63 226 -15 21 -35 50
-44 64 -38 57 -79 212 -94 356 -8 77 -23 202 -33 276 -11 74 -27 187 -35 250
-9 63 -21 139 -28 168 -15 71 -8 76 107 82 100 6 124 17 224 103 19 17 60 41
90 54 30 14 68 35 84 49 16 13 60 42 98 65 129 75 250 258 257 391 7 110 0
127 -86 218 -86 91 -115 109 -252 155 -431 146 -461 155 -503 155 -19 0 -71
14 -114 30 -42 17 -85 30 -95 30 -9 0 -32 13 -50 29 -53 46 -132 81 -183 81
-42 0 -47 -3 -77 -45z m597 -406 c44 -12 97 -30 117 -40 21 -11 48 -19 61 -19
86 0 255 -73 306 -132 77 -88 83 -141 24 -185 -21 -15 -65 -52 -99 -83 -33
-30 -98 -75 -145 -99 -46 -25 -123 -71 -171 -103 -91 -61 -132 -71 -192 -48
-35 13 -66 78 -66 139 0 55 -11 137 -40 301 -31 174 -37 287 -14 293 34 10
138 -1 219 -24z M5334 6166 c-35 -15 -54 -55 -74 -151 -7 -33 -23 -98 -36 -144 -13
-46 -24 -98 -24 -116 0 -107 -86 -348 -156 -437 -45 -58 -68 -94 -110 -174
-31 -60 14 -134 82 -134 34 0 45 7 102 69 72 79 158 208 168 255 3 17 33 87
66 156 43 88 63 144 70 190 23 156 39 231 64 284 43 95 42 123 -6 174 -46 46
-85 54 -146 28z M33112 5860 c-18 -11 -37 -32 -42 -46 -13 -32 0 -160 29 -294 12 -52
21 -112 21 -132 0 -20 5 -49 11 -65 6 -15 19 -68 29 -118 11 -50 35 -122 56
-163 48 -97 46 -99 -125 -117 -159 -17 -190 -32 -318 -161 -105 -106 -124
-146 -137 -291 -8 -98 -7 -119 8 -170 10 -32 27 -92 38 -133 22 -81 60 -131
163 -215 28 -23 64 -54 80 -69 42 -39 84 -59 226 -106 142 -47 161 -47 254 5
72 40 88 56 115 118 29 64 62 86 98 64 27 -16 64 -77 79 -132 17 -61 207 -124
240 -80 17 25 17 99 -2 134 -8 16 -18 48 -21 72 -6 35 -19 56 -64 104 -67 71
-80 92 -80 137 0 22 -13 53 -35 87 -66 100 -58 174 20 184 103 15 150 -37 196
-213 12 -47 39 -115 59 -152 21 -37 41 -76 45 -87 3 -10 24 -36 47 -56 37 -34
44 -37 80 -31 60 10 117 42 124 72 14 57 -1 131 -35 170 -44 49 -66 105 -74
182 -4 35 -11 71 -17 82 -5 10 -11 40 -13 66 l-2 48 43 12 c46 14 432 35 477
27 39 -8 41 -29 8 -76 -53 -75 -68 -130 -68 -252 l0 -111 58 -104 c79 -141 92
-157 182 -219 175 -120 297 -144 410 -81 33 19 82 49 109 67 59 40 100 42 147
8 123 -88 205 -108 273 -65 38 23 41 31 51 123 7 61 21 83 61 93 35 9 66 -7
143 -77 84 -75 144 -113 291 -185 183 -90 234 -99 325 -58 68 32 124 28 182
-10 21 -14 63 -34 93 -45 30 -10 81 -31 113 -45 69 -31 97 -32 202 -6 108 28
166 67 206 140 10 19 29 47 40 61 39 49 24 214 -38 445 -7 28 -30 78 -49 110
-20 32 -49 95 -65 139 -67 183 -140 257 -267 271 -70 8 -85 -7 -90 -93 l-4
-69 106 -109 c99 -102 107 -115 140 -199 20 -50 38 -109 42 -131 4 -22 15 -64
25 -94 28 -81 26 -186 -3 -205 -77 -48 -217 -36 -348 32 -93 48 -115 79 -125
169 -6 60 -78 292 -108 348 -5 11 -14 57 -18 102 -5 53 -14 94 -26 112 -88
138 -101 150 -164 151 -42 0 -50 -4 -83 -40 -19 -22 -38 -52 -42 -67 -3 -16
-12 -45 -18 -66 -8 -22 -12 -87 -10 -165 1 -118 3 -132 31 -192 31 -67 94
-165 169 -261 58 -73 58 -89 -1 -89 -54 0 -157 51 -238 117 -28 24 -55 43 -59
43 -3 0 -28 17 -55 39 -27 21 -64 46 -81 55 -78 40 -142 98 -142 128 0 19 -13
43 -37 71 -83 93 -96 123 -114 259 -32 254 -189 365 -278 198 -38 -71 -38 -87
-4 -136 14 -21 32 -57 39 -79 7 -22 19 -56 27 -75 22 -52 32 -166 17 -185 -11
-13 -8 -21 19 -49 51 -53 69 -167 31 -201 -41 -37 -126 20 -149 101 -7 27 -22
74 -32 104 -11 30 -19 77 -19 105 0 27 -6 70 -14 95 -8 25 -20 71 -26 103 -8
40 -26 79 -57 125 -34 49 -49 84 -59 134 -21 107 -65 166 -133 175 -45 6 -71
-15 -105 -84 -10 -21 -22 -45 -26 -53 -11 -23 -378 -23 -472 -1 -68 16 -93 16
-343 -4 -112 -9 -143 9 -170 101 -18 63 -60 91 -120 80 -61 -12 -82 -53 -100
-198 -7 -59 -21 -72 -45 -43 -7 8 -17 15 -23 15 -5 0 -26 15 -47 34 -37 34
-133 76 -171 76 -52 0 -89 53 -89 128 0 22 -11 73 -24 113 -13 41 -31 121 -39
179 -9 58 -27 132 -41 165 -13 33 -27 78 -31 100 -14 83 -47 211 -58 226 -23
31 -90 69 -121 69 -17 0 -46 -9 -64 -20z m238 -1280 c19 -58 41 -130 48 -160
8 -30 21 -74 29 -96 29 -79 -11 -269 -67 -319 -15 -13 -41 -20 -86 -23 -120
-8 -267 89 -366 239 -43 66 -55 114 -54 224 1 71 3 80 21 83 11 2 40 23 65 47
25 24 63 51 84 60 61 26 196 54 246 52 l44 -2 36 -105z m1668 -118 c11 -11 34
-63 53 -117 33 -93 38 -101 119 -183 104 -105 120 -128 120 -169 0 -41 -4 -43
-118 -56 l-97 -10 -65 34 c-54 28 -70 43 -92 84 -15 27 -36 57 -47 66 -79 64
-80 208 -2 317 38 52 96 67 129 34z M24575 5842 c-6 -4 -23 -27 -39 -52 -44 -67 -36 -157 29 -325 15 -38
31 -88 36 -110 9 -36 51 -179 95 -320 9 -27 24 -61 34 -75 9 -14 31 -52 48
-86 44 -88 98 -119 272 -159 41 -9 122 -29 180 -45 58 -15 134 -31 170 -34 36
-4 115 -18 175 -31 94 -20 131 -23 255 -20 167 4 209 14 313 76 96 57 106 66
113 105 9 47 0 58 -220 278 -189 189 -254 247 -331 298 -69 45 -175 164 -175
196 0 27 159 31 218 6 229 -99 345 -103 368 -15 14 50 -18 87 -119 135 -52 26
-98 46 -103 46 -5 0 -44 18 -89 39 -150 73 -255 78 -378 18 -91 -46 -110 -66
-136 -144 -25 -73 -27 -123 -7 -161 23 -43 183 -192 281 -262 50 -35 117 -90
150 -121 33 -32 78 -71 100 -87 61 -44 135 -119 135 -137 0 -53 -283 -67 -505
-25 -155 29 -219 45 -305 72 -108 34 -140 52 -140 74 0 20 -81 230 -122 314
-40 84 -53 134 -83 310 -28 161 -51 211 -110 236 -37 15 -94 18 -110 6z M37621 4763 c-51 -69 -60 -98 -40 -134 6 -12 12 -71 14 -132 7 -216
17 -271 73 -397 27 -63 58 -140 68 -170 26 -84 133 -219 306 -386 130 -126
226 -182 328 -191 53 -5 58 -3 106 35 32 25 57 55 67 80 41 103 128 95 249
-25 40 -40 91 -78 130 -97 74 -36 80 -52 37 -95 -30 -31 -31 -34 -27 -103 5
-85 32 -118 97 -118 45 0 71 24 99 91 29 67 76 103 121 92 60 -13 169 -5 223
19 68 29 84 62 48 98 -17 17 -33 20 -120 20 -86 0 -105 3 -129 21 -15 11 -47
25 -71 30 -53 12 -315 205 -401 295 -96 101 -178 290 -199 459 -6 50 -17 110
-25 135 -7 25 -17 70 -20 100 -4 30 -13 80 -20 110 -8 30 -13 92 -13 136 2 89
-19 130 -79 162 -75 41 -123 -16 -148 -178 -8 -47 -21 -107 -30 -135 -18 -58
-13 -114 18 -190 11 -27 24 -68 29 -90 27 -120 60 -217 115 -331 33 -70 33
-71 24 -154 -9 -79 -12 -87 -45 -117 -48 -44 -62 -42 -132 17 -32 28 -89 76
-126 108 -71 60 -152 171 -164 225 -3 17 -18 49 -31 70 -30 48 -83 179 -83
206 0 11 -9 44 -21 73 -29 73 -35 184 -15 280 21 102 20 129 -6 168 -31 45
-65 67 -115 75 l-42 7 -50 -69z M10097 4159 c-58 -34 -72 -164 -28 -264 28 -63 57 -184 86 -365 14
-85 32 -178 40 -205 20 -71 44 -213 55 -325 9 -84 8 -96 -7 -107 -20 -16 -107
-16 -491 -3 -237 8 -289 8 -317 -4 -71 -30 -70 -93 1 -152 49 -39 124 -59 269
-71 39 -3 89 -11 113 -19 32 -11 58 -12 100 -6 61 10 296 7 374 -3 60 -9 64
-15 94 -130 13 -53 35 -118 49 -145 46 -90 72 -191 60 -228 -4 -14 -24 -27
-55 -37 -53 -18 -54 -20 -50 -95 3 -68 22 -80 151 -95 56 -7 56 -7 110 40 30
25 65 55 78 66 21 18 23 25 18 82 -11 114 -33 225 -50 249 -67 92 -66 88 -69
192 l-3 100 35 9 c50 12 299 11 347 -2 23 -6 47 -21 55 -34 22 -35 67 -167 73
-217 5 -42 14 -77 65 -257 11 -39 35 -93 53 -120 18 -26 45 -69 60 -95 16 -27
32 -48 37 -48 5 0 12 -10 16 -22 9 -29 -18 -48 -67 -48 -104 0 -107 -183 -4
-226 68 -28 145 22 171 112 18 63 34 74 103 74 50 0 51 0 86 55 42 67 54 68
149 16 39 -21 88 -44 109 -50 21 -7 51 -24 69 -39 46 -39 128 -43 202 -8 30
14 63 26 73 26 21 0 65 30 114 78 20 20 43 32 60 32 27 0 32 -7 55 -85 12 -40
33 -42 101 -10 65 30 113 70 113 96 0 10 -27 73 -60 141 -55 111 -62 133 -71
218 -6 52 -17 120 -24 150 -51 202 -65 265 -65 296 0 19 -11 57 -25 84 -14 27
-25 67 -25 88 0 47 -42 137 -71 152 -32 18 -146 -6 -176 -36 -31 -31 -33 -145
-3 -201 10 -20 24 -59 29 -87 5 -28 17 -91 26 -141 10 -49 30 -126 47 -170 23
-64 30 -102 35 -190 l5 -110 -35 -41 c-40 -46 -105 -72 -200 -81 -65 -7 -70
-2 -186 137 -67 80 -121 237 -103 297 19 66 24 217 7 256 -8 19 -22 90 -31
158 -21 152 -34 171 -113 172 -41 1 -59 -5 -93 -29 -65 -45 -67 -54 -69 -294
-3 -206 -2 -219 24 -315 41 -152 35 -235 -18 -235 -39 0 -56 40 -86 198 -24
128 -70 309 -83 331 -7 11 -74 319 -81 371 -10 79 -46 293 -56 341 -6 28 -8
133 -5 264 6 207 5 221 -15 261 -25 54 -82 84 -157 84 -61 0 -76 -17 -86 -96
-10 -82 -7 -445 4 -489 6 -22 19 -110 30 -195 11 -85 24 -184 29 -219 13 -93
11 -95 -73 -88 -40 4 -105 13 -145 22 -40 8 -103 15 -141 15 -84 0 -100 6
-100 35 0 13 -11 55 -25 93 -30 84 -62 231 -80 377 -8 61 -18 126 -24 145 -5
19 -14 82 -21 140 -15 130 -20 150 -64 278 -41 120 -67 167 -104 186 -38 19
-104 27 -125 15z M3800 3601 c-317 -64 -346 -74 -441 -156 -30 -26 -85 -62 -122 -81
-95 -49 -152 -142 -133 -219 20 -80 252 -295 386 -358 36 -17 109 -55 162 -84
53 -29 131 -67 173 -83 116 -47 286 -136 323 -170 68 -63 35 -76 -198 -72
-193 3 -412 18 -455 32 -16 5 -68 14 -115 19 -47 5 -116 16 -155 25 -213 46
-321 43 -391 -13 -53 -43 -61 -66 -44 -127 17 -60 18 -60 260 -67 146 -4 234
-11 305 -25 297 -59 411 -72 625 -72 147 0 152 -1 175 -25 14 -13 25 -28 25
-34 0 -14 104 -71 130 -71 42 0 90 64 90 119 0 49 27 101 53 101 27 0 41 21
43 62 2 23 6 62 10 85 l6 41 -94 95 c-82 84 -101 99 -163 122 -38 14 -76 31
-85 39 -21 18 -199 116 -300 165 -46 23 -89 45 -95 50 -5 4 -36 18 -67 30 -31
13 -65 32 -75 43 -10 11 -43 37 -73 58 -67 45 -131 113 -149 158 -18 43 -4 58
67 72 28 5 69 18 89 28 21 11 49 23 63 27 14 4 54 20 90 35 64 28 171 48 300
57 76 5 155 -19 215 -67 44 -35 74 -37 132 -11 54 25 77 60 70 107 -12 72 -45
102 -154 139 -37 12 -86 32 -108 43 -71 37 -120 35 -375 -17z M40713 3590 c-47 -19 -71 -84 -79 -210 -6 -109 -23 -163 -93 -283
-98 -171 -100 -174 -254 -252 -171 -87 -197 -118 -133 -160 74 -49 158 -39
301 33 132 67 230 160 305 288 14 24 38 64 53 89 17 27 32 70 37 103 4 31 15
75 23 97 26 68 28 93 12 160 -29 128 -83 171 -172 135z M5155 3404 c-97 -13 -124 -21 -225 -69 -63 -29 -142 -61 -175 -69
-44 -11 -67 -24 -85 -46 -31 -37 -71 -50 -174 -54 -90 -4 -101 -12 -112 -81
-7 -53 2 -98 24 -118 25 -23 129 -58 192 -66 65 -7 89 -35 109 -127 12 -55 56
-158 135 -311 128 -250 495 -444 648 -343 73 49 95 114 81 242 -12 106 -18
120 -113 252 -90 127 -332 343 -417 373 -25 8 -73 54 -73 69 0 18 103 73 173
91 119 31 226 23 350 -27 149 -60 187 -109 355 -460 33 -69 72 -153 86 -186
14 -34 34 -77 45 -95 11 -19 34 -72 51 -119 17 -47 48 -107 69 -135 21 -27 47
-66 59 -85 44 -74 125 -130 187 -130 18 0 41 14 68 40 59 59 88 54 141 -23 87
-128 263 -159 438 -78 90 41 122 69 153 134 31 64 50 69 89 26 19 -20 51 -49
72 -65 22 -16 54 -41 72 -56 77 -66 126 -81 266 -86 141 -5 228 8 261 38 44
40 71 43 189 16 141 -31 388 -42 469 -20 29 8 95 23 146 34 52 11 147 41 210
67 64 25 138 52 165 59 82 22 113 77 66 119 -27 24 -77 17 -255 -34 -77 -23
-153 -41 -170 -41 -16 0 -67 -7 -113 -15 -186 -32 -490 17 -578 95 -19 16 -49
36 -67 43 -68 29 -137 140 -94 151 44 11 238 56 266 62 18 3 52 15 76 25 24
10 78 26 121 35 65 13 89 24 139 62 139 105 233 217 257 305 10 41 9 47 -32
130 -62 128 -100 152 -285 176 -161 22 -368 -2 -442 -50 -21 -14 -58 -33 -83
-43 -62 -24 -126 -79 -152 -129 -33 -66 -115 -183 -142 -205 -14 -10 -48 -22
-75 -26 -30 -4 -61 -16 -76 -29 -25 -21 -25 -25 -18 -92 8 -66 10 -70 50 -100
25 -18 46 -44 54 -65 19 -57 50 -113 80 -148 16 -18 29 -40 29 -48 0 -9 23
-37 50 -64 68 -66 67 -99 -5 -119 -61 -17 -96 -13 -140 14 -22 13 -58 33 -80
44 -46 22 -74 50 -136 141 -58 83 -92 220 -93 374 -1 76 -5 107 -18 126 -20
30 -54 146 -98 329 -32 137 -76 244 -105 255 -64 24 -146 -32 -161 -109 -10
-51 13 -422 30 -500 19 -85 65 -235 81 -265 39 -71 85 -186 85 -213 0 -60 -94
-126 -203 -142 -42 -7 -46 -5 -101 43 -100 88 -142 159 -149 253 -4 45 -18
111 -32 152 -38 109 -55 209 -55 337 0 112 -14 286 -26 323 -7 23 -118 77
-156 77 -40 0 -65 -30 -72 -86 -15 -129 -17 -231 -6 -356 11 -123 10 -142 -5
-189 -12 -36 -16 -69 -12 -111 10 -108 -63 -74 -79 36 -8 65 -41 164 -64 196
-10 14 -23 45 -30 70 -6 25 -22 63 -35 85 -13 22 -38 67 -56 100 -70 130 -200
269 -298 320 -62 31 -221 89 -281 102 -107 21 -120 22 -235 7z m3327 -530 c16
-8 29 -25 33 -43 12 -55 9 -58 -235 -183 -19 -9 -67 -22 -106 -27 -38 -6 -91
-19 -116 -31 -32 -14 -71 -21 -134 -22 -122 -4 -122 8 -7 128 96 100 179 151
303 185 74 21 215 17 262 -7z m-3374 -148 c126 -97 249 -263 266 -359 9 -50
-8 -55 -74 -22 -66 33 -125 95 -205 216 -71 106 -85 136 -85 180 0 42 30 38
98 -15z M19795 3152 c-89 -31 -91 -38 -89 -328 2 -248 8 -316 45 -534 20
-121 63 -280 96 -352 63 -139 107 -246 142 -344 55 -156 123 -288 204 -392 76
-100 120 -108 194 -38 l46 43 7 92 c4 50 12 97 18 103 17 17 140 -46 214 -109
85 -73 161 -98 351 -117 141 -14 162 -14 187 -1 57 29 114 14 190 -50 25 -21
86 -57 135 -80 104 -49 112 -56 130 -125 35 -132 115 -163 202 -78 28 27 33
39 33 80 0 46 2 49 56 88 79 59 90 82 98 206 l7 104 -42 93 c-23 50 -52 104
-63 118 -12 14 -56 70 -100 124 -43 53 -121 145 -172 203 -131 149 -129 157
43 169 180 12 279 -28 357 -145 24 -37 50 -80 57 -97 7 -16 26 -50 43 -74 16
-24 38 -67 48 -95 40 -106 159 -323 215 -392 18 -23 33 -44 33 -48 0 -15 124
-187 148 -207 14 -11 36 -35 49 -54 39 -57 129 -118 182 -123 125 -11 175 113
141 345 -5 38 -17 115 -25 173 -24 170 -124 467 -194 580 -16 25 -34 62 -40
82 -7 20 -43 76 -82 124 -64 80 -69 90 -69 134 0 69 -27 101 -67 80 -22 -13
-29 -25 -34 -60 -4 -25 -14 -67 -24 -93 -22 -62 -16 -110 22 -167 66 -98 142
-239 171 -315 29 -76 41 -119 77 -280 9 -38 27 -101 40 -138 33 -91 33 -107
-3 -107 -41 0 -150 128 -203 240 -12 25 -52 97 -89 160 -38 63 -71 131 -75
150 -4 19 -29 85 -57 145 -27 61 -62 137 -76 170 -32 70 -109 152 -173 182
-90 42 -216 66 -304 58 -44 -4 -91 -7 -105 -7 -236 8 -415 8 -456 0 -43 -9
-63 -7 -120 10 -73 21 -112 20 -201 -8 -36 -11 -44 -19 -53 -49 -23 -83 2
-148 68 -174 21 -8 44 -22 50 -30 19 -23 52 -146 52 -194 0 -58 27 -181 49
-223 10 -19 35 -65 55 -103 50 -90 46 -111 -17 -115 -63 -4 -167 20 -252 58
-87 39 -262 213 -270 270 -3 19 -15 85 -27 145 -17 93 -19 122 -10 192 6 51 6
99 0 130 -6 34 -5 59 3 86 36 110 -135 189 -227 105 -33 -31 -35 -38 -44 -123
-13 -124 -12 -307 1 -452 13 -130 8 -153 -32 -153 -24 0 -72 93 -100 197 -12
43 -27 90 -35 104 -7 14 -20 52 -28 85 -8 32 -26 100 -40 149 -72 257 -92 408
-87 664 3 122 6 149 23 177 26 44 19 69 -34 121 -53 51 -93 60 -163 35z m1691
-1385 c21 -19 66 -52 99 -74 41 -28 71 -59 95 -97 19 -31 53 -82 75 -114 63
-91 121 -236 111 -277 l-7 -26 -87 6 c-124 10 -158 21 -209 68 -98 89 -120
145 -92 227 12 33 3 85 -38 234 -25 95 -13 108 53 53z M13529 3045 c-29 -16 -59 -70 -59 -106 0 -12 -5 -38 -12 -56 -10 -28
-10 -42 4 -81 9 -26 20 -94 24 -152 6 -94 10 -114 45 -187 22 -46 39 -88 39
-94 0 -6 14 -45 31 -87 18 -47 28 -87 25 -102 -3 -14 -9 -48 -15 -77 -5 -29
-20 -65 -32 -82 l-22 -29 22 -35 c26 -42 26 -55 2 -84 -45 -53 -79 -20 -161
152 -70 150 -136 351 -171 523 -16 79 -33 152 -39 162 -5 10 -10 54 -10 97 0
69 -4 87 -34 149 -38 80 -44 84 -125 84 -79 0 -91 -14 -91 -111 0 -104 37
-433 56 -499 9 -30 24 -86 34 -125 32 -123 74 -236 147 -399 74 -165 272 -356
369 -356 91 0 230 198 222 319 -3 47 0 56 15 59 25 5 126 -50 204 -109 89 -68
184 -119 283 -151 113 -38 322 -47 410 -19 31 10 80 22 110 25 212 27 280 48
305 96 29 56 98 70 116 23 6 -16 24 -54 40 -86 16 -32 41 -86 55 -120 15 -34
34 -73 43 -87 10 -14 35 -70 56 -125 61 -158 93 -235 130 -306 19 -37 35 -74
35 -83 0 -8 25 -64 57 -123 31 -61 71 -156 89 -218 18 -60 43 -121 54 -135 55
-68 90 -127 90 -152 0 -47 20 -74 84 -111 72 -42 89 -44 134 -17 48 29 45 86
-8 184 -26 47 -40 85 -40 109 0 28 -8 46 -35 76 -19 21 -46 64 -60 96 -15 32
-38 76 -54 99 -15 23 -38 65 -50 95 -13 30 -34 71 -47 90 -13 20 -30 63 -37
96 -8 33 -31 101 -51 150 -88 213 -88 213 134 131 68 -26 154 -53 190 -61 247
-55 573 -79 670 -50 30 9 75 20 99 25 62 14 111 47 128 88 8 19 11 37 8 41 -4
3 -57 59 -118 124 -62 65 -134 135 -162 154 -27 20 -68 53 -90 74 -22 21 -79
56 -128 79 -48 22 -107 57 -130 79 -23 21 -69 55 -102 76 -33 21 -87 61 -120
89 -64 55 -210 156 -227 156 -5 0 -8 12 -6 27 3 29 -11 22 233 111 91 33 108
36 185 33 258 -11 320 -3 320 45 0 31 -23 53 -90 86 -160 77 -219 91 -345 85
-176 -9 -390 -79 -477 -156 -64 -56 -79 -102 -63 -193 8 -42 20 -89 29 -105
16 -30 95 -102 161 -144 22 -15 73 -54 114 -86 40 -33 96 -68 125 -78 66 -24
166 -81 225 -128 25 -21 85 -63 132 -95 138 -91 199 -143 199 -171 0 -24 0
-24 -82 -17 -46 4 -123 14 -173 22 -49 8 -128 21 -175 28 -91 14 -200 48 -292
90 -31 14 -63 26 -71 26 -8 0 -35 11 -61 25 -26 14 -55 25 -64 25 -26 0 -79
-36 -87 -59 -10 -33 -32 -24 -40 15 -14 76 -88 242 -130 294 -43 52 -85 157
-85 210 0 14 -13 50 -30 80 -16 30 -29 61 -30 68 0 17 55 15 70 -3 34 -41 130
-39 130 3 0 44 -156 236 -224 276 -34 20 -51 40 -72 81 -14 31 -31 58 -37 62
-29 18 -147 32 -267 32 -146 1 -195 -12 -250 -64 -23 -21 -46 -30 -133 -49
-15 -4 -62 -38 -103 -76 -41 -38 -95 -83 -119 -100 -35 -24 -47 -40 -55 -73
-6 -23 -17 -60 -25 -82 -18 -49 -20 -159 -3 -206 9 -27 77 -137 133 -215 21
-29 -10 -27 -73 6 -83 42 -222 181 -257 255 -12 28 -49 82 -80 120 -59 72 -64
82 -112 200 -26 66 -28 79 -28 215 l0 145 -53 80 c-29 44 -57 97 -63 117 -16
62 -72 85 -130 53z m1416 -629 c33 -21 80 -121 91 -191 4 -27 13 -64 20 -82
19 -45 17 -81 -6 -110 -11 -14 -20 -40 -20 -57 0 -50 -19 -67 -96 -83 -138
-28 -170 -28 -267 3 -84 27 -92 32 -127 79 -69 92 -93 188 -71 273 16 56 94
120 180 145 36 11 86 25 111 33 59 18 150 13 185 -10z M24613 2898 c-11 -13 -35 -52 -53 -87 l-33 -63 6 -212 c5 -152 12
-237 27 -306 11 -52 29 -147 40 -210 11 -63 36 -171 56 -240 47 -160 54 -210
26 -210 -22 0 -86 48 -187 141 -52 48 -85 71 -125 84 -30 10 -89 31 -130 48
-70 27 -81 29 -168 23 -110 -7 -117 -10 -206 -95 -112 -109 -142 -168 -177
-353 -9 -51 -13 -58 -34 -58 -31 0 -65 44 -65 86 0 53 -20 131 -52 201 -19 43
-32 94 -39 151 -12 111 -43 232 -75 294 -14 27 -28 73 -31 101 -3 29 -14 83
-24 122 -11 38 -19 80 -19 92 0 102 -83 226 -169 251 -113 34 -212 -102 -151
-208 54 -95 95 -200 149 -380 11 -36 38 -117 61 -180 23 -63 55 -182 72 -265
30 -150 44 -186 133 -344 14 -24 25 -59 25 -78 0 -43 30 -133 82 -242 22 -47
44 -96 49 -109 20 -50 167 -75 236 -39 48 25 70 21 163 -29 146 -78 198 -94
355 -104 150 -10 374 -5 494 12 67 9 79 8 120 -11 25 -11 74 -30 107 -41 34
-12 83 -39 109 -61 59 -48 75 -49 131 -2 l46 38 -6 55 c-8 69 -26 96 -69 104
-60 11 -64 24 -41 134 7 35 13 26 -125 156 -47 44 -68 91 -74 171 -3 48 -22
118 -57 220 -29 83 -61 195 -71 250 -10 55 -32 152 -49 215 -17 63 -39 158
-49 210 -11 52 -27 133 -37 180 -16 77 -20 144 -14 225 1 17 -1 58 -5 92 -5
40 -3 84 5 121 14 69 3 101 -50 146 -39 32 -80 34 -107 4z m-329 -1309 c73
-29 121 -55 158 -87 29 -25 83 -67 120 -95 83 -62 169 -186 257 -368 70 -144
73 -159 34 -159 -16 -1 -89 -7 -163 -14 -195 -18 -266 -9 -418 53 -191 79
-258 134 -326 268 -32 65 -36 159 -8 225 11 24 22 61 26 83 12 61 31 90 73
108 84 36 126 34 247 -14z M30612 2558 c-26 -7 -37 -18 -53 -56 -25 -57 -22 -92 15 -222 53
-187 69 -236 92 -287 13 -28 24 -56 24 -62 0 -6 11 -34 24 -63 13 -29 33 -80
46 -113 12 -33 33 -85 46 -115 12 -30 32 -89 43 -130 11 -41 25 -91 31 -110
22 -74 28 -180 20 -358 -8 -199 7 -308 49 -342 56 -47 55 -101 -4 -155 -51
-46 -83 -122 -65 -155 9 -17 89 -65 221 -133 62 -31 187 -39 296 -18 70 14
355 135 416 177 40 28 59 34 99 34 48 0 53 -3 116 -63 37 -35 79 -68 95 -75
26 -11 38 -42 16 -42 -33 0 -125 -36 -146 -56 -61 -61 11 -204 102 -204 64 0
87 33 94 136 8 112 10 113 150 45 261 -125 509 -132 961 -24 36 8 97 22 135
30 83 18 97 27 93 62 -6 52 -25 54 -414 43 -241 -7 -366 -7 -392 0 -226 62
-313 104 -474 232 -143 113 -145 111 130 112 282 2 437 27 582 97 54 26 120
75 120 89 0 5 9 21 20 35 42 54 17 147 -66 245 -41 50 -57 61 -118 82 -187 64
-366 86 -455 56 -31 -11 -90 -27 -131 -35 -41 -9 -99 -27 -129 -40 -61 -29
-91 -31 -129 -11 -46 24 -80 69 -97 130 -20 68 -60 117 -149 179 -159 113
-285 158 -446 160 l-98 2 -69 -47 c-39 -27 -76 -48 -84 -48 -38 0 -149 263
-149 353 0 15 -8 42 -17 60 -9 18 -31 87 -49 154 -17 67 -43 142 -58 167 -15
26 -26 60 -26 81 0 20 -7 60 -15 88 -9 29 -19 63 -23 76 -4 14 -17 27 -32 31
-51 14 -116 17 -148 8z m940 -1214 c80 -28 223 -165 272 -260 45 -90 40 -236
-13 -349 -32 -69 -82 -131 -113 -141 -12 -3 -39 -19 -60 -35 -22 -15 -54 -31
-71 -34 -18 -4 -68 -18 -113 -31 -81 -24 -149 -31 -158 -15 -3 4 -7 40 -10 78
-2 39 -11 103 -20 144 -29 134 -66 376 -66 433 0 95 28 142 115 188 89 48 148
53 237 22z m1228 -310 c38 -8 74 -22 80 -29 36 -43 -40 -108 -115 -98 -27 3
-61 -2 -103 -17 -60 -21 -73 -22 -243 -15 -147 6 -182 10 -186 23 -24 62 146
127 372 142 61 4 114 8 118 8 4 1 39 -5 77 -14z M18713 2490 c-186 -51 -293 -140 -293 -243 0 -86 219 -325 405 -442
148 -93 255 -168 269 -189 8 -13 64 -56 125 -97 116 -78 130 -97 84 -119 -45
-21 -237 -24 -308 -5 -33 8 -109 20 -170 26 -235 21 -323 45 -393 104 -17 14
-55 33 -84 41 -41 12 -64 27 -104 70 -48 51 -53 54 -100 54 -67 0 -86 -15 -91
-76 -4 -45 -1 -54 36 -104 22 -30 48 -65 56 -77 8 -12 36 -32 62 -43 26 -11
55 -28 65 -37 18 -16 25 -53 10 -53 -4 0 -25 -15 -45 -34 -91 -83 -14 -225
109 -201 80 14 130 106 89 161 -26 34 -18 44 31 44 29 0 59 -8 79 -20 49 -31
152 -58 245 -65 47 -4 136 -15 199 -26 122 -20 222 -24 286 -9 197 46 247 64
284 103 24 27 56 146 46 177 -9 28 -206 222 -279 275 -107 77 -236 174 -321
240 -42 33 -92 71 -111 84 -49 34 -177 190 -170 207 5 12 24 14 113 8 124 -7
167 -23 200 -75 48 -73 48 -74 93 -73 133 4 121 191 -19 280 -34 21 -92 59
-129 84 -82 54 -152 62 -269 30z M27250 2385 c-26 -32 -70 -131 -76 -173 -4 -25 -2 -75 4 -111 6 -36
16 -129 23 -206 12 -153 34 -237 78 -300 16 -22 36 -54 45 -72 9 -18 25 -37
36 -43 28 -15 96 5 111 32 14 26 4 131 -19 208 -13 44 -16 101 -17 275 0 218
0 221 -29 293 -21 56 -36 79 -60 93 -37 23 -79 25 -96 4z M44038 2078 c-55 -32 -59 -50 -65 -293 -5 -194 -3 -233 15 -330 11
-60 23 -146 26 -190 4 -44 11 -95 17 -113 6 -18 19 -70 29 -115 28 -128 66
-252 101 -327 26 -57 30 -72 19 -85 -16 -20 -103 -20 -204 0 -81 15 -142 10
-228 -21 -22 -7 -67 -18 -100 -23 -50 -9 -67 -17 -111 -57 -98 -89 -156 -109
-158 -56 -1 41 -9 55 -76 135 -78 93 -131 115 -374 156 -198 34 -344 27 -519
-25 -129 -39 -137 -43 -205 -105 -80 -72 -146 -87 -220 -50 -30 15 -76 24
-156 31 -63 6 -152 17 -199 25 -47 8 -116 17 -153 21 -40 4 -75 13 -86 23 -18
16 -104 228 -117 286 -3 17 -26 100 -50 186 -24 86 -48 188 -53 225 -11 84
-70 219 -100 229 -43 13 -122 -45 -135 -100 -4 -16 -14 -38 -23 -47 -8 -9 -12
-25 -9 -35 3 -10 10 -90 16 -178 14 -214 26 -294 61 -397 53 -157 44 -164
-205 -152 l-152 7 -31 -37 c-46 -56 -70 -48 -110 35 -63 131 -203 178 -382
129 -129 -36 -171 -69 -255 -202 -111 -173 -120 -296 -42 -561 l17 -57 115 0
c105 0 115 2 110 17 -3 10 -12 56 -20 103 -9 47 -20 108 -26 135 -21 99 24
208 103 250 l38 20 29 -35 c16 -20 35 -61 44 -95 23 -92 79 -242 120 -323 l37
-72 135 0 c74 0 134 2 134 3 0 2 -9 30 -20 63 -12 32 -29 93 -40 135 -22 87
-53 161 -74 178 -8 7 -23 35 -32 64 -17 50 -17 51 6 69 33 27 63 22 143 -21
89 -49 141 -62 289 -70 125 -7 158 -21 158 -65 0 -12 15 -44 33 -71 37 -56 48
-82 72 -170 9 -33 21 -72 27 -87 l10 -28 175 0 175 0 -5 32 c-3 18 -11 71 -17
118 -6 47 -18 111 -26 142 -20 80 -18 97 9 102 135 29 172 35 237 41 41 3 114
13 163 22 108 20 112 18 97 -67 -7 -40 -9 -108 -4 -191 l7 -130 40 -34 41 -35
170 0 c164 0 170 1 150 18 -34 27 -136 190 -132 209 5 26 129 21 205 -7 30
-11 83 -23 117 -26 33 -2 90 -9 126 -15 83 -14 326 3 390 26 81 30 110 48 131
82 14 22 28 33 44 33 29 0 32 -16 29 -155 -1 -60 0 -122 3 -138 l5 -27 124 0
124 0 2 43 c1 23 1 56 0 72 -3 55 7 76 45 91 20 9 58 40 85 69 60 66 96 79
197 72 89 -6 174 -32 272 -83 88 -46 123 -89 153 -184 l23 -75 143 -3 143 -3
-7 132 c-3 73 -10 149 -16 168 -5 20 -16 65 -25 101 -9 36 -25 92 -35 125 -11
33 -33 103 -49 155 -17 52 -41 129 -56 170 -14 41 -41 139 -60 217 -19 78 -44
166 -55 195 -22 56 -50 207 -70 373 -7 55 -14 103 -16 106 -2 3 -6 64 -9 135
-7 156 -6 155 -53 188 -48 33 -111 35 -164 4z m-1058 -1546 c223 -19 211 -106
-15 -103 -96 1 -141 6 -325 37 -47 8 -100 14 -117 14 -26 0 -33 4 -33 19 0 46
186 58 490 33z M25475 1945 c-19 -18 -25 -35 -25 -67 -1 -24 -7 -88 -15 -143 -9 -69
-11 -120 -5 -165 5 -36 14 -99 19 -140 27 -207 113 -525 154 -569 14 -14 35
-46 47 -71 12 -25 48 -78 79 -119 91 -121 142 -128 235 -33 60 61 99 130 144
252 38 104 48 103 147 -11 149 -170 339 -291 525 -334 131 -30 158 -31 255
-15 216 35 174 104 -97 159 -166 34 -228 61 -334 145 -87 69 -119 101 -152
151 -14 22 -34 49 -43 60 -9 11 -28 47 -42 81 -13 33 -35 71 -49 85 -23 23
-25 35 -32 154 -5 94 -13 142 -27 174 -22 51 -24 116 -4 151 20 34 18 64 -4
109 -25 47 -41 61 -88 72 -59 13 -93 -3 -131 -64 l-32 -52 6 -110 c3 -60 10
-123 15 -140 24 -80 8 -311 -22 -320 -11 -4 -23 -22 -29 -48 -6 -23 -15 -53
-20 -67 -4 -14 -11 -49 -15 -78 -8 -68 -21 -102 -39 -102 -20 0 -75 77 -87
125 -6 22 -26 67 -45 101 -38 68 -41 93 -17 130 20 31 9 87 -38 195 -31 73
-37 183 -17 322 13 86 -3 158 -39 187 -40 31 -145 28 -178 -5z M28478 1823 c-51 -55 -55 -71 -57 -193 0 -63 4 -161 11 -218 8 -75 8
-109 0 -127 -15 -33 -89 -54 -237 -66 -236 -18 -305 -51 -305 -142 0 -67 136
-92 395 -73 125 10 149 2 159 -51 15 -76 27 -292 26 -443 -1 -141 14 -286 35
-342 11 -28 60 -41 136 -36 106 8 110 15 122 181 l9 134 -34 69 -33 69 0 188
c0 123 4 192 11 198 6 5 177 8 380 8 324 0 526 8 617 27 61 13 26 125 -53 165
-58 30 -237 49 -511 53 -255 5 -424 16 -447 30 -13 8 -15 133 -4 221 13 95
-22 277 -60 315 -61 61 -122 74 -160 33z M36423 1541 c-41 -12 -112 -70 -131 -108 l-20 -38 34 -65 c21 -40 37
-86 40 -120 4 -30 18 -77 32 -103 38 -71 23 -82 -111 -83 -76 -1 -110 -5 -136
-18 -59 -31 -161 12 -161 69 0 58 -63 140 -139 179 -80 42 -191 -8 -191 -86 0
-22 14 -38 79 -87 93 -71 96 -76 75 -149 -25 -83 -5 -135 87 -235 68 -74 73
-82 110 -195 37 -115 79 -300 79 -353 0 -47 -24 -55 -76 -28 -58 30 -135 98
-154 135 -8 16 -42 67 -75 114 -84 116 -98 142 -130 240 -16 47 -46 123 -68
170 -22 46 -43 108 -46 137 -4 28 -13 58 -19 66 -7 8 -19 37 -27 66 -17 56
-33 68 -99 77 -57 8 -86 -9 -115 -69 -68 -141 74 -562 279 -821 40 -51 42
-107 5 -124 -63 -29 -233 0 -320 54 -26 16 -63 39 -83 51 -151 90 -251 243
-316 484 -57 207 -67 277 -55 366 6 43 9 107 7 143 -3 74 -7 77 -119 106 -104
27 -391 -1 -532 -52 -40 -14 -84 -29 -99 -34 -73 -23 -158 -81 -255 -175 -98
-95 -104 -103 -119 -162 -22 -89 -23 -143 -7 -266 20 -160 67 -249 207 -393
58 -60 107 -111 108 -114 2 -4 38 -30 80 -58 l77 -52 361 0 361 0 18 44 c11
24 27 46 36 50 27 10 89 -11 116 -40 52 -56 29 -54 679 -54 l600 0 11 28 c8
19 8 40 0 72 -6 25 -15 78 -21 118 -6 41 -15 82 -21 93 -6 11 -14 46 -20 77
-5 31 -25 99 -44 151 -42 112 -46 167 -12 180 124 50 214 62 241 35 35 -34 61
-111 70 -204 4 -39 16 -84 31 -113 13 -26 27 -71 31 -100 3 -29 16 -83 29
-122 12 -38 30 -103 40 -142 l18 -73 119 0 c110 0 120 1 113 18 -3 9 -13 42
-20 72 -8 30 -24 81 -35 113 -11 32 -27 100 -35 150 -7 51 -21 107 -30 124
-21 42 -55 211 -55 274 0 44 2 49 26 55 79 20 193 -28 241 -101 59 -91 117
-166 185 -242 45 -50 74 -92 88 -131 21 -54 94 -206 110 -227 4 -5 15 -31 25
-57 l18 -48 279 0 c306 0 297 -2 226 59 -20 18 -50 52 -66 76 -16 24 -44 56
-63 71 -19 15 -62 53 -96 83 -34 31 -89 77 -122 104 -69 54 -137 139 -151 188
-29 100 1 192 70 215 280 97 399 95 482 -6 38 -48 115 -266 174 -495 18 -67
31 -99 70 -165 15 -25 33 -64 41 -87 l15 -43 324 0 c178 0 324 4 324 9 0 4 -9
20 -20 34 -110 140 -175 654 -106 835 26 69 10 110 -60 156 -67 43 -110 47
-142 13 -12 -13 -22 -35 -22 -50 0 -14 -9 -52 -21 -83 -15 -39 -19 -68 -15
-94 4 -23 -2 -65 -14 -113 -17 -65 -18 -83 -9 -120 15 -53 -1 -327 -21 -370
-19 -39 -60 -34 -73 8 -5 17 -16 46 -25 65 -26 60 -62 162 -86 245 -44 151
-109 320 -134 350 -14 17 -37 57 -52 90 -41 91 -80 116 -219 139 -157 27 -292
5 -561 -90 -119 -42 -175 -46 -300 -18 -146 32 -166 35 -269 44 -63 5 -108 13
-116 22 -16 16 -58 164 -90 312 -28 131 -57 166 -122 147z m-2002 -507 c33
-29 65 -109 100 -244 22 -83 50 -161 85 -232 97 -194 118 -260 104 -321 -24
-103 -45 -112 -237 -103 -174 8 -231 29 -342 130 -198 179 -255 296 -233 475
13 111 30 144 90 181 26 16 59 38 73 49 14 11 57 29 95 40 38 10 87 26 109 35
51 20 128 15 156 -10z M39088 1138 c-62 -50 -95 -502 -43 -597 8 -14 26 -64 41 -111 34
-113 57 -167 115 -278 27 -51 49 -104 49 -117 l0 -25 166 0 c129 0 164 3 158
12 -4 7 -17 27 -29 43 -33 45 -52 88 -65 147 -6 29 -22 74 -36 101 -13 26 -24
57 -24 70 0 24 -14 79 -74 282 -28 96 -36 137 -36 206 0 47 -4 89 -8 95 -5 5
-19 37 -32 72 -29 79 -65 112 -124 112 -23 0 -49 -6 -58 -12z"/></g></svg>