<svg xmlns="http://www.w3.org/2000/svg" viewBox="0 0 6055 1782" role="img" aria-label="humans"><g transform="translate(0.000000,1782.000000) scale(0.100000,-0.100000)" fill="currentColor" stroke="none"><path d="M5644 17511 c-17 -4 -59 -22 -94 -39 -69 -35 -86 -38 -125 -20 -21 9
-35 8 -75 -6 -38 -14 -64 -16 -109 -11 -63 7 -93 -3 -157 -51 -17 -13 -40 -24
-51 -24 -10 0 -29 -14 -42 -31 -12 -16 -34 -35 -49 -41 -15 -7 -38 -22 -52
-33 -31 -27 -101 -55 -138 -55 -22 0 -50 -21 -128 -96 -54 -53 -130 -123 -169
-156 -151 -129 -206 -213 -190 -287 5 -25 1 -37 -19 -62 -14 -17 -26 -35 -26
-41 0 -6 -11 -25 -24 -43 -13 -17 -29 -51 -36 -76 -6 -24 -23 -79 -36 -121
-13 -43 -24 -89 -24 -104 0 -16 -16 -45 -42 -77 -57 -68 -68 -91 -68 -146 0
-25 -11 -77 -24 -116 -13 -38 -31 -106 -41 -150 -9 -44 -25 -111 -35 -150 -10
-38 -26 -108 -35 -155 -11 -53 -26 -97 -40 -116 -37 -49 -95 -205 -95 -256 0
-34 -9 -60 -39 -109 -21 -35 -41 -84 -45 -109 -5 -39 -35 -180 -66 -318 -6
-23 -10 -66 -10 -95 -1 -57 -19 -136 -36 -158 -20 -24 -26 -79 -30 -244 -4
-196 -17 -360 -33 -398 -6 -16 -11 -67 -11 -115 0 -82 -1 -87 -30 -117 -32
-33 -50 -111 -54 -236 0 -31 -8 -66 -17 -80 -27 -41 -33 -90 -39 -293 -1 -32
-15 -69 -62 -162 -31 -59 -31 -62 -19 -120 20 -101 1 -327 -33 -379 -18 -28
-26 -384 -9 -425 6 -14 14 -48 18 -77 7 -52 6 -52 -35 -92 -42 -40 -42 -40
-35 -103 16 -130 9 -248 -18 -277 -53 -59 -61 -81 -61 -183 -1 -87 -3 -99 -25
-122 -21 -22 -23 -32 -18 -78 4 -43 1 -58 -14 -76 -10 -13 -21 -40 -25 -60 -4
-20 -10 -42 -15 -47 -4 -6 -4 -96 1 -200 8 -190 8 -190 -21 -274 -34 -99 -36
-133 -10 -221 39 -140 31 -210 -32 -278 -19 -21 -22 -35 -23 -120 0 -54 -6
-126 -12 -162 -22 -124 -17 -481 10 -703 11 -92 10 -98 -9 -120 -11 -12 -26
-37 -33 -55 -7 -18 -22 -38 -34 -44 -93 -50 -139 -133 -111 -201 19 -47 21
-43 -20 -80 -25 -23 -37 -44 -42 -72 -3 -22 -12 -48 -20 -57 -29 -33 -41 -91
-36 -161 6 -63 4 -70 -19 -95 -37 -39 -88 -135 -88 -165 0 -14 -11 -38 -24
-54 -28 -33 -51 -78 -60 -116 -4 -16 -16 -31 -29 -36 -25 -10 -51 -84 -61
-173 -7 -60 -39 -106 -137 -196 -43 -41 -79 -80 -79 -87 0 -17 -63 -85 -79
-85 -6 0 -17 -16 -26 -36 -8 -20 -26 -49 -39 -64 -13 -16 -29 -51 -36 -79 -6
-27 -18 -55 -26 -62 -8 -6 -14 -18 -14 -27 0 -17 -64 -103 -109 -146 -17 -17
-31 -38 -31 -47 0 -10 -20 -39 -45 -65 -25 -25 -45 -55 -45 -66 0 -11 -11 -33
-25 -50 -14 -16 -25 -36 -25 -43 0 -8 -16 -30 -35 -49 -19 -20 -35 -43 -35
-52 0 -9 -9 -29 -21 -45 -15 -21 -19 -37 -14 -58 3 -17 2 -32 -5 -36 -5 -3
-17 -22 -25 -41 -8 -19 -28 -42 -46 -52 -71 -39 -109 -89 -109 -142 0 -10 -11
-32 -25 -48 -14 -17 -25 -38 -25 -47 0 -10 -24 -41 -53 -69 -29 -28 -61 -67
-71 -86 -9 -19 -33 -60 -51 -90 -49 -78 -75 -132 -75 -155 0 -11 -14 -33 -31
-48 -22 -19 -29 -32 -24 -47 5 -15 0 -22 -20 -30 -35 -13 -142 -96 -155 -120
-5 -10 -20 -20 -32 -22 -16 -2 -24 -11 -26 -28 -2 -14 -10 -32 -18 -41 -8 -9
-18 -33 -21 -53 -8 -49 -96 -129 -151 -136 -31 -4 -37 -9 -40 -32 -2 -18 -21
-43 -53 -72 -38 -34 -49 -51 -49 -74 0 -16 -7 -35 -15 -42 -8 -7 -15 -27 -15
-44 -1 -17 -7 -42 -15 -56 -18 -32 -19 -107 -1 -142 8 -14 19 -43 26 -65 7
-21 24 -55 38 -76 19 -29 26 -53 28 -98 5 -109 49 -179 174 -278 86 -69 120
-81 232 -81 96 0 96 0 139 41 23 22 69 53 103 68 104 49 208 129 289 226 127
150 395 410 452 437 101 48 245 181 288 264 9 18 43 56 75 85 41 38 73 80 107
143 33 60 58 94 80 107 41 24 112 112 120 149 3 16 17 36 31 44 13 9 24 25 24
35 0 11 15 29 36 42 43 26 81 18 101 -21 14 -28 17 -172 4 -235 -13 -71 19
-507 40 -547 15 -27 13 -150 -2 -195 -16 -50 -15 -149 4 -343 10 -96 16 -179
13 -185 -2 -6 1 -36 6 -66 7 -37 6 -82 -2 -144 -8 -69 -8 -102 1 -140 21 -86
17 -134 -15 -195 -29 -55 -29 -55 -22 -227 3 -94 11 -184 16 -199 7 -19 7 -30
-1 -40 -9 -11 -8 -22 1 -45 13 -29 12 -32 -18 -55 -63 -50 -81 -149 -39 -215
25 -38 33 -159 13 -197 -9 -17 -16 -42 -16 -55 0 -14 -7 -41 -15 -60 -21 -51
-19 -137 5 -197 32 -81 28 -104 -30 -157 -39 -36 -54 -59 -66 -99 -8 -30 -20
-56 -25 -59 -27 -17 -3 -104 47 -171 13 -17 24 -44 24 -61 0 -16 5 -44 11 -62
8 -23 8 -62 0 -147 -11 -111 -11 -119 10 -163 47 -102 56 -119 110 -201 31
-47 66 -101 78 -121 20 -35 96 -79 135 -79 8 0 55 -34 103 -77 136 -118 160
-126 383 -131 147 -3 197 -8 242 -23 116 -39 243 -16 298 52 18 23 73 71 124
109 108 81 141 114 191 197 37 62 37 62 40 205 3 114 8 155 25 203 11 33 27
89 36 125 8 36 33 98 54 138 33 61 42 89 50 164 6 50 19 106 30 128 11 21 28
71 39 111 11 41 27 92 37 114 13 31 15 58 11 119 -6 96 9 156 56 211 36 43 52
79 62 139 3 21 17 61 30 90 45 99 63 152 74 221 50 314 54 327 104 391 32 41
56 88 76 145 26 75 49 130 123 289 11 25 34 66 49 91 16 25 36 77 45 115 8 38
22 98 29 132 9 38 32 93 59 136 24 40 47 83 51 96 4 13 20 44 35 69 15 26 29
67 32 91 12 101 68 248 130 343 46 68 65 108 74 154 8 37 28 84 48 115 19 29
54 102 76 161 52 135 88 183 155 208 68 26 122 24 178 -5 25 -14 67 -28 93
-32 57 -8 111 -53 163 -136 20 -31 53 -70 74 -87 51 -40 82 -87 101 -155 14
-47 24 -61 58 -84 63 -42 95 -78 102 -117 5 -24 18 -44 43 -62 19 -16 68 -57
107 -92 39 -35 85 -72 103 -83 18 -11 35 -29 39 -40 3 -11 22 -26 41 -35 88
-36 172 -121 173 -174 0 -17 70 -128 91 -146 8 -6 47 -21 87 -33 83 -25 105
-47 128 -126 8 -29 22 -58 30 -65 8 -7 21 -24 29 -38 11 -22 25 -28 81 -39 59
-11 74 -19 107 -53 92 -96 175 -147 277 -174 35 -9 75 -25 89 -36 99 -75 130
-93 183 -105 85 -20 112 -37 158 -98 54 -75 183 -149 240 -140 33 5 50 0 122
-41 114 -64 213 -84 336 -66 53 7 107 8 172 1 243 -25 292 -24 560 10 41 6
154 15 250 20 226 14 289 23 353 53 28 14 81 31 117 37 89 16 435 200 526 279
41 36 96 75 186 132 25 16 58 45 73 64 14 19 49 50 78 68 100 64 243 222 296
326 12 22 33 48 47 58 82 57 128 113 185 224 12 24 48 74 80 111 32 38 70 91
84 118 16 31 41 61 68 79 67 47 74 56 82 102 4 24 25 79 46 122 31 61 39 89
39 131 0 50 3 56 40 90 89 81 184 24 231 -138 33 -114 37 -120 116 -203 42
-43 88 -96 103 -118 14 -22 48 -61 74 -88 59 -58 96 -126 107 -192 9 -54 52
-105 89 -105 29 0 88 -57 96 -93 6 -29 55 -144 88 -207 8 -14 32 -34 54 -45
40 -20 172 -155 172 -176 0 -6 33 -46 73 -89 39 -43 96 -106 125 -139 37 -42
73 -70 117 -92 35 -17 73 -42 86 -55 12 -13 27 -24 33 -24 6 0 27 -17 47 -38
82 -87 181 -143 303 -172 56 -13 100 -33 138 -65 14 -12 45 -25 68 -29 23 -3
63 -17 88 -30 148 -75 223 -97 332 -102 488 -18 474 -18 545 10 58 23 79 26
190 26 132 0 247 20 338 59 159 68 368 228 402 308 8 19 31 41 58 57 55 33 71
51 87 100 8 25 43 71 100 131 88 92 126 152 161 254 11 30 26 65 34 78 8 12
23 42 33 66 9 24 36 70 60 103 164 226 222 344 257 524 8 39 70 130 89 130 27
0 82 -87 113 -179 36 -107 53 -129 141 -179 35 -21 76 -45 90 -54 15 -10 36
-22 47 -27 36 -16 56 -47 64 -102 7 -45 15 -58 52 -90 24 -21 64 -56 89 -79
25 -22 62 -55 83 -72 23 -19 53 -60 74 -102 20 -39 54 -93 77 -120 83 -99 237
-252 277 -276 22 -14 73 -49 112 -78 40 -28 92 -59 117 -67 26 -9 71 -38 106
-69 33 -30 77 -61 99 -70 21 -9 60 -36 85 -60 63 -59 114 -75 173 -52 58 22
164 21 199 -2 15 -10 58 -49 96 -87 104 -107 181 -121 278 -55 67 46 91 47
171 4 25 -13 60 -24 77 -24 71 0 355 32 406 46 30 9 93 26 140 39 47 13 108
27 135 30 66 9 82 20 200 141 55 56 111 105 125 109 14 4 35 17 48 29 13 11
53 37 90 56 58 30 71 42 97 91 17 31 49 84 73 119 23 35 42 69 42 76 0 7 11
26 25 42 32 38 61 104 75 168 6 27 22 67 35 89 42 70 102 189 115 229 7 22 29
58 50 80 43 48 110 144 110 159 0 5 18 47 39 91 39 81 96 147 139 160 22 7
143 144 255 287 36 48 114 135 172 194 103 105 151 173 179 251 24 66 77 145
191 283 109 131 118 148 145 259 8 32 26 58 69 100 57 56 151 188 151 211 0
15 67 44 81 36 28 -18 40 -66 29 -118 -20 -90 -2 -232 38 -297 28 -44 27 -56
-1 -83 -33 -30 -38 -58 -27 -146 5 -42 16 -141 24 -221 14 -129 19 -152 51
-217 20 -40 40 -92 44 -116 5 -23 19 -80 31 -126 13 -47 20 -98 17 -116 -4
-23 2 -49 20 -86 20 -44 24 -64 19 -109 -8 -86 10 -256 33 -304 41 -85 71
-180 71 -223 0 -28 11 -67 29 -107 38 -79 48 -265 19 -326 -54 -114 -40 -259
34 -359 15 -19 18 -44 18 -135 1 -140 14 -177 80 -234 27 -24 50 -49 50 -56 0
-7 9 -21 20 -31 14 -13 20 -31 20 -62 0 -56 20 -95 63 -122 18 -11 54 -47 79
-80 44 -56 128 -111 170 -111 8 0 51 -13 96 -30 100 -36 107 -37 184 -4 53 22
75 26 147 24 225 -6 211 -10 303 81 46 45 114 107 153 138 102 82 128 136 120
254 -5 77 -3 96 19 156 15 42 27 103 31 157 4 49 13 114 21 145 7 30 17 120
20 200 7 147 9 157 82 364 6 17 26 77 44 135 31 100 36 108 101 175 76 77 92
102 103 160 3 22 18 62 33 89 61 114 69 133 76 166 13 69 54 138 98 167 30 20
50 45 72 90 28 58 91 122 121 123 18 0 52 43 70 90 10 25 29 63 44 85 49 74
97 151 119 191 20 36 42 68 131 188 20 27 69 71 115 102 54 36 90 69 109 101
24 36 42 52 92 74 34 16 65 33 68 38 9 14 93 51 116 51 11 0 24 -8 27 -17 4
-10 15 -29 25 -42 10 -13 18 -39 18 -58 0 -36 38 -121 64 -142 27 -22 45 -103
49 -226 5 -117 15 -164 41 -195 44 -53 62 -271 57 -705 -2 -203 15 -418 39
-465 33 -67 43 -148 31 -246 -24 -184 -24 -191 -6 -263 19 -70 19 -70 -8 -138
-35 -89 -34 -119 8 -209 19 -41 35 -78 35 -82 0 -5 16 -24 36 -43 40 -38 74
-97 74 -129 0 -56 40 -93 114 -105 45 -8 70 -22 148 -86 32 -26 72 -52 90 -57
18 -5 53 -16 78 -23 56 -17 224 -18 460 -2 174 13 174 13 228 50 32 22 60 50
68 68 17 41 29 51 84 65 61 16 77 33 85 88 4 26 21 85 37 132 26 71 31 101 32
181 1 79 4 101 19 117 30 33 46 92 47 172 1 136 35 228 132 357 31 41 41 65
49 120 7 46 23 91 50 140 21 40 52 112 68 160 15 48 40 106 55 127 14 21 26
44 26 51 0 37 115 235 284 491 11 16 53 79 93 141 43 65 107 146 156 195 92
92 127 145 151 228 12 43 27 67 71 110 31 30 63 68 72 84 22 41 90 112 132
138 20 11 86 69 147 127 216 205 246 230 329 280 28 16 88 62 135 102 94 80
139 104 217 114 51 7 54 6 102 -34 61 -51 69 -80 81 -271 12 -190 22 -255 43
-278 16 -18 49 -101 67 -170 4 -19 15 -41 23 -50 18 -21 34 -93 42 -192 7 -79
34 -147 80 -202 23 -27 25 -38 25 -121 0 -77 4 -101 25 -145 14 -30 25 -66 25
-80 0 -43 83 -202 139 -265 28 -32 51 -64 51 -70 0 -7 25 -46 56 -87 31 -41
71 -98 90 -127 18 -29 51 -63 73 -77 45 -29 73 -66 90 -118 21 -64 110 -179
230 -297 136 -133 162 -147 302 -161 195 -20 337 -53 399 -94 53 -35 91 -44
249 -61 163 -18 181 -16 272 32 43 22 91 38 135 44 196 27 274 50 350 101 39
27 83 66 98 88 20 31 38 43 88 61 37 14 86 43 122 74 33 27 91 66 130 85 69
34 147 111 211 208 11 17 43 58 70 91 94 113 133 166 167 226 19 33 46 78 61
100 14 22 33 60 42 85 10 28 40 69 84 115 71 73 76 83 101 205 8 40 24 73 64
125 29 38 71 108 93 155 32 68 49 91 83 115 23 16 67 62 96 102 30 40 104 122
164 182 61 60 110 114 110 120 0 7 28 43 63 80 87 96 130 149 165 205 17 26
44 58 61 70 35 26 58 55 85 108 27 54 154 193 248 273 46 39 91 87 101 107 17
34 41 58 116 116 20 15 36 40 46 74 17 58 117 187 249 322 44 45 95 99 111
119 40 46 78 56 113 30 49 -36 49 -45 4 -135 -43 -87 -52 -135 -34 -200 11
-42 1 -156 -18 -203 -8 -21 -11 -98 -9 -255 2 -201 0 -230 -17 -272 -19 -47
-19 -47 14 -81 42 -44 54 -119 50 -327 -2 -134 6 -217 33 -320 5 -20 25 -55
45 -79 39 -45 56 -99 58 -183 1 -53 7 -61 72 -97 54 -30 146 -150 164 -214 12
-41 69 -86 139 -108 20 -6 50 -24 66 -39 17 -15 82 -61 145 -103 110 -72 120
-76 210 -92 52 -9 125 -27 163 -40 75 -27 235 -50 275 -40 15 4 64 11 110 15
59 6 96 16 130 35 36 20 73 30 160 40 91 10 120 18 150 38 20 14 74 35 119 46
140 36 352 125 553 232 79 43 147 72 185 79 33 7 73 21 88 32 82 58 166 17
223 -109 56 -122 155 -262 215 -303 29 -19 61 -45 73 -58 91 -98 125 -122 173
-122 61 0 165 -46 203 -89 49 -56 137 -119 184 -132 21 -6 64 -25 95 -42 47
-27 65 -31 121 -31 96 1 381 21 412 29 15 4 66 2 112 -4 98 -13 124 -5 163 47
19 26 74 65 340 239 110 72 223 205 223 261 0 32 16 67 48 103 16 19 39 60 51
92 12 33 32 73 45 90 13 18 38 65 55 106 17 41 47 91 66 112 19 21 50 70 70
109 19 39 53 99 74 134 22 35 67 133 101 217 61 153 153 314 245 431 22 28 54
70 70 93 53 74 185 214 278 292 70 60 95 88 113 128 16 38 37 63 74 90 33 24
60 55 76 87 14 27 35 53 47 58 29 11 158 144 186 193 40 66 210 212 272 232
64 22 214 130 248 180 32 47 72 47 155 1 38 -20 81 -36 115 -39 65 -8 90 -23
128 -78 20 -31 40 -46 71 -57 25 -8 50 -25 59 -40 9 -15 40 -52 68 -82 53 -57
64 -79 85 -170 7 -29 23 -78 36 -107 27 -61 30 -100 10 -128 -26 -38 -30 -85
-8 -108 11 -12 26 -34 33 -49 20 -38 93 -147 125 -187 44 -53 65 -152 74 -351
7 -167 9 -178 39 -242 19 -42 31 -84 31 -110 0 -24 7 -68 15 -98 8 -30 17 -91
20 -135 7 -88 38 -245 62 -314 12 -33 14 -67 10 -140 -8 -144 14 -278 60 -376
27 -57 38 -95 39 -130 3 -120 23 -362 32 -385 5 -14 13 -52 17 -85 8 -71 12
-78 84 -174 47 -63 56 -82 62 -130 3 -31 12 -90 19 -131 6 -41 14 -89 16 -107
3 -18 23 -55 44 -82 22 -28 40 -55 40 -60 0 -11 67 -71 80 -71 18 0 170 -152
170 -170 0 -41 32 -60 117 -70 48 -5 113 -21 155 -38 55 -22 104 -32 200 -41
166 -17 215 -7 287 54 29 25 58 45 65 45 23 0 121 59 161 98 55 53 111 133
129 187 9 24 40 86 69 137 29 51 59 108 67 126 28 69 11 553 -22 630 -26 64
-23 97 16 151 41 57 50 90 36 141 -7 28 -7 51 1 82 6 24 14 70 18 103 6 60 6
60 41 57 19 -1 50 -12 68 -22 18 -11 41 -20 51 -20 26 0 58 -40 65 -83 8 -41
182 -229 251 -271 52 -32 86 -69 141 -153 69 -107 87 -118 189 -119 46 0 90
-6 105 -14 49 -26 90 -65 90 -86 0 -28 43 -66 123 -108 62 -33 76 -36 148 -36
88 0 218 -35 343 -93 68 -32 68 -32 377 -29 288 2 311 4 356 23 35 16 82 24
178 30 213 14 290 31 397 90 10 5 53 9 95 9 69 0 86 4 148 35 80 39 199 68
295 70 58 1 75 7 155 51 142 77 216 111 270 124 28 6 78 22 111 35 34 14 93
32 130 41 65 15 88 24 209 87 28 14 109 46 180 72 135 47 225 90 334 159 193
122 220 142 253 191 27 38 44 52 75 61 22 7 67 30 99 52 32 22 93 57 134 77
41 21 98 52 125 70 28 18 61 36 75 40 14 4 45 19 70 33 25 15 98 52 162 84 65
31 137 70 160 86 24 16 68 37 98 47 61 19 139 64 185 105 40 36 139 98 193
121 24 11 55 28 69 38 13 11 38 23 56 27 18 3 61 28 96 54 95 72 257 164 340
196 81 31 156 95 208 177 33 52 93 117 108 117 22 0 137 84 159 117 36 52 112
114 168 135 59 22 280 233 333 318 50 79 93 126 141 150 49 25 49 26 164 175
41 53 99 123 128 154 28 32 52 60 52 64 0 3 13 27 29 54 16 26 34 72 40 101 6
29 29 88 51 131 22 43 45 104 51 137 6 32 24 82 40 110 16 28 29 59 29 68 0
26 29 76 44 76 20 0 39 28 71 100 21 48 42 78 84 115 101 89 141 139 183 225
62 130 94 151 137 91 11 -15 34 -34 51 -41 38 -16 60 -56 60 -109 0 -22 4 -50
9 -63 16 -42 131 -186 182 -229 36 -31 54 -56 69 -98 12 -31 32 -74 44 -96 13
-22 29 -58 36 -80 16 -50 42 -95 86 -153 19 -25 34 -49 34 -53 0 -8 46 -80 96
-149 14 -19 61 -73 105 -119 43 -46 79 -88 79 -94 0 -5 13 -39 30 -74 16 -34
30 -67 30 -71 0 -29 78 -234 101 -267 41 -58 89 -152 105 -204 14 -48 33 -79
98 -156 28 -33 46 -68 62 -125 16 -56 39 -103 78 -160 35 -50 63 -105 76 -149
13 -45 37 -91 71 -137 78 -105 81 -115 77 -209 -3 -77 -6 -85 -43 -141 -41
-59 -41 -59 -115 -65 -68 -5 -82 -2 -140 23 -38 17 -113 37 -180 49 -78 13
-123 26 -140 39 -14 11 -38 27 -55 35 -74 36 -110 71 -141 136 -28 58 -39 70
-105 113 -74 47 -74 47 -144 43 -53 -4 -81 0 -118 14 -26 11 -61 19 -78 19
-32 0 -154 -44 -179 -65 -8 -7 -43 -17 -78 -23 -36 -6 -90 -26 -127 -47 -35
-19 -71 -35 -78 -35 -25 0 -106 -80 -141 -139 -42 -73 -59 -166 -59 -321 0
-204 16 -240 155 -351 33 -27 58 -84 58 -135 0 -60 75 -118 167 -131 41 -5 57
-15 108 -64 62 -59 106 -78 215 -94 130 -19 494 -163 585 -231 17 -12 61 -31
98 -43 37 -11 88 -33 114 -48 58 -33 169 -42 658 -49 283 -3 348 -2 391 11 29
8 87 18 129 22 57 4 85 12 108 29 54 39 109 67 177 89 36 12 92 35 125 52 33
16 93 43 133 59 100 40 230 138 287 216 45 61 126 220 167 323 10 28 28 69 38
92 11 24 20 50 20 59 0 8 10 38 21 65 22 50 22 50 -7 106 -25 50 -28 66 -26
141 2 91 -8 121 -60 180 -34 40 -89 146 -113 222 -10 30 -37 95 -62 145 -24
49 -51 119 -60 155 -15 61 -27 82 -140 249 -13 19 -23 40 -23 48 0 37 -36 87
-84 118 -66 42 -101 80 -122 130 -9 22 -37 71 -62 109 -35 53 -46 80 -50 120
-7 86 -97 258 -213 411 -14 19 -36 62 -49 97 -12 35 -44 92 -70 128 -26 36
-55 81 -64 101 -9 19 -36 52 -61 72 -54 46 -128 148 -145 202 -18 55 -44 92
-103 146 -47 43 -52 51 -58 105 -18 150 -63 259 -147 354 -21 25 -59 78 -83
118 -24 40 -57 94 -72 120 -16 26 -37 56 -48 67 -10 12 -28 50 -39 85 -13 41
-33 78 -54 100 -51 53 -140 197 -197 320 -68 146 -99 219 -99 232 0 8 -12 37
-26 64 -63 120 -75 149 -91 227 -11 58 -26 96 -50 130 -18 27 -38 68 -44 90
-7 23 -18 62 -26 87 -8 25 -19 88 -24 140 -8 77 -15 104 -38 141 -17 28 -32
69 -36 100 -3 30 -24 109 -46 176 -21 67 -39 132 -39 144 0 13 -11 59 -24 103
-17 59 -24 107 -24 178 -1 96 -29 234 -67 321 -24 59 -35 226 -18 305 14 71
14 71 -13 119 -15 26 -50 71 -78 99 -28 28 -82 85 -119 127 -121 135 -247 177
-445 147 -48 -7 -99 -19 -115 -27 -15 -7 -57 -18 -95 -23 -117 -17 -146 -26
-207 -69 -33 -23 -77 -53 -97 -66 -21 -14 -49 -46 -63 -73 -14 -26 -43 -68
-66 -94 -41 -47 -41 -47 -45 -184 -2 -75 3 -223 11 -328 8 -105 15 -232 15
-282 0 -52 6 -112 15 -140 8 -27 15 -65 15 -84 0 -70 -37 -236 -64 -289 -16
-30 -34 -71 -41 -90 -54 -145 -58 -154 -141 -279 -18 -27 -42 -89 -58 -147
-15 -55 -32 -110 -37 -123 -5 -13 -9 -31 -9 -41 0 -16 -33 -55 -97 -113 -29
-26 -37 -46 -78 -205 -7 -28 -22 -69 -33 -90 -35 -66 -54 -145 -61 -244 -7
-93 -9 -99 -47 -150 -52 -72 -94 -136 -94 -148 0 -5 -7 -14 -16 -22 -23 -19
-70 -118 -77 -162 -3 -22 -11 -44 -16 -51 -6 -7 -41 -74 -79 -148 -61 -120
-78 -145 -144 -210 -42 -40 -85 -92 -97 -115 -11 -23 -30 -47 -42 -53 -11 -7
-27 -28 -35 -48 -9 -20 -26 -46 -40 -58 -15 -13 -27 -36 -32 -64 -7 -41 -12
-47 -68 -80 -64 -37 -159 -117 -256 -215 -140 -142 -158 -161 -158 -172 0 -5
-13 -27 -30 -48 -17 -21 -30 -47 -30 -59 0 -28 -55 -93 -168 -202 -97 -92
-122 -110 -232 -167 -85 -44 -142 -80 -159 -101 -8 -10 -27 -24 -43 -32 -16
-8 -33 -26 -38 -39 -10 -27 -69 -67 -205 -142 -57 -31 -115 -74 -164 -121 -42
-41 -92 -82 -111 -92 -19 -10 -44 -28 -55 -40 -27 -31 -92 -60 -136 -60 -39 0
-152 -61 -204 -111 -17 -16 -46 -34 -65 -40 -54 -19 -140 -70 -140 -83 0 -17
-48 -59 -95 -82 -22 -10 -51 -26 -65 -35 -14 -8 -47 -23 -73 -33 -27 -10 -76
-42 -110 -71 -34 -29 -86 -64 -116 -79 -29 -15 -70 -40 -91 -55 -20 -15 -64
-35 -96 -45 -67 -21 -189 -80 -219 -106 -11 -10 -42 -25 -70 -35 -27 -9 -69
-32 -92 -51 -40 -33 -48 -35 -152 -44 -92 -8 -118 -15 -158 -38 -45 -27 -80
-41 -178 -72 -77 -25 -111 -31 -245 -40 -165 -12 -292 -25 -345 -37 -22 -6
-89 -6 -150 -3 -145 10 -212 0 -270 -40 -79 -54 -104 -61 -166 -45 -37 10 -60
23 -74 41 -11 15 -27 35 -35 46 -8 10 -46 27 -84 38 -42 12 -81 30 -98 47 -22
21 -42 28 -93 34 -55 5 -73 13 -117 46 -29 22 -64 46 -78 53 -14 7 -41 29 -61
49 -19 20 -60 60 -91 89 -40 37 -58 62 -62 88 -4 19 -22 52 -40 72 -63 72 -86
109 -110 182 -24 71 -63 136 -113 191 -14 15 -27 46 -32 75 -10 69 -56 148
-122 215 -74 74 -112 131 -134 203 -32 107 -191 298 -262 318 -41 11 -73 34
-73 53 0 36 -76 80 -155 89 -76 9 -122 24 -162 53 -87 63 -471 53 -545 -14
-11 -10 -39 -29 -63 -43 -72 -42 -213 -161 -219 -185 -3 -12 -17 -30 -31 -39
-14 -9 -25 -22 -25 -30 0 -7 -19 -35 -42 -61 -48 -54 -71 -124 -58 -178 12
-57 -3 -167 -26 -184 -38 -28 -58 -13 -65 47 -3 30 -13 72 -23 93 -9 21 -16
58 -15 85 1 26 -4 70 -11 97 -7 28 -12 70 -11 95 4 143 2 154 -28 180 -30 25
-31 30 -82 219 -11 41 -29 92 -40 114 -13 25 -24 76 -31 136 -20 203 -6 171
-144 317 -37 39 -43 52 -52 117 -16 102 -34 140 -105 212 -34 34 -82 96 -107
136 -55 90 -156 194 -196 203 -16 4 -58 29 -93 56 -35 27 -79 52 -97 56 -32 6
-101 71 -148 138 -30 44 -74 66 -136 66 -30 0 -71 5 -90 10 -235 61 -242 62
-329 57 -133 -9 -279 -24 -356 -37 -176 -29 -212 -40 -266 -81 -19 -14 -62
-36 -96 -48 -34 -13 -76 -34 -94 -47 -23 -17 -46 -24 -77 -24 -35 0 -48 -5
-65 -27 -12 -14 -36 -41 -53 -58 -17 -17 -37 -41 -43 -54 -7 -12 -31 -30 -54
-40 -23 -10 -48 -26 -56 -35 -7 -9 -21 -16 -30 -16 -25 0 -72 -53 -101 -113
-19 -40 -32 -54 -58 -63 -18 -5 -64 -40 -102 -76 -38 -37 -84 -74 -102 -84
-18 -9 -46 -29 -63 -44 -16 -15 -55 -37 -85 -49 -60 -25 -120 -75 -120 -101 0
-9 -31 -44 -69 -78 -38 -34 -84 -84 -102 -112 -18 -28 -46 -59 -63 -70 -17
-11 -54 -35 -83 -53 -51 -33 -163 -141 -163 -158 0 -10 -45 -34 -81 -43 -32
-7 -82 -80 -98 -142 -6 -23 -18 -48 -27 -55 -8 -7 -24 -29 -34 -48 -10 -20
-55 -72 -99 -116 -45 -44 -81 -84 -81 -89 0 -5 -16 -26 -35 -47 -19 -22 -35
-45 -35 -52 0 -6 -38 -51 -85 -99 -58 -61 -87 -99 -94 -125 -6 -21 -34 -83
-62 -138 -28 -55 -59 -123 -68 -150 -10 -28 -34 -74 -54 -102 -20 -29 -43 -69
-52 -90 -9 -21 -43 -65 -76 -99 -33 -33 -63 -73 -68 -90 -4 -17 -15 -30 -27
-32 -10 -2 -33 -17 -49 -33 -35 -33 -110 -59 -172 -59 -75 0 -123 77 -123 201
0 26 -6 64 -14 85 -7 22 -16 61 -20 87 -5 31 -22 69 -50 110 -51 75 -76 139
-76 192 0 22 -9 72 -20 110 -31 105 -20 304 20 390 41 86 47 151 21 210 -30
68 -27 106 18 193 61 121 102 213 118 267 8 28 26 65 40 84 36 47 40 104 14
182 -27 78 -23 91 47 152 51 46 54 47 118 47 79 0 111 19 150 88 15 26 46 76
69 112 47 71 95 210 95 272 0 21 -11 61 -25 88 -30 59 -31 70 -6 135 28 74 42
258 25 332 -7 31 -16 88 -20 126 -6 57 -12 75 -41 110 -18 23 -50 64 -71 91
-20 27 -74 86 -119 130 -45 45 -90 99 -100 121 -57 125 -125 180 -283 230 -30
9 -87 32 -126 51 -51 25 -93 37 -152 44 -60 7 -95 17 -129 37 -43 25 -61 29
-168 35 -66 3 -148 12 -182 19 -52 11 -72 10 -137 -4 -87 -19 -234 -22 -286
-6 -66 20 -277 23 -378 5 -50 -9 -114 -16 -140 -16 -50 0 -132 -23 -167 -47
-11 -7 -31 -13 -45 -13 -51 0 -176 -32 -195 -50 -11 -11 -38 -26 -60 -36 -22
-9 -54 -27 -72 -40 -25 -19 -44 -24 -93 -24 -89 0 -164 -49 -226 -146 -26 -40
-42 -55 -69 -63 -19 -5 -56 -24 -82 -42 -54 -36 -171 -79 -216 -79 -20 0 -38
-10 -60 -35 -17 -19 -36 -35 -42 -35 -6 0 -24 -13 -40 -29 -15 -17 -37 -31
-48 -33 -11 -2 -35 -23 -52 -48 -41 -59 -111 -106 -167 -112 -46 -5 -58 -12
-270 -156 -75 -51 -141 -88 -185 -103 -37 -12 -81 -30 -98 -41 -16 -10 -56
-23 -89 -29 -32 -7 -70 -21 -85 -33 -46 -37 -90 -66 -99 -66 -5 0 -26 -13 -47
-30 -21 -16 -45 -30 -54 -30 -21 -1 -119 -34 -156 -54 -16 -9 -36 -16 -42 -16
-7 0 -30 -15 -51 -34 -21 -19 -50 -38 -66 -42 -15 -4 -42 -21 -60 -38 -35 -35
-89 -70 -125 -81 -14 -4 -42 -20 -64 -36 -22 -16 -46 -29 -53 -29 -7 0 -22
-13 -34 -29 -11 -17 -31 -33 -43 -37 -52 -15 -190 -119 -253 -189 -37 -41 -73
-75 -79 -75 -22 0 -64 -56 -85 -114 -17 -44 -41 -77 -99 -138 -42 -44 -78 -85
-80 -91 -2 -7 -16 -25 -31 -42 -16 -16 -33 -49 -39 -72 -8 -27 -22 -49 -41
-63 -17 -12 -30 -28 -30 -36 0 -9 -18 -31 -39 -51 -22 -19 -49 -57 -60 -84
-12 -27 -26 -49 -31 -49 -5 0 -22 -19 -36 -43 -31 -49 -88 -116 -274 -321
-176 -194 -193 -215 -218 -254 -27 -45 -110 -146 -204 -247 -43 -46 -78 -88
-78 -93 0 -5 -25 -35 -56 -67 -31 -32 -71 -90 -91 -129 -23 -45 -60 -95 -102
-138 -39 -40 -70 -81 -76 -102 -9 -32 -95 -142 -175 -226 -56 -58 -160 -207
-160 -229 0 -10 -11 -32 -24 -48 -13 -15 -34 -49 -47 -75 -13 -26 -53 -79 -89
-118 -36 -39 -79 -96 -96 -128 -23 -42 -41 -62 -70 -77 -22 -11 -52 -32 -66
-48 -15 -15 -38 -27 -51 -27 -31 0 -51 -22 -36 -37 16 -16 1 -35 -22 -28 -11
4 -26 2 -34 -5 -7 -6 -60 -13 -117 -16 -123 -7 -176 6 -196 48 -7 16 -18 28
-24 28 -25 0 -182 115 -197 144 -9 17 -27 42 -41 56 -75 75 -100 131 -110 243
-7 78 -17 126 -38 179 -37 90 -65 282 -50 336 6 20 8 76 7 126 -4 84 -3 91 17
101 68 34 78 85 36 176 -64 141 -66 354 -2 428 58 68 63 88 69 311 5 219 5
258 -2 390 -8 137 -21 192 -65 257 -21 32 -52 79 -68 104 -16 26 -65 95 -109
153 -44 58 -89 121 -100 138 -50 82 -283 105 -397 40 -71 -41 -129 -43 -178
-7 -44 33 -85 32 -163 -4 -35 -15 -80 -31 -100 -35 -20 -4 -58 -16 -84 -28
-34 -15 -72 -22 -133 -23 -124 -4 -240 -55 -240 -106 0 -10 -17 -31 -37 -46
-21 -15 -56 -46 -78 -68 -22 -22 -93 -85 -158 -139 -115 -97 -138 -123 -150
-177 -4 -14 -30 -47 -59 -73 -29 -25 -69 -62 -88 -80 -78 -77 -155 -126 -196
-126 -26 0 -64 -28 -142 -102 -18 -18 -48 -39 -67 -47 -18 -9 -84 -64 -146
-123 -61 -60 -116 -108 -120 -108 -5 0 -34 -20 -65 -45 -30 -25 -64 -45 -76
-45 -11 0 -40 -17 -63 -37 -99 -88 -137 -115 -191 -139 -42 -19 -75 -44 -123
-97 -36 -40 -84 -90 -106 -112 -56 -54 -105 -120 -135 -180 -17 -34 -76 -101
-181 -206 -99 -99 -163 -172 -177 -201 -12 -25 -40 -59 -62 -77 -25 -20 -40
-40 -40 -54 -1 -60 -127 -227 -172 -227 -25 0 -39 34 -32 78 5 35 1 44 -50
112 -56 75 -56 75 -55 166 2 103 -2 113 -85 236 -57 84 -67 134 -43 215 19 64
14 86 -32 132 -26 26 -42 56 -55 101 -29 96 -50 133 -105 181 -51 45 -101 132
-101 178 0 62 -99 169 -205 221 -33 17 -92 58 -132 93 -115 98 -267 163 -395
167 -4 0 -28 -18 -53 -40 -25 -22 -50 -40 -55 -40 -5 0 -15 -2 -23 -5 -8 -4
-33 10 -56 30 -51 42 -100 46 -170 15 -24 -11 -51 -20 -60 -20 -24 0 -61 -29
-71 -56 -5 -13 -29 -33 -52 -45 -24 -12 -54 -30 -67 -40 -13 -11 -38 -19 -55
-19 -17 -1 -42 -7 -56 -15 -14 -8 -37 -14 -52 -15 -15 0 -29 -4 -32 -9 -3 -5
-31 -26 -62 -46 -72 -48 -133 -109 -166 -165 -16 -28 -42 -54 -67 -68 -23 -13
-41 -27 -41 -32 0 -5 -23 -23 -50 -41 -30 -19 -63 -53 -82 -83 -35 -54 -175
-194 -245 -245 -23 -17 -47 -39 -52 -50 -7 -12 -24 -21 -44 -23 -25 -2 -32 -7
-30 -23 4 -28 -175 -210 -264 -269 -57 -38 -66 -50 -72 -99 -5 -33 -11 -42
-31 -47 -21 -5 -26 -13 -28 -45 -2 -23 -12 -48 -25 -61 -12 -12 -47 -50 -77
-85 -30 -35 -71 -80 -90 -100 -19 -20 -43 -49 -53 -65 -9 -16 -28 -44 -42 -63
-15 -20 -25 -47 -25 -68 0 -61 -71 -56 -102 7 -10 19 -38 59 -62 88 -35 41
-46 64 -51 100 -6 50 -8 60 -25 137 -6 28 -15 75 -22 105 -6 30 -20 86 -31
124 -16 54 -18 84 -13 144 8 101 -9 192 -52 275 -28 56 -35 82 -39 145 -2 51
-10 90 -23 115 -11 21 -36 104 -56 185 -33 136 -40 153 -92 232 -37 56 -63
107 -74 148 -9 35 -23 71 -32 81 -9 10 -16 22 -16 27 0 5 -13 25 -29 44 -15
19 -34 53 -41 75 -17 53 -48 115 -58 115 -10 0 -112 90 -162 142 -69 71 -136
108 -197 108 -30 0 -81 7 -112 15 -41 10 -129 15 -326 17 -270 3 -270 3 -325
-24 -30 -15 -76 -34 -102 -43 -56 -19 -158 -100 -158 -125 0 -34 -39 -70 -76
-70 -65 0 -124 -55 -124 -114 0 -15 -24 -76 -41 -106 -5 -8 -23 -41 -39 -73
-18 -33 -44 -66 -61 -76 -17 -10 -38 -29 -46 -41 -9 -12 -30 -28 -48 -36 -25
-10 -34 -21 -39 -48 -4 -20 -17 -48 -30 -63 -16 -19 -26 -47 -31 -90 -4 -35
-15 -73 -25 -85 -9 -13 -27 -43 -40 -68 -12 -25 -41 -66 -64 -92 -22 -25 -56
-68 -74 -95 -18 -26 -47 -68 -65 -92 -17 -24 -43 -63 -57 -87 -112 -196 -148
-254 -180 -289 -21 -22 -45 -56 -55 -75 -10 -19 -44 -63 -76 -97 -55 -57 -59
-65 -59 -108 0 -40 -5 -51 -32 -76 -89 -79 -148 -145 -199 -216 -18 -27 -37
-43 -50 -43 -28 0 -104 -64 -119 -100 -8 -19 -10 -49 -6 -80 5 -38 3 -52 -7
-56 -7 -2 -30 -26 -50 -53 -26 -34 -48 -51 -76 -60 -27 -8 -46 -22 -61 -46
-11 -19 -30 -37 -41 -40 -26 -9 -81 -97 -102 -166 -10 -31 -24 -62 -32 -69 -8
-7 -15 -18 -15 -24 0 -15 -102 -116 -117 -116 -6 0 -46 -40 -87 -89 -70 -82
-82 -91 -153 -121 -76 -32 -115 -60 -232 -167 -46 -43 -70 -56 -123 -70 -85
-22 -116 -10 -162 61 -42 65 -154 134 -281 172 -95 28 -125 51 -213 162 -18
23 -59 60 -90 81 -67 45 -355 328 -394 386 -15 22 -48 57 -72 78 -34 28 -47
47 -51 75 -13 76 -68 147 -169 215 -39 26 -54 55 -81 148 -13 46 -44 143 -70
214 -59 164 -64 234 -22 284 44 53 38 103 -21 177 -26 33 -60 87 -75 121 -27
61 -27 62 -15 157 11 85 10 104 -5 160 -9 35 -17 77 -17 94 0 39 -46 225 -70
282 -22 51 -40 151 -40 225 -1 82 -28 128 -94 158 -31 14 -56 31 -56 37 0 6
-12 16 -27 22 -16 6 -48 31 -73 54 -114 109 -141 117 -377 117 -181 0 -215 -2
-237 -16 -36 -24 -157 -39 -247 -32 -98 9 -129 -5 -153 -70 -15 -38 -26 -49
-64 -68 -95 -45 -111 -122 -114 -532 -1 -188 2 -239 15 -280 22 -65 22 -134 0
-164 -9 -13 -20 -56 -25 -95 -5 -39 -11 -91 -14 -116 -4 -25 -13 -52 -21 -62
-8 -9 -18 -52 -23 -100 -19 -179 -54 -313 -95 -358 -13 -14 -36 -114 -59 -251
-4 -20 -22 -68 -41 -106 -19 -39 -40 -95 -46 -124 -16 -83 -47 -159 -85 -214
-39 -57 -54 -102 -54 -161 0 -32 -6 -46 -29 -68 -17 -16 -42 -58 -57 -95 -14
-36 -34 -82 -44 -101 -10 -19 -20 -47 -23 -61 -4 -14 -30 -57 -59 -95 -44 -58
-53 -76 -53 -111 0 -32 -7 -49 -28 -71 -15 -15 -27 -32 -27 -36 0 -17 -126
-137 -157 -151 -31 -13 -63 -59 -63 -89 0 -15 -69 -66 -89 -66 -6 0 -30 -13
-54 -30 -25 -16 -56 -30 -69 -30 -13 0 -44 -11 -70 -25 -64 -34 -65 -34 -186
39 -82 49 -119 65 -160 70 -30 4 -70 16 -90 26 -20 11 -40 20 -45 20 -4 0 -47
33 -94 73 -47 39 -131 104 -187 143 -62 43 -107 82 -116 101 -8 16 -40 59 -71
94 -31 35 -64 80 -74 99 -10 19 -32 55 -49 80 -51 71 -93 151 -109 205 -24 80
-51 126 -110 188 -61 63 -70 85 -86 194 -6 40 -22 97 -36 125 -30 66 -100 235
-110 268 -4 14 -25 52 -46 86 -39 61 -53 135 -30 159 18 20 71 241 71 296 0
19 -7 56 -15 83 -8 27 -15 66 -15 86 0 23 -13 62 -36 104 -52 99 -65 175 -54
317 4 63 16 142 25 174 22 74 15 127 -23 174 -45 56 -92 150 -92 185 -1 43
-15 69 -97 178 -46 60 -73 105 -73 121 0 14 -17 45 -40 73 -22 27 -40 52 -40
56 0 4 -25 22 -55 39 -31 17 -62 44 -70 59 -38 73 -101 94 -200 68 -41 -11
-47 -10 -76 11 -32 24 -50 27 -259 47 -46 4 -84 1 -128 -10 -46 -12 -82 -15
-131 -10 -83 8 -161 -7 -204 -40 -18 -13 -43 -27 -56 -31 -59 -18 -116 -70
-119 -108 -3 -36 -30 -67 -58 -67 -40 0 -121 -73 -153 -137 -35 -67 -35 -67
-16 -133 32 -113 22 -162 -46 -237 -39 -43 -39 -43 -39 -148 0 -91 -3 -114
-24 -158 -24 -52 -45 -235 -38 -327 2 -26 -9 -60 -42 -125 -25 -50 -46 -97
-46 -105 0 -8 -17 -47 -38 -85 -21 -39 -42 -90 -46 -114 -3 -24 -22 -73 -41
-109 -29 -54 -35 -76 -35 -127 0 -50 -5 -67 -25 -95 -14 -19 -23 -41 -20 -48
3 -8 -12 -34 -32 -58 -58 -65 -83 -101 -83 -116 0 -7 -14 -29 -30 -48 -16 -19
-30 -42 -30 -50 0 -8 -9 -28 -19 -44 -12 -18 -18 -40 -15 -55 10 -49 -95 -191
-182 -247 -61 -39 -66 -51 -58 -115 7 -51 -5 -79 -33 -79 -27 0 -123 -92 -123
-118 0 -18 -21 -45 -71 -93 -62 -61 -70 -72 -65 -96 8 -35 -75 -113 -119 -113
-14 0 -71 -28 -128 -64 -56 -35 -118 -67 -137 -71 -23 -5 -47 -21 -68 -46 -25
-29 -48 -43 -89 -55 -31 -9 -70 -24 -87 -34 -48 -28 -145 -49 -202 -43 -37 4
-74 -1 -128 -17 -65 -20 -82 -21 -115 -12 -21 7 -57 12 -80 12 -111 0 -254 50
-316 111 -108 107 -101 103 -173 107 -53 3 -75 -1 -106 -17 -36 -19 -42 -19
-63 -6 -47 31 -94 79 -107 109 -23 55 -96 123 -146 136 -74 20 -116 47 -167
107 -26 32 -75 87 -109 123 -34 36 -73 86 -88 112 -15 26 -42 56 -59 67 -51
32 -94 82 -120 141 -25 56 -53 88 -97 110 -50 26 -121 95 -139 134 -10 23 -39
72 -65 111 -26 38 -51 88 -57 110 -24 95 -94 190 -335 453 -66 72 -93 121 -94
172 0 51 -31 96 -77 110 -58 19 -106 55 -156 120 -33 41 -54 60 -77 65 -78 17
-232 113 -257 160 -21 38 -92 83 -192 121 -53 21 -103 43 -112 51 -10 8 -40
20 -68 28 -28 7 -71 25 -95 39 -57 33 -195 37 -261 8 -28 -13 -69 -19 -133
-21 -111 -2 -139 -13 -239 -93 -40 -32 -79 -58 -87 -58 -7 0 -31 -12 -52 -26
-21 -15 -51 -31 -65 -36 -42 -14 -122 -127 -190 -264 -57 -118 -63 -136 -67
-207 -4 -72 -6 -79 -33 -98 -16 -11 -29 -28 -29 -38 0 -9 -18 -35 -41 -56 -22
-22 -68 -80 -101 -130 -33 -49 -77 -108 -98 -130 -21 -22 -43 -58 -50 -80 -7
-22 -25 -54 -40 -71 -20 -23 -29 -48 -35 -90 -7 -57 -25 -93 -71 -144 -13 -14
-30 -52 -38 -85 -7 -33 -26 -87 -41 -120 -22 -49 -26 -69 -21 -106 8 -57 -43
-164 -101 -214 -37 -32 -41 -44 -62 -207 -8 -58 -14 -73 -52 -117 -57 -66 -74
-56 -64 39 7 67 9 159 4 290 -1 41 -1 111 0 155 2 46 -2 93 -9 110 -7 17 -15
84 -17 150 -5 114 -1 148 28 292 11 56 10 67 -10 127 -24 71 -21 120 9 166 9
14 25 39 37 55 42 62 71 274 60 432 -4 49 -2 115 4 150 9 50 8 72 -5 116 -20
70 -21 175 -1 201 8 11 15 28 15 37 0 10 18 39 40 64 40 46 40 47 40 128 0 45
7 107 15 137 8 31 15 99 15 155 0 156 47 288 136 384 28 31 64 81 79 111 15
30 38 71 50 90 12 19 26 46 30 60 4 14 28 55 52 92 32 48 49 87 59 135 19 89
57 167 110 226 23 26 53 71 66 100 13 28 32 68 43 88 11 20 44 81 74 135 30
55 67 115 83 135 31 41 95 175 122 257 10 29 24 56 32 59 34 13 128 237 201
478 8 28 28 69 43 93 19 28 32 68 40 115 7 40 22 102 35 138 13 36 26 88 30
115 4 27 24 81 45 119 29 52 43 95 55 165 14 79 24 106 62 167 24 40 50 94 57
121 16 58 28 81 72 138 33 44 47 82 80 219 35 146 76 284 114 387 28 75 43
134 49 196 5 49 17 106 25 127 9 21 25 74 36 118 11 44 31 99 45 122 45 77
106 229 126 314 11 46 33 115 50 153 17 39 33 86 36 106 3 21 28 80 55 133 51
101 68 167 87 339 5 47 16 130 25 185 8 55 20 150 26 210 12 131 60 368 83
410 9 17 36 54 61 84 53 64 56 76 56 261 0 139 4 188 29 311 10 47 9 65 -4
100 -19 57 -19 127 1 196 13 46 15 81 9 207 -14 273 -11 538 7 587 9 24 19 64
22 89 3 25 8 63 12 85 5 35 1 47 -30 94 -33 49 -36 58 -36 130 0 102 -21 194
-63 277 -19 38 -40 94 -47 124 -19 83 -54 145 -100 177 -25 17 -53 51 -73 88
-26 49 -82 118 -181 225 -121 131 -248 220 -314 220 -26 0 -68 16 -199 76 -17
8 -53 14 -81 14 -27 0 -89 11 -136 25 -47 14 -87 25 -89 24 -1 -1 -16 -4 -33
-8z m-123 -1891 c46 -24 59 -51 59 -125 0 -57 27 -138 61 -186 45 -64 18 -268
-45 -331 -26 -26 -30 -39 -37 -117 -4 -48 -13 -99 -18 -115 -18 -46 -4 -171
24 -216 3 -5 -5 -32 -19 -60 -25 -50 -28 -72 -26 -246 0 -33 -5 -83 -10 -110
-6 -27 -14 -115 -19 -196 -6 -129 -10 -152 -29 -178 -13 -17 -22 -45 -23 -67
-2 -82 -22 -148 -46 -151 -14 -2 -23 -10 -23 -21 0 -9 -4 -21 -9 -27 -10 -10
-35 -98 -45 -155 -4 -21 -13 -42 -21 -49 -11 -9 -15 -34 -16 -89 0 -53 -5 -84
-17 -102 -9 -14 -27 -41 -40 -60 -17 -25 -22 -44 -18 -72 5 -41 -2 -67 -45
-171 -16 -38 -29 -84 -29 -103 0 -18 -9 -51 -20 -73 -11 -22 -20 -49 -20 -60
0 -11 -18 -38 -40 -60 -22 -22 -40 -48 -40 -59 0 -11 -9 -44 -21 -73 -16 -42
-19 -64 -13 -115 5 -49 3 -68 -8 -81 -50 -57 -70 -113 -72 -195 -2 -89 -31
-172 -64 -184 -9 -3 -25 -13 -34 -21 -16 -13 -21 -11 -57 19 -21 19 -51 42
-65 52 -40 28 -31 51 39 92 15 9 15 15 -4 85 -15 52 -21 105 -21 175 0 78 -5
110 -20 143 -23 50 -20 95 11 175 17 43 19 78 18 355 -1 190 3 318 9 337 6 17
18 50 28 75 12 32 18 89 21 195 5 158 20 236 83 433 17 51 30 111 30 135 0 23
7 73 15 112 8 38 15 117 16 175 0 58 4 128 10 155 5 28 12 68 16 90 3 21 24
84 45 140 22 55 49 129 60 165 11 36 37 99 58 140 40 80 47 102 60 193 6 36
20 76 39 105 16 26 38 74 48 107 15 51 30 72 98 141 103 104 116 109 186 74z
m-719 -3965 c-6 -14 -16 -25 -22 -25 -18 0 -23 30 -11 57 11 24 13 25 28 10
14 -13 14 -21 5 -42z m34826 -3102 c12 -49 11 -56 -12 -101 -13 -26 -31 -54
-39 -61 -8 -6 -28 -49 -43 -94 -34 -101 -36 -175 -6 -233 18 -35 22 -62 24
-165 2 -131 -15 -429 -26 -448 -4 -6 -2 -30 5 -53 6 -24 12 -112 13 -197 1
-154 1 -154 -37 -186 -41 -35 -57 -76 -57 -142 0 -23 -4 -45 -10 -48 -5 -3
-10 -33 -10 -65 0 -37 -7 -75 -19 -102 -11 -24 -22 -51 -25 -61 -3 -9 -21 -27
-40 -38 -50 -29 -76 -76 -76 -136 0 -62 -45 -121 -113 -147 -43 -16 -77 -51
-107 -111 -19 -39 -50 -52 -146 -66 -84 -11 -103 -20 -168 -78 -49 -44 -140
-76 -189 -68 -31 5 -76 30 -165 93 -19 13 -23 23 -19 47 2 17 0 47 -5 66 -4
20 -13 88 -18 151 -6 63 -15 130 -21 148 -27 83 -3 230 52 305 31 43 31 68 -2
146 -20 45 -26 140 -10 157 9 10 41 130 41 156 0 8 12 42 26 74 14 33 32 82
39 109 8 28 25 74 40 103 16 32 29 81 35 129 10 85 31 145 81 237 25 45 34 77
40 144 11 104 36 145 102 163 23 6 64 23 92 37 32 16 75 28 119 33 68 6 68 6
160 100 128 131 162 153 246 157 64 4 69 6 121 53 76 68 109 66 127 -8z"/></g></svg>