<svg xmlns="http://www.w3.org/2000/svg" viewBox="0 0 3440 1778" role="img" aria-label="solve"><g transform="translate(0.000000,1778.000000) scale(0.100000,-0.100000)" fill="currentColor" stroke="none"><path d="M16135 17465 c-27 -8 -78 -14 -112 -15 -52 0 -75 -7 -150 -44 -48
-24 -119 -56 -158 -71 -57 -22 -83 -40 -140 -99 -83 -84 -175 -167 -240 -216
-25 -19 -53 -48 -61 -64 -9 -15 -40 -53 -70 -84 -31 -30 -62 -69 -71 -86 -9
-17 -29 -46 -44 -64 -16 -18 -29 -40 -29 -50 0 -9 -7 -30 -15 -46 -8 -15 -15
-37 -15 -48 0 -10 -11 -36 -25 -56 -14 -20 -25 -41 -25 -47 0 -6 -18 -29 -40
-50 -22 -21 -40 -44 -40 -51 0 -6 -6 -17 -14 -23 -8 -6 -19 -33 -26 -59 -14
-59 -59 -138 -99 -176 -17 -17 -31 -35 -31 -41 0 -6 -15 -26 -34 -44 -20 -20
-38 -50 -45 -75 -5 -23 -22 -53 -36 -66 -14 -13 -25 -28 -25 -34 0 -14 -60
-168 -70 -181 -4 -5 -15 -32 -23 -60 -9 -27 -23 -70 -32 -95 -12 -31 -15 -63
-12 -104 5 -58 5 -58 -54 -129 -32 -38 -64 -87 -69 -107 -6 -21 -17 -43 -26
-50 -20 -18 -54 -93 -54 -123 0 -13 -9 -36 -20 -50 -13 -16 -26 -60 -36 -119
-9 -51 -25 -108 -36 -126 -12 -19 -24 -64 -29 -110 -5 -42 -15 -102 -23 -132
-8 -30 -17 -90 -21 -133 -5 -62 -11 -80 -26 -90 -22 -13 -79 -106 -79 -127 0
-8 14 -42 31 -77 26 -54 29 -67 20 -95 -6 -18 -17 -75 -26 -127 -9 -52 -23
-108 -32 -125 -13 -25 -17 -69 -18 -231 0 -112 -7 -231 -14 -270 -36 -196 -72
-375 -86 -420 -26 -83 -49 -246 -45 -320 2 -38 4 -90 4 -115 -1 -73 -35 -314
-47 -328 -7 -8 -10 -53 -9 -114 1 -73 -4 -119 -17 -167 -33 -113 -44 -205 -38
-293 6 -83 6 -83 -30 -136 -34 -50 -36 -58 -37 -134 -1 -77 -2 -81 -32 -107
-43 -36 -48 -67 -24 -143 24 -77 25 -101 3 -134 -12 -19 -17 -55 -20 -142 -8
-286 -19 -384 -47 -450 -23 -54 -28 -82 -33 -190 -4 -108 -9 -135 -30 -181
-26 -55 -28 -155 -3 -202 21 -38 12 -121 -16 -150 -15 -15 -32 -38 -38 -51 -6
-13 -26 -30 -44 -38 -34 -16 -87 -80 -134 -160 -29 -51 -88 -97 -169 -133 -30
-13 -85 -52 -124 -87 -89 -79 -99 -85 -170 -110 -78 -27 -155 -77 -155 -101 0
-42 -32 -97 -76 -128 -24 -18 -49 -41 -54 -51 -6 -11 -38 -38 -73 -61 -34 -23
-78 -55 -97 -71 -110 -91 -134 -110 -173 -136 -23 -16 -76 -40 -117 -53 -41
-13 -87 -33 -102 -45 -15 -12 -47 -25 -70 -29 -80 -12 -107 -26 -152 -77 -49
-56 -53 -57 -231 -83 -55 -8 -170 -27 -256 -41 -133 -22 -164 -24 -215 -15
-48 9 -71 8 -117 -4 -116 -30 -210 -16 -289 43 -64 49 -124 70 -226 79 -56 5
-83 12 -115 34 -24 15 -63 32 -87 38 -25 5 -79 25 -120 44 -41 19 -106 44
-143 57 -37 12 -80 32 -95 44 -42 34 -80 56 -97 56 -9 0 -26 7 -38 15 -12 8
-77 23 -145 34 -67 11 -130 25 -141 31 -30 16 -54 12 -127 -19 -41 -17 -71
-37 -75 -49 -13 -35 -48 -37 -204 -11 -49 8 -68 7 -105 -6 -25 -9 -76 -20
-113 -25 -49 -6 -77 -16 -102 -35 -40 -30 -124 -63 -256 -101 -52 -14 -117
-39 -144 -55 -28 -15 -86 -35 -130 -44 -44 -9 -102 -27 -130 -40 -27 -13 -88
-36 -134 -51 -54 -17 -97 -38 -120 -59 -20 -18 -46 -35 -58 -39 -12 -4 -55
-24 -95 -44 -72 -37 -73 -38 -114 -120 -60 -120 -194 -273 -316 -363 -38 -27
-68 -53 -68 -58 0 -5 -24 -38 -54 -73 -66 -78 -96 -136 -96 -186 0 -32 -8 -47
-51 -95 -28 -31 -57 -57 -64 -57 -8 0 -30 -13 -48 -30 -19 -16 -52 -38 -74
-47 -35 -16 -143 -117 -143 -134 0 -9 -127 -74 -161 -82 -14 -4 -40 -25 -58
-47 -31 -39 -156 -140 -172 -140 -5 0 -33 -15 -62 -34 -29 -19 -69 -41 -89
-49 -21 -9 -43 -25 -50 -37 -11 -19 -80 -75 -127 -105 -98 -62 -140 -94 -198
-150 -75 -73 -127 -105 -223 -140 -57 -20 -99 -42 -206 -107 -113 -69 -142
-89 -164 -116 -34 -39 -148 -122 -169 -122 -19 0 -36 -13 -180 -129 -50 -41
-91 -77 -91 -81 0 -17 -95 -80 -120 -80 -44 0 -98 -27 -112 -57 -37 -75 -315
-58 -428 27 -98 74 -225 201 -336 337 -41 50 -97 108 -124 128 -26 19 -57 50
-68 69 -11 18 -39 48 -62 67 -53 41 -97 86 -171 170 -32 35 -81 91 -111 124
-29 33 -74 87 -100 120 -26 33 -82 89 -124 125 -43 36 -93 83 -113 105 -97
109 -139 143 -202 166 -78 29 -245 186 -299 282 -29 52 -40 62 -109 97 -132
67 -149 96 -160 280 -8 132 -27 183 -117 309 -27 38 -29 61 -13 127 9 33 8 68
0 137 -6 50 -12 142 -13 204 -1 127 -4 122 94 228 56 61 198 312 198 349 0 36
218 267 315 334 27 19 64 47 80 61 45 41 76 58 138 76 30 9 75 31 99 49 63 47
144 90 218 115 36 12 111 49 168 82 97 57 135 72 390 150 34 10 81 31 104 46
29 20 60 30 107 35 118 12 192 26 214 40 46 30 129 39 287 34 183 -5 156 0
186 -33 35 -38 109 -43 199 -13 57 19 78 21 129 14 112 -15 458 9 536 37 110
40 179 101 228 204 40 82 41 86 31 144 -11 72 -3 98 45 135 20 15 36 35 36 45
0 9 8 35 19 57 53 111 35 174 -61 216 -36 15 -69 45 -138 124 -50 57 -101 110
-113 118 -43 28 -240 79 -332 86 -91 6 -165 34 -285 108 -19 12 -42 22 -50 22
-25 0 -121 -49 -156 -79 -21 -19 -54 -34 -91 -42 -32 -7 -76 -22 -98 -33 -34
-18 -55 -20 -147 -18 -74 1 -119 -2 -145 -12 -21 -8 -69 -26 -107 -41 -145
-56 -211 -69 -355 -67 -133 2 -134 2 -211 -33 -43 -19 -81 -35 -85 -35 -4 0
-71 -32 -149 -71 -156 -77 -269 -113 -421 -133 -96 -13 -173 -36 -205 -62 -8
-6 -41 -19 -73 -28 -32 -9 -93 -32 -137 -51 -43 -19 -87 -35 -98 -35 -40 0
-168 -61 -207 -100 -25 -24 -65 -48 -110 -65 -38 -14 -76 -32 -85 -39 -8 -8
-40 -26 -70 -41 -30 -15 -80 -49 -110 -75 -61 -53 -103 -80 -170 -111 -151
-68 -214 -132 -274 -282 -9 -22 -29 -45 -50 -58 -35 -20 -166 -162 -166 -179
0 -21 -64 -112 -84 -120 -14 -5 -28 -27 -40 -61 -20 -59 -52 -99 -106 -132
-94 -57 -120 -88 -120 -141 0 -36 -8 -63 -30 -103 -24 -42 -30 -65 -30 -115
-1 -35 -5 -83 -11 -108 -5 -25 -12 -61 -16 -80 -4 -23 -19 -46 -45 -68 -37
-33 -38 -35 -38 -103 0 -70 -8 -115 -41 -224 -10 -33 -23 -94 -29 -135 -6 -41
-20 -110 -32 -152 -19 -74 -20 -88 -9 -270 12 -215 27 -282 85 -372 28 -44 35
-65 39 -122 8 -131 54 -304 107 -407 11 -21 20 -43 20 -50 0 -28 101 -106 163
-127 28 -9 47 -25 73 -64 18 -28 48 -60 65 -70 17 -10 38 -35 46 -55 8 -20 26
-50 39 -68 23 -30 39 -41 129 -85 57 -29 74 -46 85 -88 17 -65 74 -125 155
-165 50 -24 84 -49 110 -80 20 -25 80 -79 133 -119 54 -41 124 -99 157 -130
38 -36 66 -55 78 -52 20 5 22 -5 5 -22 -16 -16 50 -85 112 -117 25 -13 72 -51
105 -85 71 -73 123 -110 188 -134 51 -19 67 -39 67 -84 0 -16 9 -37 20 -47 14
-12 20 -31 20 -57 0 -32 6 -45 33 -69 70 -64 77 -73 77 -99 0 -33 41 -73 96
-95 45 -17 140 -118 129 -136 -15 -24 11 -65 101 -157 139 -142 159 -183 158
-334 -1 -91 -4 -122 -16 -135 -9 -10 -18 -36 -21 -58 -6 -54 -33 -123 -60
-155 -15 -17 -27 -53 -36 -105 -13 -80 -13 -80 -96 -165 -56 -58 -86 -98 -95
-125 -7 -22 -21 -55 -32 -74 -13 -24 -20 -59 -23 -119 -3 -57 -9 -90 -20 -102
-8 -9 -15 -20 -15 -25 0 -4 -15 -25 -34 -45 -24 -27 -38 -55 -46 -93 -6 -31
-21 -68 -32 -83 -35 -44 -98 -174 -98 -202 -1 -71 -29 -146 -65 -177 -37 -30
-37 -30 -34 -170 3 -125 1 -151 -24 -245 -14 -58 -27 -128 -27 -156 0 -72 -36
-203 -63 -232 -26 -28 -33 -160 -9 -184 6 -6 12 -33 12 -58 0 -25 7 -55 15
-66 8 -10 15 -28 15 -40 0 -12 13 -41 30 -65 16 -24 30 -52 30 -62 0 -59 67
-147 111 -147 37 0 57 -25 40 -52 -10 -16 -9 -26 7 -59 16 -31 19 -53 15 -98
-7 -71 9 -86 97 -96 64 -8 152 -50 224 -107 90 -71 131 -87 227 -85 90 2 110
-5 197 -66 29 -21 59 -31 106 -37 35 -4 69 -11 74 -14 5 -3 38 3 72 14 35 11
86 20 115 20 28 0 94 9 146 20 52 11 117 20 145 20 28 0 73 7 100 15 31 9 91
15 166 15 90 0 132 5 175 19 32 11 85 20 118 20 80 0 161 23 271 76 50 25 101
45 113 45 11 0 38 16 60 35 21 19 65 44 97 55 43 15 74 36 114 74 30 30 78 66
105 80 112 60 164 110 215 210 27 54 78 96 116 96 105 0 191 56 214 140 8 31
29 62 72 106 52 54 63 73 79 131 19 70 53 113 87 113 10 0 35 20 55 45 43 51
55 103 62 263 3 89 5 96 33 126 61 64 66 111 27 233 -14 45 -25 102 -25 135 0
40 -9 80 -30 133 -40 100 -48 173 -25 224 25 57 -7 112 -87 145 -68 29 -91 69
-83 147 7 67 7 67 -36 114 -23 25 -71 62 -106 82 -80 44 -103 85 -113 197 -8
91 -28 116 -128 162 -50 23 -56 30 -88 97 -32 69 -62 103 -160 182 -41 32 -52
83 -28 125 17 28 14 75 -10 131 -10 22 35 82 69 93 72 21 88 31 112 68 14 21
28 38 32 38 3 0 52 40 109 89 85 72 114 91 161 104 62 17 93 43 149 120 25 34
45 50 79 61 56 19 83 42 83 71 0 29 56 80 105 95 101 32 259 141 331 229 34
41 79 61 139 61 43 0 50 4 123 75 42 41 88 79 102 83 88 31 92 31 116 15 13
-8 24 -21 24 -27 0 -7 13 -30 28 -52 39 -54 54 -111 42 -155 -15 -50 -12 -134
5 -175 13 -33 13 -39 -5 -74 -41 -81 -22 -231 37 -293 44 -47 83 -109 83 -135
0 -29 39 -144 60 -177 11 -18 20 -38 20 -44 0 -22 67 -114 137 -188 37 -40 86
-96 108 -124 22 -28 58 -71 80 -95 59 -63 93 -108 104 -136 25 -67 136 -148
202 -148 48 0 228 -78 285 -123 26 -20 128 -67 147 -67 5 0 60 -20 123 -46
104 -41 118 -44 171 -39 54 6 63 4 138 -35 72 -37 92 -42 190 -52 184 -18 429
-16 451 3 38 34 110 49 230 49 119 0 161 8 299 57 89 31 109 44 168 109 49 54
76 68 159 79 26 3 78 21 115 40 38 18 80 37 96 40 27 7 49 29 90 95 22 33 38
42 99 55 36 7 93 57 123 109 13 22 47 61 75 85 28 24 60 62 71 85 46 100 90
233 98 295 5 37 18 85 29 107 11 21 36 71 55 109 20 39 51 115 70 170 31 92
57 143 152 294 18 30 50 104 70 165 21 61 47 131 60 156 12 25 25 59 29 75 13
61 86 239 107 261 17 18 20 31 16 61 -21 142 -21 137 9 173 33 38 47 126 32
195 -5 22 -7 63 -4 90 3 28 9 89 14 137 7 79 12 92 53 155 43 66 62 104 91
188 17 48 31 56 168 91 57 14 130 39 162 55 32 16 84 36 115 44 38 10 63 23
73 37 68 102 118 141 194 152 29 5 57 20 98 55 57 48 152 101 182 101 23 0 96
30 136 57 20 13 63 28 95 34 56 10 187 69 247 111 44 31 105 48 132 38 38 -14
243 5 311 29 93 33 140 29 185 -16 27 -28 39 -50 44 -81 3 -24 16 -62 27 -84
12 -23 25 -68 30 -102 10 -72 59 -248 81 -291 9 -16 19 -55 22 -85 8 -64 20
-98 57 -161 23 -40 27 -60 30 -142 4 -88 6 -98 31 -124 20 -21 28 -43 34 -88
7 -60 33 -114 79 -165 22 -24 31 -53 41 -135 3 -22 11 -53 19 -70 8 -16 16
-38 19 -47 4 -15 77 -77 120 -103 9 -5 19 -28 23 -50 7 -49 30 -75 113 -130
36 -24 72 -51 80 -60 8 -10 34 -26 57 -36 24 -10 43 -24 43 -31 0 -11 86 -89
160 -145 8 -6 51 -19 95 -27 44 -9 96 -24 115 -33 40 -19 126 -21 157 -4 52
27 111 12 176 -45 27 -25 47 -34 75 -35 261 -7 346 -6 424 7 86 14 87 14 155
-11 134 -51 197 -50 364 6 31 10 70 19 86 19 17 0 52 10 79 21 42 19 60 21
150 16 110 -6 145 5 179 56 24 37 85 53 143 38 96 -26 120 -25 162 3 29 19 40
33 40 51 0 41 58 95 112 105 26 5 65 22 88 39 25 18 65 34 106 42 49 10 70 19
83 37 9 12 31 41 49 63 17 23 32 49 32 59 0 77 82 199 246 365 49 50 61 75 80
174 3 19 23 50 45 73 21 22 39 46 39 52 0 16 37 49 70 63 63 26 90 61 90 116
0 29 6 61 13 73 31 53 76 110 115 147 24 23 60 71 79 107 20 36 46 76 58 90
13 14 28 42 34 62 7 20 24 54 38 75 15 21 34 52 42 69 35 70 197 223 274 258
39 18 81 43 91 55 11 11 26 21 35 21 29 1 57 24 139 116 54 61 95 97 120 107
21 9 71 47 110 86 40 39 85 77 101 86 16 8 50 42 76 75 36 47 54 62 87 70 42
12 88 49 88 72 0 8 19 32 43 55 41 40 43 41 127 45 53 3 99 12 121 23 37 18
37 18 77 -14 37 -31 40 -35 46 -104 7 -81 11 -88 95 -175 72 -75 81 -90 81
-134 0 -37 48 -146 74 -167 10 -8 29 -38 43 -65 14 -28 40 -73 58 -101 17 -27
42 -81 54 -120 13 -38 30 -88 37 -110 8 -23 34 -61 59 -85 38 -37 45 -50 45
-82 0 -20 6 -57 14 -80 8 -24 17 -56 20 -72 4 -16 22 -47 40 -70 49 -61 64
-95 71 -158 5 -42 16 -72 44 -115 42 -65 62 -100 87 -153 9 -19 29 -53 45 -77
16 -23 29 -45 29 -50 0 -4 17 -32 38 -62 37 -55 37 -55 34 -168 -2 -86 1 -121
13 -143 8 -16 15 -47 15 -68 0 -25 9 -52 24 -74 13 -19 40 -67 61 -107 21 -40
53 -84 71 -98 18 -13 38 -41 45 -61 7 -20 22 -50 35 -67 12 -16 26 -43 29 -58
4 -16 23 -51 42 -79 19 -27 41 -71 48 -96 10 -33 30 -63 70 -102 49 -49 55
-59 55 -96 0 -48 62 -133 117 -163 16 -9 62 -38 102 -66 40 -27 89 -60 109
-72 21 -12 71 -59 113 -104 l76 -82 170 -3 c94 -2 198 -8 232 -14 106 -19 230
6 271 55 20 24 149 119 188 139 68 35 159 140 171 197 8 36 23 65 47 92 77 85
98 153 99 317 0 133 -2 149 -24 189 -34 64 -27 136 18 187 28 31 32 42 27 70
-4 18 0 63 9 99 8 36 15 77 15 90 0 13 16 61 36 107 33 75 37 95 44 208 7 102
14 140 38 206 17 44 38 114 46 155 9 41 28 106 42 144 14 39 30 88 34 111 25
119 65 235 102 297 25 42 44 88 49 120 13 80 17 93 43 124 13 16 31 51 39 78
8 28 30 84 47 125 26 60 33 90 34 150 2 132 101 276 281 410 26 19 65 59 86
88 22 29 57 63 79 77 25 16 53 48 78 92 22 38 50 77 61 87 70 63 105 191 90
319 -6 49 -8 95 -5 103 11 28 -7 77 -38 104 -117 105 -137 126 -142 146 -5 21
-55 65 -133 116 -14 10 -51 22 -81 28 -30 6 -84 19 -120 30 -36 10 -100 26
-142 35 -43 9 -89 26 -103 37 -41 32 -131 36 -198 8 -52 -22 -56 -22 -108 -7
-119 35 -279 22 -381 -29 -30 -15 -31 -18 -47 -139 -8 -58 -16 -83 -29 -90 -9
-5 -45 -39 -79 -75 -78 -82 -99 -142 -89 -256 6 -75 5 -80 -33 -158 -72 -152
-113 -251 -131 -323 -20 -76 -41 -121 -92 -191 -17 -24 -35 -62 -40 -85 -5
-23 -15 -49 -23 -57 -14 -16 -69 -155 -81 -205 -4 -16 -17 -46 -29 -65 -12
-20 -32 -73 -44 -120 -11 -46 -32 -100 -44 -119 -13 -20 -31 -48 -41 -63 -12
-20 -25 -28 -46 -28 -56 0 -80 20 -121 103 -43 88 -46 109 -23 166 18 46 -3
103 -53 139 -37 27 -82 117 -93 189 -11 66 -62 123 -150 166 -32 16 -47 31
-54 52 -23 77 -47 116 -119 192 -80 85 -97 114 -97 162 0 78 -48 222 -93 279
-57 74 -73 106 -81 167 -30 218 -114 408 -199 449 -25 13 -63 116 -73 200 -7
59 -26 79 -132 135 -42 23 -94 56 -115 74 -37 31 -43 32 -147 37 -102 5 -110
7 -153 38 -38 27 -54 32 -101 32 -36 0 -90 11 -148 30 -82 27 -221 52 -288 53
-68 0 -219 -17 -245 -28 -51 -21 -136 -45 -164 -45 -48 -1 -77 -24 -196 -150
-64 -69 -168 -175 -231 -236 -63 -62 -114 -117 -114 -124 0 -48 -150 -252
-236 -320 -69 -55 -82 -67 -163 -159 -48 -55 -79 -80 -126 -103 -81 -38 -169
-117 -194 -173 -20 -45 -23 -47 -112 -65 -62 -12 -84 -29 -94 -75 -8 -32 -71
-105 -91 -105 -13 0 -219 -206 -256 -256 -13 -17 -41 -48 -63 -70 -22 -21 -47
-53 -57 -71 -9 -17 -34 -43 -56 -57 -45 -28 -172 -149 -172 -163 0 -8 -44 -57
-184 -203 -13 -14 -29 -36 -36 -50 -8 -14 -65 -83 -128 -153 -63 -71 -122
-141 -131 -156 -43 -75 -58 -97 -82 -121 -51 -50 -129 -104 -169 -116 -55 -16
-78 -39 -85 -83 -12 -74 -60 -143 -123 -179 -20 -11 -64 -48 -97 -81 -42 -43
-73 -65 -107 -77 -26 -8 -66 -31 -88 -49 -68 -57 -119 -71 -214 -57 -87 12
-129 8 -147 -14 -15 -19 -26 -18 -56 6 -14 11 -40 20 -57 20 -17 1 -42 7 -56
15 -14 8 -41 15 -60 15 -48 1 -130 48 -157 90 -12 19 -36 53 -52 75 -37 52
-87 162 -107 239 -9 34 -31 100 -50 148 -19 48 -34 93 -34 99 0 7 -16 41 -35
76 -31 56 -35 72 -35 134 0 56 -7 87 -31 147 -40 100 -63 269 -54 402 5 72 2
105 -9 138 -12 33 -14 71 -10 175 5 112 3 146 -15 224 -15 66 -19 109 -15 150
5 44 1 81 -17 148 -21 83 -22 96 -11 185 7 52 12 107 12 121 0 40 63 116 107
128 39 11 83 47 83 67 0 7 15 25 34 39 41 31 66 80 66 130 0 56 24 92 69 106
46 14 108 88 116 140 17 99 37 136 111 203 64 58 75 73 89 123 35 127 86 300
101 343 8 25 22 72 30 105 8 33 26 77 40 98 32 48 54 110 54 149 0 44 39 163
66 204 13 19 24 37 24 40 0 24 88 217 113 248 19 23 48 62 65 87 19 29 56 62
96 87 58 37 110 95 128 144 4 9 25 29 47 43 45 28 88 89 103 144 11 41 35 71
55 71 22 0 69 57 117 140 24 42 56 82 70 89 39 21 51 46 107 213 37 109 52
171 54 218 3 71 30 131 92 204 18 21 40 62 49 90 20 61 46 92 84 100 43 8 58
40 69 152 13 125 15 131 98 257 38 56 76 118 86 137 10 20 54 67 98 105 l81
70 -7 94 c-6 94 -6 94 23 125 23 24 36 55 56 134 14 56 40 130 57 164 29 57
31 68 26 133 -11 141 -27 209 -66 290 -21 44 -46 103 -54 131 -8 28 -22 65
-31 82 -10 20 -18 70 -21 144 -5 100 -9 117 -32 153 -28 43 -34 122 -14 193
12 41 -1 128 -26 174 -15 29 -17 57 -16 218 2 185 2 185 -37 267 -39 83 -39
83 -46 256 -6 149 -5 177 10 204 22 43 20 66 -8 100 -57 69 -104 216 -86 270
16 43 0 73 -69 133 -33 29 -74 76 -89 104 -28 49 -69 90 -161 164 -23 19 -59
57 -81 87 -22 30 -59 64 -85 78 -84 47 -308 98 -515 117 -58 5 -131 19 -162
30 -66 23 -67 23 -133 5z m14 -1827 c60 -131 71 -170 71 -256 0 -88 -16 -122
-60 -122 -56 0 -61 -95 -9 -155 35 -40 40 -114 12 -155 -14 -20 -19 -54 -23
-155 -5 -110 -11 -143 -35 -212 -28 -78 -29 -84 -16 -140 25 -113 41 -209 41
-250 0 -59 -55 -156 -121 -212 -48 -41 -51 -46 -44 -80 26 -144 28 -136 -81
-300 -55 -82 -74 -116 -74 -132 0 -9 -9 -36 -20 -60 -11 -24 -20 -56 -20 -71
0 -29 -63 -172 -80 -183 -6 -4 -22 -24 -35 -46 -14 -21 -40 -46 -57 -55 -45
-23 -108 -87 -108 -110 0 -11 -12 -41 -25 -69 -14 -27 -25 -64 -25 -81 0 -35
-40 -80 -64 -71 -61 24 -66 189 -12 403 19 76 38 171 41 209 8 87 43 298 56
332 15 40 10 108 -11 154 -25 56 -25 105 0 152 11 20 20 53 20 72 0 41 15 111
40 180 9 28 22 84 29 125 21 142 28 168 53 198 15 18 30 54 37 93 7 35 21 85
32 111 10 26 19 59 19 75 1 15 7 53 14 83 35 139 68 256 87 308 12 31 27 77
35 102 8 25 23 52 33 60 55 44 116 150 129 225 8 41 10 42 92 78 49 22 47 23
79 -45z m-6822 -8869 c23 -16 46 -29 51 -29 6 0 23 -11 39 -24 15 -13 48 -33
73 -46 47 -23 110 -77 110 -94 0 -5 11 -21 24 -35 54 -60 57 -114 10 -206 -39
-77 -39 -111 -3 -173 11 -19 19 -52 19 -77 0 -25 8 -58 19 -77 39 -66 38 -121
-3 -182 -36 -54 -36 -54 -36 -193 0 -122 -3 -143 -21 -178 -20 -36 -21 -49
-15 -161 7 -121 7 -121 -28 -148 -33 -25 -36 -32 -36 -76 0 -42 -4 -52 -25
-66 -17 -11 -25 -25 -25 -46 0 -20 -11 -40 -38 -66 -20 -20 -66 -69 -102 -108
-64 -70 -66 -72 -142 -89 -87 -19 -124 -43 -144 -92 -19 -45 -63 -70 -138 -78
-33 -4 -81 -14 -106 -21 -53 -16 -116 -18 -125 -4 -4 6 -24 19 -45 30 -42 22
-70 84 -70 157 0 51 -35 112 -74 128 -53 22 -58 36 -63 158 -5 106 -4 114 21
160 15 27 23 54 19 60 -4 7 -29 40 -55 74 -56 73 -62 112 -24 171 19 30 25 54
29 132 5 88 8 99 40 146 21 33 37 70 41 100 4 34 17 62 41 93 20 25 38 56 42
70 11 46 35 84 88 141 56 58 125 186 125 231 0 42 54 114 114 153 62 40 89 76
111 152 19 67 43 86 109 92 44 3 60 10 82 33 32 34 48 32 111 -12z m-5335
-4026 c70 -78 91 -139 63 -193 -12 -22 -17 -58 -17 -114 0 -44 -5 -90 -11
-101 -6 -11 -14 -58 -18 -104 -8 -85 -8 -85 -114 -185 -58 -56 -117 -109 -130
-119 -14 -10 -25 -24 -25 -32 0 -8 -12 -21 -28 -29 -15 -8 -36 -23 -46 -35
-25 -28 -110 -30 -124 -3 -35 65 -23 127 34 175 18 15 38 43 44 62 6 19 28 67
48 107 37 72 37 74 38 205 2 148 2 146 51 170 42 20 113 123 113 165 0 57 79
77 122 31z M28639 10796 c-3 -3 -36 -10 -74 -16 -41 -7 -78 -19 -90 -30 -18 -16
-42 -18 -278 -18 l-258 0 -60 -40 c-36 -24 -82 -45 -113 -52 -117 -24 -250
-84 -302 -136 -46 -46 -120 -107 -233 -195 -25 -20 -62 -57 -80 -83 -19 -25
-45 -53 -58 -62 -13 -8 -35 -38 -48 -67 -28 -58 -67 -102 -135 -152 -45 -32
-67 -67 -125 -199 -15 -32 -29 -73 -32 -90 -3 -18 -23 -57 -44 -87 -22 -29
-51 -79 -66 -109 -14 -30 -41 -68 -60 -83 -39 -33 -83 -105 -83 -135 0 -11
-11 -42 -25 -68 -14 -26 -25 -59 -25 -73 0 -14 -7 -44 -15 -66 -8 -22 -14 -62
-15 -89 0 -52 6 -44 -104 -139 -38 -33 -38 -33 -40 -119 -1 -82 -3 -89 -32
-120 -53 -57 -64 -79 -64 -135 0 -41 -7 -66 -30 -106 -42 -74 -48 -131 -21
-192 11 -26 21 -52 21 -56 0 -5 16 -33 35 -62 41 -61 59 -143 49 -222 -3 -31
0 -73 9 -110 8 -33 18 -82 22 -109 4 -28 17 -79 30 -115 24 -66 24 -66 5 -136
-41 -148 -37 -235 15 -295 8 -8 35 -63 60 -122 48 -107 48 -107 31 -148 -9
-22 -16 -49 -16 -58 0 -10 -11 -29 -25 -42 -17 -16 -25 -34 -25 -57 0 -31 -4
-36 -53 -58 -29 -14 -68 -41 -87 -61 -63 -65 -246 -144 -335 -144 -20 0 -78
-14 -129 -31 -83 -28 -154 -40 -396 -65 -41 -4 -70 0 -114 15 -55 19 -66 20
-142 9 -64 -9 -100 -9 -159 0 -49 8 -83 9 -94 3 -10 -6 -42 -13 -72 -16 -30
-3 -64 -8 -77 -11 -37 -8 -379 -355 -403 -410 -11 -25 -31 -61 -45 -81 -31
-46 -30 -73 1 -103 28 -26 32 -62 10 -100 -28 -49 -19 -84 36 -147 28 -32 57
-70 65 -85 8 -15 23 -29 34 -33 11 -3 30 -21 42 -38 12 -18 46 -55 76 -84 29
-29 61 -71 72 -95 24 -54 87 -116 165 -161 33 -20 74 -50 90 -67 74 -79 181
-74 287 11 26 22 27 22 65 4 21 -10 51 -29 68 -43 50 -42 124 -26 248 51 37
23 62 29 139 36 80 7 102 13 158 44 65 36 182 74 295 97 39 8 98 33 168 72
109 61 109 61 226 68 120 8 170 22 225 64 68 51 227 104 319 106 5 0 48 -38
96 -84 51 -49 100 -88 117 -92 210 -50 217 -54 394 -220 112 -106 147 -133
210 -161 41 -19 86 -45 100 -57 48 -45 109 -60 188 -46 89 15 157 -2 244 -60
48 -32 68 -40 88 -35 80 20 126 17 178 -9 45 -23 63 -26 154 -26 93 0 108 -3
155 -27 52 -27 54 -28 83 -10 17 9 42 23 58 30 15 8 54 28 87 45 33 16 78 33
100 37 22 3 73 13 112 22 60 12 82 13 124 3 117 -28 263 6 288 68 15 36 47 67
80 77 87 26 203 42 285 38 89 -4 89 -4 145 50 47 46 73 61 156 93 55 20 125
50 156 66 31 15 60 28 65 28 43 0 93 29 163 94 60 56 93 79 140 96 50 19 67
31 96 71 23 32 52 57 87 75 119 60 192 110 246 169 31 35 76 72 98 83 23 12
44 28 47 36 3 7 23 19 44 26 61 19 81 37 93 80 12 43 56 80 96 80 19 0 64 38
64 54 0 26 46 67 85 77 53 13 67 29 89 95 18 57 33 73 87 98 19 9 52 37 73 62
21 25 63 62 94 82 30 21 72 48 92 62 38 25 72 54 223 190 46 41 103 86 127
100 24 14 78 59 120 101 75 77 75 77 166 98 50 12 107 21 126 21 19 0 62 11
96 25 46 18 80 25 132 25 92 0 125 15 183 83 34 40 60 60 95 73 28 10 68 37
97 66 28 27 70 63 95 81 32 24 50 46 63 81 11 31 35 65 67 95 43 41 50 52 50
87 1 21 9 64 20 94 11 30 19 68 20 83 0 16 11 52 25 81 27 57 24 89 -16 168
-11 21 -19 48 -19 60 0 13 -7 34 -15 48 -8 14 -21 39 -30 57 -8 17 -29 43 -47
56 -65 47 -244 134 -302 145 -33 7 -83 23 -113 37 -74 33 -147 45 -285 45 -93
0 -126 4 -151 17 -25 13 -53 16 -123 15 -60 -2 -104 3 -133 13 -93 32 -200 15
-265 -44 -49 -45 -77 -61 -107 -61 -13 0 -39 -19 -68 -51 -25 -28 -77 -72
-114 -97 -38 -24 -79 -62 -92 -82 -13 -20 -43 -52 -67 -71 -23 -19 -97 -88
-163 -154 -75 -76 -142 -134 -180 -155 -80 -45 -131 -84 -250 -193 -56 -51
-129 -108 -164 -127 -35 -19 -84 -57 -110 -83 -25 -27 -87 -77 -137 -113 -51
-35 -106 -80 -122 -100 -37 -45 -239 -184 -268 -184 -25 0 -54 -29 -54 -56 -1
-29 -39 -68 -105 -104 -33 -18 -75 -46 -93 -62 -18 -15 -48 -34 -67 -42 -18
-8 -63 -38 -100 -66 -37 -28 -83 -59 -103 -67 -56 -23 -101 -61 -116 -98 -13
-29 -30 -42 -123 -87 -74 -36 -112 -61 -120 -78 -12 -24 -134 -78 -217 -96
-36 -8 -90 -33 -166 -80 -53 -32 -91 -44 -210 -63 -62 -10 -164 -54 -198 -84
-16 -15 -40 -22 -86 -25 -64 -4 -64 -4 -115 61 -46 58 -59 68 -113 86 -110 37
-137 84 -102 176 9 22 20 67 25 100 12 74 49 117 130 146 87 32 159 126 159
209 0 9 39 56 86 105 142 148 154 164 154 223 0 47 4 55 50 107 28 33 56 78
65 106 9 27 34 70 56 96 40 49 63 92 93 174 9 25 39 81 66 125 28 43 53 90 56
104 15 72 28 105 58 138 18 20 64 78 102 127 69 90 69 90 69 201 0 119 -4 108
72 213 13 18 19 55 24 152 7 121 9 133 44 203 36 73 36 75 24 135 -11 60 -11
60 25 102 57 67 63 107 28 182 -28 62 -28 62 -25 241 3 156 0 187 -17 243 -25
81 -25 102 0 181 25 80 17 118 -51 252 -15 30 -37 91 -48 134 -23 87 -81 175
-133 202 -16 8 -57 44 -91 80 -62 65 -62 65 -141 73 -75 9 -81 11 -115 49 -36
41 -36 41 -142 44 -75 2 -112 8 -124 18 -14 12 -59 16 -194 20 -157 5 -181 8
-218 28 -38 20 -93 29 -104 18z m-221 -1361 c37 -25 52 -42 52 -58 0 -13 4
-27 10 -33 5 -5 15 -45 21 -89 6 -44 13 -83 15 -87 3 -4 0 -17 -6 -28 -8 -16
-6 -37 10 -93 14 -53 20 -103 20 -179 0 -106 0 -106 -49 -142 -43 -32 -49 -41
-55 -83 -3 -27 -15 -62 -25 -80 -11 -17 -25 -51 -31 -75 -7 -27 -28 -60 -55
-88 -48 -51 -86 -121 -104 -195 -7 -27 -27 -70 -45 -95 -19 -25 -43 -66 -54
-92 -13 -29 -46 -72 -86 -111 -58 -55 -66 -67 -66 -99 0 -53 -14 -54 -55 -3
-46 56 -53 101 -32 210 28 138 20 327 -19 480 -13 49 -14 72 -5 120 15 82 14
89 -15 125 -24 28 -26 37 -21 82 8 67 19 77 97 84 73 7 93 21 141 95 29 46 30
50 20 111 -5 35 -12 73 -16 85 -6 19 -1 26 25 40 102 57 150 96 200 162 60 82
59 82 128 36z"/></g></svg>