<svg xmlns="http://www.w3.org/2000/svg" viewBox="0 0 5498 3207" role="img" aria-label="solving"><g transform="translate(0.000000,3207.000000) scale(0.100000,-0.100000)" fill="currentColor" stroke="none"><path d="M17645 31735 c-79 -35 -81 -35 -221 -35 -153 0 -185 -7 -269 -58 -28
-16 -67 -33 -87 -36 -20 -4 -58 -21 -85 -39 -47 -32 -161 -87 -180 -87 -5 0
-48 -25 -94 -55 -46 -30 -87 -55 -91 -55 -14 0 -134 -74 -177 -109 -24 -20
-68 -49 -97 -66 -139 -78 -242 -193 -260 -291 -3 -21 -26 -77 -50 -124 -49
-97 -79 -189 -89 -273 -6 -55 -34 -118 -80 -182 -12 -16 -45 -76 -73 -132 -28
-56 -63 -118 -77 -139 -14 -20 -25 -42 -25 -47 0 -6 -11 -22 -24 -36 -26 -27
-63 -221 -50 -256 9 -23 -23 -140 -56 -205 -19 -38 -31 -84 -39 -149 -7 -51
-19 -107 -28 -125 -49 -94 -83 -229 -83 -325 1 -104 -3 -112 -196 -494 -35
-68 -46 -102 -51 -155 -3 -37 -17 -93 -30 -126 -24 -58 -54 -249 -57 -366 -1
-30 -6 -64 -13 -75 -12 -22 -33 -127 -33 -165 0 -13 -22 -69 -50 -125 -46 -92
-50 -108 -57 -195 -7 -102 -64 -251 -113 -295 -39 -35 -50 -71 -56 -182 -6
-90 -10 -112 -27 -131 -19 -20 -22 -41 -29 -219 -8 -197 -8 -197 -47 -277 -56
-117 -58 -124 -66 -212 -4 -43 -19 -108 -32 -144 -40 -105 -103 -332 -103
-372 0 -13 -14 -63 -30 -112 -17 -49 -30 -101 -30 -116 0 -14 -15 -73 -34
-130 -19 -58 -40 -134 -46 -170 -12 -74 -38 -159 -53 -178 -6 -8 -8 -47 -4
-101 8 -102 10 -98 -120 -229 -106 -107 -126 -136 -172 -254 -23 -58 -51 -114
-62 -124 -10 -9 -19 -27 -19 -38 0 -19 -87 -106 -106 -106 -3 0 -54 -24 -112
-52 -104 -53 -114 -62 -126 -120 -6 -28 -42 -58 -124 -104 -129 -72 -154 -89
-162 -110 -13 -34 -51 -54 -123 -64 -83 -12 -90 -15 -168 -72 -52 -38 -70 -58
-83 -93 -25 -63 -68 -91 -187 -121 -64 -16 -134 -42 -191 -72 -70 -36 -99 -46
-131 -44 -23 1 -89 4 -147 6 -62 3 -165 17 -252 35 -81 17 -176 31 -210 31
-96 1 -183 23 -241 62 -79 53 -133 78 -215 98 -67 17 -80 24 -121 69 -90 98
-190 130 -368 120 -55 -3 -83 11 -83 41 0 28 -65 76 -128 95 -32 9 -84 26
-117 38 -49 17 -81 20 -176 19 -104 -2 -125 1 -209 28 -51 17 -105 30 -119 30
-29 0 -121 -43 -193 -91 -53 -35 -110 -41 -239 -25 -51 7 -77 5 -115 -7 -27
-9 -69 -19 -94 -22 -25 -4 -81 -23 -125 -42 -43 -19 -102 -37 -130 -40 -34 -4
-91 -26 -176 -69 -69 -35 -133 -64 -143 -64 -25 0 -113 -39 -171 -75 -27 -18
-71 -38 -98 -45 -26 -7 -82 -37 -124 -66 -43 -30 -82 -54 -87 -54 -5 0 -17 -7
-26 -15 -36 -33 -194 -87 -270 -92 -48 -4 -86 -12 -107 -25 -27 -16 -48 -19
-120 -16 -99 3 -115 -4 -152 -58 -46 -68 -114 -106 -201 -114 -77 -7 -101 -16
-205 -72 -55 -30 -63 -39 -97 -108 -21 -41 -43 -90 -49 -108 -6 -18 -21 -37
-33 -42 -63 -24 -106 -89 -106 -161 0 -15 -7 -32 -15 -39 -8 -7 -15 -24 -15
-38 0 -13 -15 -41 -32 -62 -39 -44 -68 -88 -101 -150 -25 -45 -127 -150 -146
-150 -6 0 -18 -17 -26 -37 -18 -43 -65 -96 -109 -124 -16 -9 -41 -39 -55 -65
-17 -31 -43 -59 -76 -80 -27 -18 -72 -55 -100 -83 -27 -28 -86 -72 -130 -97
-145 -82 -197 -118 -249 -174 -93 -100 -130 -132 -196 -164 -36 -18 -85 -46
-109 -62 -24 -16 -57 -36 -72 -44 -16 -9 -36 -25 -45 -38 -8 -12 -22 -22 -31
-22 -8 0 -48 -31 -87 -70 -68 -66 -117 -90 -182 -90 -2 0 -21 -15 -41 -33 -21
-18 -81 -59 -133 -91 -52 -32 -113 -71 -135 -87 -22 -16 -57 -33 -78 -39 -20
-6 -57 -31 -83 -55 -44 -43 -49 -45 -104 -45 -64 0 -122 -20 -160 -55 -85 -80
-230 -98 -336 -43 -46 24 -99 39 -185 53 -21 3 -43 12 -50 21 -20 25 -131 82
-174 90 -75 13 -172 75 -246 157 -36 40 -36 40 -102 30 -92 -16 -117 -8 -302
89 -23 12 -74 24 -118 29 -86 10 -116 23 -192 80 -62 47 -113 69 -159 69 -61
0 -117 33 -206 124 -47 48 -99 94 -117 102 -49 24 -66 59 -68 139 -3 89 -11
109 -75 170 -82 80 -90 106 -107 352 -7 116 -4 127 57 198 52 58 52 58 48 124
-3 65 -3 65 37 85 29 14 64 19 130 20 69 1 101 7 139 24 63 29 82 28 152 -8
90 -45 144 -38 144 19 0 15 5 33 10 41 14 22 173 42 325 40 127 -2 130 -2 171
-32 42 -30 42 -30 166 -18 116 12 128 12 217 -9 107 -25 128 -23 202 24 29 19
69 37 89 40 90 15 118 28 183 86 55 50 75 61 115 68 69 11 146 76 179 153 16
35 39 68 64 88 47 37 52 86 18 158 -21 43 -21 45 -4 80 14 28 19 65 21 152 3
159 -13 198 -132 313 -191 184 -272 234 -443 272 -61 13 -120 29 -132 35 -46
25 -165 70 -185 70 -12 0 -48 -14 -80 -31 -43 -22 -81 -33 -144 -40 -178 -20
-260 -37 -308 -65 -98 -57 -117 -64 -164 -64 -29 0 -72 -10 -108 -25 -33 -14
-68 -25 -78 -25 -28 0 -132 -28 -183 -50 -34 -14 -60 -18 -95 -14 -48 5 -183
-24 -261 -57 -25 -10 -50 -11 -118 -2 -65 8 -105 7 -168 -3 -45 -7 -142 -20
-216 -28 -117 -14 -140 -19 -181 -46 -32 -20 -59 -30 -87 -30 -85 0 -133 -24
-221 -110 -59 -59 -99 -88 -146 -110 -46 -20 -69 -37 -80 -59 -15 -28 -61 -51
-105 -51 -18 0 -101 -91 -101 -112 0 -9 -12 -23 -27 -30 -32 -15 -69 -77 -78
-131 -6 -31 -17 -45 -60 -77 -67 -49 -90 -87 -105 -175 -6 -38 -18 -83 -25
-100 -8 -16 -17 -46 -21 -65 -3 -19 -12 -46 -19 -60 -9 -17 -13 -79 -13 -202
0 -169 -5 -218 -38 -334 -19 -69 -18 -91 10 -149 27 -56 49 -142 40 -156 -5
-9 46 -189 66 -234 5 -11 14 -39 20 -62 15 -59 67 -174 90 -198 21 -22 60 -88
86 -145 9 -19 34 -50 55 -68 25 -21 43 -48 51 -75 14 -49 53 -109 100 -154 28
-28 41 -32 93 -35 52 -3 60 -6 63 -24 2 -12 19 -36 38 -54 19 -20 34 -44 34
-57 0 -14 25 -51 63 -96 55 -63 69 -73 105 -78 40 -5 70 -17 147 -57 57 -30
137 -68 158 -75 10 -4 17 -15 15 -24 -1 -10 12 -38 30 -62 18 -24 32 -50 32
-56 0 -22 67 -65 101 -65 18 0 46 -10 63 -22 42 -31 93 -55 143 -68 30 -7 52
-22 73 -49 20 -24 46 -43 73 -52 23 -7 53 -21 66 -31 13 -10 30 -18 37 -18 26
0 119 -48 143 -74 14 -14 34 -26 46 -26 26 0 65 -27 65 -45 0 -8 10 -19 23
-26 12 -6 47 -30 77 -54 30 -23 66 -46 80 -50 14 -4 51 -34 84 -66 57 -56 59
-59 54 -103 -4 -36 -13 -52 -47 -84 -22 -21 -41 -47 -41 -57 0 -9 -11 -30 -25
-47 -14 -16 -25 -37 -25 -47 0 -9 -13 -30 -30 -46 -16 -16 -30 -39 -30 -51 0
-29 -78 -109 -116 -118 -39 -10 -134 -104 -134 -133 0 -12 -11 -30 -26 -40
-85 -59 -103 -82 -201 -261 -22 -42 -46 -78 -52 -80 -6 -2 -18 -17 -27 -34 -8
-16 -43 -58 -76 -92 -68 -72 -107 -150 -117 -239 -6 -50 -12 -63 -44 -92 -20
-19 -37 -40 -37 -47 0 -7 -13 -32 -29 -55 -21 -31 -30 -59 -35 -110 -6 -65
-29 -144 -54 -190 -7 -12 -12 -31 -12 -42 0 -20 -28 -69 -70 -123 -11 -15 -34
-62 -51 -105 -16 -43 -42 -101 -56 -130 -39 -79 -31 -172 19 -216 20 -18 43
-46 52 -63 8 -17 22 -36 30 -43 9 -8 16 -27 16 -43 0 -16 9 -41 20 -55 11 -14
20 -40 20 -57 0 -19 11 -47 25 -66 15 -20 25 -47 25 -68 0 -46 83 -141 165
-189 33 -19 80 -54 105 -77 72 -68 95 -80 121 -65 27 14 185 7 202 -10 6 -6
17 -11 25 -11 8 0 31 -10 51 -22 20 -13 68 -28 106 -34 120 -18 198 -35 250
-54 28 -10 73 -21 100 -25 43 -6 57 -14 98 -56 26 -27 51 -49 56 -49 5 0 33
-20 62 -45 29 -25 59 -45 66 -45 7 0 28 -16 47 -35 34 -34 38 -35 108 -34 58
0 81 6 113 24 81 48 83 49 110 37 14 -7 29 -22 34 -34 14 -37 93 -98 126 -98
8 0 34 11 56 25 55 35 192 69 244 60 64 -11 91 -8 142 19 67 34 115 71 133
103 25 43 60 62 145 78 76 15 82 18 130 69 42 45 61 57 124 77 58 19 86 34
124 71 56 54 98 67 157 49 61 -18 77 -14 128 37 27 27 69 63 95 82 40 28 50
43 68 99 24 71 67 122 125 147 22 9 38 28 52 56 61 132 102 200 162 263 15 17
38 53 50 80 12 28 28 66 37 85 8 19 19 79 24 134 5 54 14 107 20 118 6 11 15
99 20 196 5 98 10 196 13 219 3 40 -3 87 -39 291 -16 91 -16 94 5 163 24 77
24 91 -6 269 -18 109 -22 311 -9 447 6 65 4 77 -18 120 -50 94 -37 186 38 273
7 8 24 38 39 67 14 28 30 54 36 58 11 6 32 42 85 143 37 71 107 112 190 112
41 0 61 7 105 35 61 39 70 50 70 85 1 47 79 105 167 124 44 10 75 36 113 96
32 50 100 93 181 113 38 10 78 44 93 82 15 36 60 65 98 65 26 0 153 117 194
180 15 22 36 42 48 46 11 3 44 28 71 54 28 26 90 69 138 95 88 47 88 47 141
26 29 -12 59 -19 68 -16 24 9 38 -17 47 -92 11 -88 32 -128 79 -152 58 -30 93
-98 84 -163 -2 -21 1 -52 8 -70 6 -18 15 -42 20 -53 7 -20 36 -127 47 -175 8
-36 37 -74 70 -90 49 -24 73 -53 85 -97 8 -33 28 -62 84 -119 83 -85 129 -166
111 -195 -14 -22 19 -74 92 -148 28 -27 51 -54 51 -58 0 -4 15 -27 33 -50 17
-22 39 -54 48 -70 22 -40 90 -84 141 -90 38 -5 101 -34 258 -119 25 -13 64
-29 87 -34 31 -8 47 -19 57 -39 8 -15 39 -54 68 -85 59 -61 93 -69 192 -46 31
7 47 5 75 -10 61 -32 141 -49 269 -59 133 -11 158 -21 214 -87 28 -32 28 -32
150 -29 123 3 139 0 233 -40 26 -11 245 -27 375 -28 61 0 101 21 121 63 32 66
112 110 201 110 45 0 114 32 143 65 22 26 129 85 154 85 9 0 42 23 74 50 32
28 67 50 77 50 10 0 65 45 122 101 57 55 115 107 129 114 27 14 159 150 159
163 0 5 35 38 78 75 175 151 207 193 215 287 6 70 23 94 76 106 32 8 61 32 61
52 0 8 19 33 41 54 34 33 43 48 47 86 5 54 41 109 77 118 37 9 118 111 144
181 28 75 91 173 159 247 91 100 141 308 109 458 -7 34 -4 41 28 76 45 51 66
108 55 155 -9 44 -3 79 44 230 20 65 36 129 36 142 0 45 40 135 68 152 15 9
37 25 49 36 19 17 27 18 78 7 55 -12 59 -11 123 22 60 29 70 39 97 91 60 116
148 149 338 127 l117 -13 53 50 c29 28 72 60 95 72 22 11 53 36 67 55 31 41
97 71 125 56 40 -21 57 -70 64 -180 4 -58 14 -131 23 -162 12 -44 13 -64 5
-85 -36 -91 -32 -326 7 -421 27 -67 26 -90 -3 -161 -23 -53 -25 -69 -22 -202
2 -143 2 -145 33 -189 56 -83 68 -235 44 -566 -7 -94 -11 -227 -9 -295 3 -123
3 -125 46 -209 23 -47 42 -96 42 -108 0 -33 27 -91 44 -98 9 -3 26 -22 38 -42
23 -37 155 -174 236 -245 33 -28 49 -36 67 -31 20 5 26 0 39 -29 8 -20 27 -42
45 -51 16 -9 32 -24 35 -34 9 -28 136 -133 155 -128 92 24 144 28 240 17 56
-6 132 -11 169 -11 53 -1 75 -6 107 -25 47 -29 156 -35 203 -11 15 7 51 19 81
26 35 8 67 24 91 46 21 19 41 34 46 34 5 0 36 13 69 29 33 16 92 39 130 52 77
24 183 89 229 137 18 19 53 39 91 52 36 12 83 38 113 63 70 58 158 107 212
117 35 6 52 17 77 47 37 44 38 46 121 119 34 31 62 62 62 68 0 22 43 53 125
89 65 29 97 52 171 124 113 110 155 143 229 181 33 17 83 50 111 74 29 23 74
55 101 70 39 21 55 37 73 75 12 26 39 68 59 92 20 25 43 63 51 85 13 35 25 46
81 76 75 40 159 108 159 128 0 8 28 39 63 70 34 32 80 76 102 99 22 24 75 60
119 82 43 22 83 44 89 49 7 6 53 17 102 25 50 9 102 19 118 23 23 5 33 0 67
-37 43 -47 44 -53 20 -151 -14 -57 2 -95 54 -127 45 -28 61 -71 59 -155 -2
-44 5 -93 17 -135 28 -97 77 -227 96 -256 20 -31 22 -90 5 -200 -9 -58 -10
-99 -2 -150 5 -38 13 -97 16 -130 4 -32 16 -81 26 -108 10 -26 19 -60 19 -74
0 -15 11 -38 24 -52 25 -27 57 -141 71 -251 9 -75 22 -114 45 -135 11 -10 26
-40 35 -69 9 -28 20 -60 25 -71 5 -11 23 -54 40 -95 17 -41 37 -87 45 -102 8
-14 15 -33 15 -42 0 -24 70 -188 90 -211 9 -11 24 -33 31 -50 10 -21 32 -39
72 -58 39 -19 66 -40 83 -67 15 -22 47 -56 73 -75 25 -19 62 -48 81 -65 32
-27 74 -42 189 -70 18 -5 56 -6 85 -3 46 4 55 2 95 -27 44 -32 44 -32 138 -25
93 7 93 7 130 -25 51 -45 122 -41 208 13 55 34 67 37 134 37 68 0 88 6 151 41
8 5 26 14 40 20 40 17 59 39 66 78 10 63 15 72 65 127 27 30 49 59 49 64 0 5
18 22 40 36 65 43 92 87 100 163 3 37 15 83 27 106 29 54 63 140 63 160 0 25
28 74 93 160 69 92 107 159 107 189 0 12 16 41 35 66 93 119 155 223 155 257
0 40 18 78 70 148 47 62 73 114 94 186 9 33 35 82 60 115 24 33 70 111 102
174 43 85 78 137 134 200 42 47 93 114 115 150 21 36 54 89 73 118 48 72 78
140 87 193 4 24 17 64 30 89 12 25 25 57 28 71 9 38 74 169 102 208 14 19 25
46 25 60 0 43 20 100 53 154 30 49 31 55 29 145 -3 111 11 190 43 250 13 24
31 70 39 102 17 66 58 154 87 185 10 11 25 41 34 65 22 62 48 86 120 110 78
26 87 36 132 146 20 49 48 105 62 124 154 202 171 320 71 497 -17 29 -30 62
-30 72 0 82 -158 313 -233 341 -18 7 -68 27 -112 45 -59 25 -102 35 -165 40
-47 4 -115 13 -152 22 -56 13 -77 13 -130 3 -35 -6 -117 -15 -183 -19 -94 -6
-133 -14 -180 -33 -44 -18 -87 -27 -159 -32 -130 -9 -143 -16 -173 -96 -14
-39 -36 -76 -57 -95 -18 -16 -46 -55 -61 -85 -15 -30 -35 -66 -45 -80 -10 -15
-19 -54 -23 -99 -5 -58 -12 -82 -34 -115 -35 -51 -42 -68 -53 -129 -5 -26 -21
-71 -34 -100 -37 -78 -49 -133 -50 -223 -1 -73 -4 -85 -33 -130 -78 -120 -85
-135 -93 -200 -5 -37 -13 -71 -19 -77 -6 -6 -11 -21 -11 -33 0 -35 -40 -115
-89 -179 -45 -59 -46 -61 -44 -127 2 -59 -1 -74 -27 -118 -17 -28 -42 -88 -57
-133 -14 -45 -39 -98 -54 -117 -15 -19 -51 -87 -80 -150 -50 -110 -86 -163
-173 -250 -19 -19 -41 -53 -48 -75 -12 -36 -16 -40 -48 -40 -36 0 -33 -3 -74
85 -9 19 -26 49 -37 67 -11 18 -27 70 -34 118 -9 52 -23 101 -37 123 -20 33
-23 50 -23 147 -1 96 -4 117 -26 165 -23 49 -25 66 -22 155 3 120 -7 155 -62
214 -26 28 -53 73 -70 116 -16 39 -36 81 -47 94 -10 13 -18 31 -18 40 -1 35
-29 91 -74 149 -26 34 -53 80 -61 102 -8 23 -23 53 -34 68 -10 15 -37 63 -61
107 -23 44 -54 101 -68 126 -15 25 -34 59 -44 75 -18 33 -54 61 -118 94 -66
34 -116 78 -151 132 -64 100 -215 137 -290 71 -33 -29 -85 -28 -146 3 -78 40
-272 43 -338 7 -48 -28 -65 -28 -128 -6 -47 17 -51 17 -135 -5 -48 -12 -95
-22 -105 -22 -11 0 -30 -9 -44 -20 -20 -15 -41 -20 -93 -20 -118 0 -360 -104
-360 -155 0 -23 -49 -57 -88 -62 -50 -7 -78 -36 -117 -123 -32 -69 -129 -200
-149 -200 -7 0 -41 -28 -77 -63 -35 -34 -87 -78 -114 -97 -68 -47 -105 -81
-105 -97 0 -32 -115 -233 -134 -233 -6 0 -42 -28 -81 -61 -38 -34 -84 -71
-101 -83 -113 -77 -241 -208 -255 -261 -8 -26 -22 -44 -53 -63 -23 -15 -81
-63 -129 -107 -48 -44 -95 -83 -105 -87 -25 -9 -111 -85 -161 -140 -25 -28
-58 -52 -79 -59 -35 -10 -93 -35 -190 -81 -23 -11 -64 -45 -90 -75 -57 -67
-92 -87 -135 -78 -62 13 -77 39 -77 127 0 77 -1 79 -39 121 -79 86 -87 133
-42 231 28 59 29 68 24 147 -10 129 -7 192 12 270 22 88 16 168 -17 235 -24
48 -25 53 -24 294 1 215 3 251 20 293 16 40 17 55 8 101 -17 87 -1 156 38 156
23 0 140 123 140 149 0 11 -5 55 -11 97 -9 60 -9 88 1 133 8 31 14 88 14 128
1 57 5 76 22 95 71 80 124 216 124 319 0 46 5 63 29 96 16 22 37 55 46 74 9
19 39 57 65 84 27 28 59 70 73 95 13 25 33 61 44 80 84 155 187 289 225 297
34 7 54 33 63 86 11 58 62 143 109 182 29 24 52 56 71 98 15 34 43 79 61 99
39 43 54 92 54 171 0 63 5 73 85 172 41 51 54 77 74 152 7 27 35 70 81 123 39
44 70 84 70 89 0 5 25 36 55 70 30 34 67 85 81 114 15 29 41 72 58 97 33 45
96 197 96 229 0 9 12 42 26 72 15 29 36 74 48 98 11 24 31 50 44 59 26 17 49
67 81 170 17 55 34 87 74 135 29 34 74 103 101 152 26 50 65 108 86 130 45 46
65 95 90 219 13 63 25 96 43 115 42 45 97 132 97 155 0 34 36 142 60 181 13
20 28 70 35 110 7 41 25 100 40 131 15 31 29 82 32 113 4 42 17 77 54 144 44
78 50 96 55 165 3 42 12 93 19 112 8 19 16 51 20 71 3 21 15 49 26 63 21 27
49 137 49 198 0 20 11 72 24 115 13 43 28 105 35 137 6 36 26 85 50 125 46 77
71 155 71 221 0 31 9 63 25 94 21 39 25 61 25 127 0 67 4 87 24 122 31 52 106
276 106 314 0 16 9 60 19 98 11 39 22 111 26 160 5 75 12 103 43 168 34 72 35
80 23 110 -7 17 -28 86 -46 152 -18 66 -38 134 -45 150 -18 46 -37 123 -45
187 -4 40 -21 86 -55 150 -27 51 -53 112 -59 135 -22 82 -88 196 -153 263 -89
92 -213 195 -278 232 -110 62 -125 68 -165 68 -39 0 -87 28 -206 121 -60 48
-173 49 -274 4z m-532 -2436 c19 -30 1 -52 -35 -45 -49 10 -57 24 -29 47 27
22 49 22 64 -2z m-59 -109 c34 -13 33 -38 -5 -94 -38 -57 -45 -62 -59 -36 -12
23 -4 107 12 128 12 15 19 15 52 2z m-114 -435 c15 -18 0 -70 -21 -70 -21 0
-35 50 -19 69 16 20 24 20 40 1z m-62 -294 c4 -51 -13 -97 -39 -112 -13 -6
-19 -21 -19 -44 0 -18 -9 -54 -20 -80 -11 -26 -20 -57 -20 -70 0 -13 -5 -36
-12 -49 -9 -21 -8 -29 5 -44 23 -25 21 -31 -16 -73 -53 -60 -109 -59 -77 1 9
18 9 28 0 45 -15 27 16 80 53 94 20 7 21 16 23 139 3 132 3 132 46 187 51 66
72 68 76 6z m-232 -582 c10 -17 -23 -46 -37 -32 -7 7 -9 19 -6 27 7 18 33 21
43 5z m-6566 -5734 c16 -9 55 -14 107 -15 107 0 146 -18 258 -117 50 -44 113
-92 140 -108 81 -47 159 -110 174 -141 7 -16 19 -40 26 -54 7 -14 13 -47 13
-73 -1 -26 5 -60 11 -75 7 -15 20 -41 28 -57 45 -95 49 -363 8 -442 -14 -25
-25 -57 -25 -70 0 -17 -11 -30 -35 -45 -44 -25 -60 -55 -75 -138 -7 -36 -19
-92 -27 -125 -8 -33 -17 -71 -20 -85 -8 -34 -58 -102 -94 -129 -17 -13 -39
-43 -49 -67 -12 -27 -30 -49 -45 -56 -15 -7 -34 -26 -42 -42 -38 -75 -147
-201 -185 -215 -68 -26 -84 -38 -184 -135 -175 -167 -211 -186 -326 -162 -150
31 -222 74 -253 149 -9 23 -31 71 -49 107 -18 36 -39 87 -45 114 -19 77 -34
98 -115 160 -84 64 -79 53 -82 201 0 50 -5 140 -9 201 -7 108 -7 113 20 170
36 77 55 148 55 205 0 56 33 190 59 238 93 174 101 198 101 311 0 115 29 209
79 254 12 11 21 25 21 32 0 35 179 121 277 133 55 6 70 12 88 35 39 49 143 71
195 41z m-6382 -4525 c29 -18 32 -24 32 -68 0 -26 -4 -52 -9 -57 -5 -6 -23
-37 -41 -70 -18 -33 -42 -71 -55 -85 -13 -14 -31 -42 -39 -62 -9 -20 -20 -39
-25 -42 -5 -4 -12 -19 -16 -35 -4 -18 -30 -50 -68 -85 -34 -31 -73 -66 -87
-79 -32 -31 -114 -67 -151 -67 -15 0 -60 -7 -100 -15 -67 -14 -74 -14 -103 3
-77 45 -11 185 89 187 66 2 84 24 102 127 17 102 11 95 193 223 88 62 123 87
160 119 38 31 73 33 118 6z M24719 27235 c-3 -3 -82 -6 -176 -8 -170 -2 -170 -2 -228 -47 -32
-24 -63 -53 -69 -63 -14 -24 -78 -57 -110 -57 -36 0 -84 -45 -98 -93 -6 -23
-19 -51 -28 -62 -65 -76 -93 -134 -86 -182 20 -155 29 -188 70 -267 14 -27 26
-58 26 -68 0 -33 26 -72 84 -124 31 -29 56 -58 56 -66 0 -24 79 -98 105 -98
18 0 33 -13 56 -47 46 -68 147 -175 183 -195 35 -19 163 -23 342 -9 90 6 106
11 149 39 36 24 60 32 92 32 49 0 94 19 136 58 23 22 27 34 27 79 0 64 30 103
77 103 42 0 68 23 82 72 6 24 21 70 31 103 11 33 22 85 26 115 3 30 10 72 15
92 10 41 -9 135 -38 193 -9 16 -17 58 -19 93 -3 74 -35 124 -141 222 -60 55
-74 63 -167 90 -56 17 -141 43 -191 59 -88 29 -195 47 -206 36z M40548 23964 c-16 -8 -28 -23 -28 -33 0 -26 -23 -42 -130 -95 -189
-94 -207 -99 -312 -87 -73 8 -108 18 -163 45 -38 19 -86 38 -105 42 -19 3 -62
17 -95 30 -79 31 -166 44 -294 44 -57 0 -160 8 -229 17 -160 21 -230 12 -308
-43 -50 -33 -63 -37 -171 -50 -87 -11 -125 -20 -143 -34 -59 -47 -210 -109
-293 -121 -105 -15 -113 -18 -172 -71 -75 -66 -207 -124 -370 -162 -38 -9 -88
-25 -110 -36 -23 -11 -46 -20 -51 -20 -5 0 -29 -11 -54 -24 -25 -13 -68 -31
-96 -39 -67 -20 -110 -42 -118 -62 -3 -8 -25 -24 -48 -34 -42 -18 -156 -89
-210 -131 -15 -12 -67 -37 -115 -55 -59 -23 -100 -47 -127 -74 -23 -22 -63
-52 -91 -67 -49 -27 -78 -48 -163 -122 -65 -57 -75 -66 -105 -106 -16 -20 -45
-47 -65 -60 -20 -13 -64 -52 -97 -86 -33 -34 -91 -95 -130 -134 -38 -40 -81
-88 -94 -106 -14 -18 -43 -45 -65 -61 -43 -31 -136 -144 -136 -166 0 -16 -78
-181 -96 -203 -21 -27 -105 -193 -133 -267 -16 -40 -53 -109 -83 -155 -85
-130 -127 -203 -142 -245 -7 -21 -39 -75 -69 -120 -30 -45 -65 -109 -78 -143
-12 -34 -41 -86 -65 -116 -23 -30 -45 -72 -49 -92 -4 -20 -15 -51 -25 -67 -10
-17 -32 -71 -48 -120 -17 -50 -39 -110 -49 -135 -11 -25 -25 -67 -32 -95 -7
-27 -28 -77 -47 -111 -22 -39 -40 -91 -50 -140 -8 -43 -21 -88 -30 -99 -8 -11
-35 -50 -60 -87 -52 -78 -82 -88 -124 -43 -27 29 -30 111 -9 275 11 85 11 85
-25 155 -20 39 -36 75 -36 82 0 6 -22 35 -48 65 -57 62 -67 79 -76 133 -4 22
-23 71 -42 109 -39 79 -42 111 -14 166 26 50 25 119 -1 190 -30 82 -37 268
-14 371 15 64 16 88 7 132 -6 29 -8 72 -5 95 5 36 1 49 -35 104 -22 35 -46 81
-52 103 -7 22 -26 67 -42 100 -22 47 -28 74 -28 127 0 44 -7 85 -20 119 -20
49 -20 55 -5 97 8 25 15 60 15 78 0 18 7 65 15 105 17 79 6 139 -34 191 -10
13 -32 51 -49 85 -32 63 -63 91 -212 200 -36 26 -88 71 -116 99 -59 61 -133
109 -198 128 -25 8 -69 34 -98 57 -52 44 -52 44 -152 44 -92 0 -105 -2 -141
-26 -75 -49 -104 -53 -204 -30 -49 12 -103 21 -120 21 -18 0 -52 5 -76 11 -66
17 -110 4 -164 -46 -31 -29 -62 -47 -94 -56 -57 -14 -137 -101 -192 -209 -10
-19 -35 -54 -56 -77 -22 -24 -39 -52 -39 -63 0 -11 -11 -27 -25 -36 -14 -9
-37 -36 -51 -60 -14 -24 -41 -53 -60 -64 -19 -12 -34 -26 -34 -32 0 -15 -133
-136 -209 -189 -58 -41 -72 -57 -91 -103 -12 -31 -28 -60 -35 -66 -7 -6 -16
-27 -20 -47 -4 -23 -25 -57 -55 -92 -27 -31 -56 -72 -64 -92 -8 -19 -23 -43
-35 -53 -11 -10 -23 -31 -26 -48 -4 -16 -14 -32 -22 -35 -28 -11 -44 22 -50
103 -9 114 -28 153 -106 208 -69 49 -91 85 -102 169 -5 36 -21 69 -62 130 -44
64 -58 94 -64 137 -5 30 -27 113 -49 184 -35 113 -45 134 -79 165 -21 20 -45
50 -54 67 -18 36 -72 84 -92 84 -16 0 -201 138 -260 194 -52 50 -123 82 -210
96 -38 6 -90 15 -113 21 -69 15 -279 19 -372 7 -79 -10 -88 -10 -126 10 -52
26 -165 45 -221 37 -24 -3 -65 -22 -95 -43 -29 -20 -84 -50 -123 -67 -122 -53
-192 -108 -200 -155 -7 -40 -42 -77 -135 -140 -19 -13 -61 -48 -93 -77 -32
-29 -73 -61 -90 -70 -43 -21 -184 -149 -304 -274 -176 -183 -210 -215 -269
-260 -33 -25 -64 -56 -71 -70 -7 -14 -21 -34 -33 -44 -11 -10 -27 -43 -36 -75
-18 -64 -132 -194 -212 -240 -29 -16 -58 -47 -87 -90 -23 -36 -55 -76 -70 -90
-15 -14 -49 -57 -76 -96 -26 -40 -84 -105 -128 -145 -44 -40 -83 -84 -86 -98
-4 -15 -51 -69 -105 -121 -78 -76 -100 -104 -109 -137 -18 -66 -54 -101 -123
-120 -42 -12 -66 -25 -81 -45 -12 -16 -45 -53 -73 -81 -66 -68 -80 -90 -94
-159 -8 -43 -20 -66 -49 -96 -21 -21 -47 -58 -59 -83 -13 -27 -58 -78 -117
-132 -52 -49 -95 -95 -95 -103 0 -8 -27 -40 -61 -72 -33 -31 -72 -77 -87 -102
-32 -56 -104 -156 -158 -220 -23 -26 -59 -74 -80 -106 -21 -33 -61 -81 -89
-109 -29 -27 -54 -58 -58 -67 -22 -61 -87 -53 -138 16 -16 23 -48 50 -72 61
-50 24 -67 54 -67 120 0 78 -19 173 -44 229 -34 73 -38 109 -20 181 16 63 16
63 -12 112 -15 26 -37 58 -48 71 -33 38 -47 258 -19 310 11 20 23 49 27 64 9
40 -19 207 -43 253 -28 52 -26 103 4 175 15 36 25 79 25 108 0 66 18 160 36
188 13 19 15 61 12 246 -3 223 -3 223 -39 283 -20 33 -42 82 -49 109 -15 55
-54 89 -157 136 -52 24 -65 35 -78 67 -18 44 -67 98 -108 119 -15 8 -59 43
-97 78 -79 73 -90 76 -279 76 -87 0 -123 4 -146 16 -160 85 -264 82 -366 -13
-14 -13 -50 -31 -80 -39 -30 -9 -76 -22 -104 -30 -27 -8 -66 -14 -86 -14 -142
0 -198 -44 -254 -201 -7 -20 -25 -55 -39 -78 -32 -49 -33 -93 -6 -180 22 -68
18 -128 -16 -245 -17 -60 -18 -102 -2 -159 9 -35 8 -59 -5 -125 -10 -47 -14
-99 -11 -125 8 -58 -14 -187 -35 -212 -23 -26 -51 -103 -51 -138 0 -16 -5 -37
-10 -47 -6 -10 -12 -52 -14 -92 -5 -79 -23 -126 -67 -173 -15 -16 -40 -46 -56
-66 -15 -21 -50 -66 -77 -100 -27 -35 -64 -97 -82 -138 -20 -43 -52 -91 -77
-116 -58 -58 -83 -93 -105 -151 -21 -57 -81 -155 -134 -222 -21 -26 -38 -52
-38 -59 0 -6 -35 -47 -78 -90 -69 -70 -105 -94 -201 -137 -13 -6 -41 -34 -63
-63 -31 -42 -45 -53 -75 -58 -52 -9 -109 -34 -151 -67 -19 -15 -39 -28 -45
-28 -6 0 -25 -18 -44 -40 -25 -29 -48 -44 -87 -55 -51 -15 -55 -18 -89 -84
-20 -38 -47 -85 -60 -105 -47 -68 -52 -157 -20 -305 15 -70 15 -77 -2 -127
-18 -52 -18 -52 33 -161 28 -59 56 -130 62 -158 27 -120 30 -136 30 -156 0
-39 41 -91 89 -112 25 -11 82 -53 125 -93 86 -80 112 -91 193 -79 102 15 197
10 234 -13 28 -17 58 -22 144 -27 61 -4 124 -11 142 -16 54 -17 163 64 248
185 17 23 31 30 75 36 35 5 75 20 110 42 59 37 330 296 330 315 0 7 20 35 45
63 25 28 45 57 45 64 0 17 79 84 137 116 41 23 41 23 77 1 41 -26 116 -133
116 -166 0 -13 13 -53 30 -90 30 -66 163 -212 278 -303 26 -21 53 -56 74 -99
28 -58 38 -69 71 -80 21 -7 66 -36 100 -64 34 -29 78 -59 97 -67 19 -8 55 -28
80 -45 49 -33 125 -57 181 -57 20 0 42 -6 48 -13 6 -8 30 -19 53 -27 24 -7 60
-28 81 -46 20 -19 41 -34 45 -34 5 0 33 -30 63 -66 64 -78 76 -79 200 -19 86
41 106 43 145 13 40 -32 144 -32 194 -1 74 47 92 54 171 68 44 7 91 21 105 30
13 9 52 26 86 38 49 17 68 30 89 62 20 28 45 48 93 70 45 21 73 41 89 65 20
31 28 35 71 36 32 1 57 8 74 22 15 12 50 35 78 51 28 16 67 51 87 78 19 26 52
64 72 83 21 19 45 54 55 77 10 23 27 46 38 52 30 16 182 209 182 231 0 5 26
35 58 67 46 46 60 67 65 98 4 22 34 108 67 190 34 83 65 164 69 182 5 17 19
46 32 64 24 33 64 101 115 194 14 28 53 79 85 115 74 85 139 171 139 186 0 7
41 50 90 97 50 47 109 108 131 136 22 28 58 61 80 73 26 14 56 46 84 88 24 36
63 83 87 106 23 22 59 62 78 88 19 26 48 54 64 62 20 11 39 39 67 99 38 82 39
84 104 116 71 35 95 59 95 98 0 25 61 91 84 91 20 0 46 34 57 73 8 31 62 118
134 216 14 19 38 42 53 51 15 9 33 25 41 34 8 10 31 26 50 37 20 11 56 35 81
54 57 44 82 55 126 55 37 0 132 -27 148 -41 6 -5 18 -9 27 -9 9 0 24 -11 33
-24 8 -13 29 -27 45 -31 55 -12 94 -87 84 -161 -6 -44 6 -136 34 -269 24 -113
31 -159 26 -171 -2 -6 1 -22 6 -36 6 -16 7 -58 2 -108 -11 -101 4 -165 50
-217 61 -70 72 -111 74 -278 2 -116 7 -160 21 -195 9 -25 17 -67 16 -95 -5
-239 -2 -279 24 -306 13 -14 24 -29 24 -35 0 -5 12 -32 27 -59 31 -58 43 -124
32 -172 -11 -50 10 -152 38 -186 13 -16 26 -40 30 -55 8 -35 139 -195 208
-255 45 -40 55 -54 55 -80 0 -43 41 -129 74 -155 15 -11 49 -28 76 -37 33 -11
61 -30 83 -56 37 -42 97 -69 156 -69 36 0 83 -25 154 -82 27 -22 36 -23 151
-20 118 3 123 2 161 -24 65 -44 116 -44 164 -1 40 36 105 57 181 57 60 0 83
13 166 97 77 77 77 77 71 149 -4 59 -2 79 14 108 20 38 59 148 59 168 0 7 12
35 26 62 22 42 25 58 20 101 -5 49 -4 53 29 85 19 19 35 38 35 44 0 5 8 19 18
30 60 69 92 143 92 213 0 49 6 79 20 106 26 49 25 83 -5 150 -25 54 -25 54 5
112 44 83 40 115 -25 211 -31 46 -31 46 5 88 38 42 72 185 68 282 -2 57 1 67
24 91 14 16 33 44 41 65 8 20 34 55 56 77 44 44 87 146 78 183 -12 46 18 87
87 118 79 36 94 37 105 7 5 -13 16 -29 25 -36 9 -7 16 -21 16 -31 0 -49 83
-335 122 -420 44 -95 58 -152 64 -270 7 -118 9 -125 72 -245 57 -110 76 -157
93 -239 19 -95 40 -128 94 -151 25 -11 36 -27 60 -92 22 -58 43 -91 80 -130
123 -127 149 -162 188 -247 20 -44 27 -74 27 -123 0 -85 19 -120 122 -225 46
-46 107 -110 136 -141 29 -31 58 -57 65 -57 26 0 95 -45 154 -101 57 -55 64
-59 110 -59 57 0 101 -24 153 -82 31 -36 77 -65 220 -142 40 -21 59 -24 160
-25 222 -2 273 -7 330 -29 64 -25 144 -22 215 8 23 10 82 21 131 24 86 7 106
13 249 76 36 16 42 23 58 79 14 51 28 72 83 128 59 60 70 78 105 172 22 57 46
116 53 130 8 17 11 50 8 94 -5 72 5 97 40 97 59 0 83 84 79 282 -3 106 -3 106
60 185 77 96 98 143 99 211 0 33 9 74 24 110 13 31 31 86 40 122 24 95 31 108
73 127 41 19 105 129 118 203 3 19 8 44 10 55 2 11 19 43 37 70 18 27 56 99
83 159 42 92 56 114 82 126 62 29 78 77 47 139 -24 48 -11 85 41 115 76 45
125 110 125 168 0 27 5 59 11 70 6 11 15 44 19 72 13 86 42 148 80 174 19 13
41 35 49 50 7 15 29 44 48 64 31 32 36 43 38 97 2 33 9 77 16 98 6 21 13 43
15 49 1 7 19 17 39 24 53 17 85 -5 86 -63 1 -23 4 -98 6 -167 2 -69 3 -179 3
-245 -2 -127 6 -164 44 -205 38 -41 82 -131 101 -205 17 -65 42 -128 64 -165
5 -8 21 -41 36 -73 15 -33 58 -93 98 -138 40 -44 79 -93 88 -109 9 -16 23 -39
32 -53 8 -13 20 -42 26 -65 9 -31 26 -54 72 -94 34 -29 69 -69 79 -89 10 -19
26 -42 36 -50 9 -7 27 -30 40 -50 12 -20 40 -44 61 -54 45 -21 95 -57 143
-101 34 -32 106 -64 144 -64 26 0 83 -45 101 -81 21 -39 133 -116 215 -145 25
-9 72 -29 105 -44 33 -16 78 -31 100 -35 140 -23 186 -37 207 -66 35 -47 94
-64 172 -49 60 11 70 10 133 -11 63 -21 82 -22 279 -20 192 2 216 0 270 -19
99 -35 194 -6 304 92 53 47 99 68 152 68 41 0 76 17 130 61 28 24 66 45 90 51
42 9 143 65 188 103 14 12 51 36 83 53 54 28 61 30 99 19 50 -15 109 -102 134
-200 8 -34 31 -90 50 -124 22 -39 34 -75 34 -99 0 -58 19 -152 45 -220 13 -33
29 -89 35 -125 7 -35 22 -80 34 -99 29 -49 45 -127 51 -250 2 -58 11 -130 20
-160 29 -104 35 -156 50 -445 9 -159 21 -323 27 -363 10 -64 10 -79 -7 -123
-15 -44 -17 -69 -11 -176 8 -143 3 -156 -79 -192 -38 -17 -48 -29 -73 -93 -6
-15 -29 -38 -50 -52 -21 -13 -62 -47 -90 -74 -68 -66 -98 -87 -163 -112 -30
-12 -70 -34 -89 -49 -19 -15 -48 -35 -65 -44 -16 -8 -58 -38 -92 -66 -34 -27
-79 -62 -100 -75 -21 -14 -60 -42 -88 -61 -27 -19 -59 -35 -71 -35 -12 0 -39
-14 -60 -31 -22 -17 -57 -40 -79 -51 -64 -33 -167 -103 -207 -141 -21 -19 -75
-56 -120 -82 -111 -62 -139 -81 -211 -142 -34 -28 -119 -86 -190 -128 -70 -42
-140 -87 -155 -99 -15 -13 -52 -38 -82 -56 -30 -18 -73 -50 -95 -72 -25 -23
-73 -52 -122 -72 -44 -18 -109 -53 -144 -78 -35 -25 -95 -59 -133 -76 -38 -18
-84 -46 -103 -62 -18 -17 -56 -41 -84 -55 -27 -14 -75 -45 -107 -69 -40 -31
-74 -47 -115 -56 -46 -9 -62 -18 -82 -45 -14 -18 -45 -45 -68 -61 -23 -15 -75
-56 -115 -92 -41 -35 -88 -70 -106 -77 -17 -7 -44 -28 -61 -45 -16 -17 -54
-47 -83 -66 -29 -20 -95 -79 -147 -131 -90 -92 -118 -113 -210 -164 -44 -24
-81 -52 -158 -120 -29 -25 -68 -56 -87 -69 -19 -13 -67 -55 -106 -94 -113
-112 -163 -157 -228 -210 -57 -45 -156 -151 -156 -167 0 -13 -93 -69 -116 -69
-41 0 -64 -30 -73 -94 -8 -62 -47 -110 -122 -151 -14 -7 -38 -32 -53 -53 -15
-22 -47 -58 -72 -81 -24 -22 -44 -46 -44 -54 0 -8 -6 -20 -14 -26 -8 -7 -24
-32 -35 -56 -15 -32 -37 -55 -76 -81 -44 -29 -61 -49 -88 -103 -25 -49 -40
-67 -58 -71 -74 -15 -289 -246 -289 -311 0 -31 -31 -92 -71 -139 -32 -38 -44
-65 -64 -145 -14 -54 -32 -106 -40 -114 -30 -34 -66 -89 -99 -152 -19 -36 -49
-77 -68 -91 -18 -14 -39 -43 -47 -64 -7 -21 -24 -50 -36 -64 -27 -29 -95 -158
-95 -180 0 -8 -10 -31 -22 -50 -60 -96 -72 -128 -84 -215 -23 -164 -46 -232
-104 -303 -17 -21 -35 -55 -41 -75 -5 -20 -31 -67 -57 -104 -46 -68 -46 -68
-45 -157 2 -87 -30 -207 -67 -251 -14 -16 -40 -124 -40 -162 0 -18 -11 -66
-25 -105 -14 -39 -25 -81 -25 -93 0 -12 -8 -48 -19 -81 -48 -153 -61 -203 -61
-230 0 -16 -9 -58 -20 -92 -13 -40 -20 -92 -20 -139 0 -61 -5 -87 -29 -141
-29 -65 -52 -170 -72 -322 -6 -41 -17 -103 -25 -137 -7 -34 -14 -109 -14 -167
0 -109 -12 -211 -35 -306 -17 -69 -39 -204 -40 -250 -3 -96 -18 -241 -31 -287
-11 -38 -13 -62 -5 -90 22 -90 22 -132 0 -219 -21 -84 -22 -89 -5 -158 9 -39
16 -98 16 -132 0 -118 21 -279 50 -374 33 -110 51 -271 47 -435 -2 -109 -2
-111 36 -184 30 -61 37 -86 37 -133 0 -32 4 -66 10 -76 17 -31 29 -114 19
-139 -18 -47 -10 -106 23 -168 29 -57 32 -68 37 -200 7 -154 23 -204 71 -215
21 -5 26 -14 31 -51 4 -25 15 -61 24 -79 11 -21 15 -44 11 -65 -9 -47 11 -161
38 -220 37 -81 47 -129 40 -197 -5 -54 -3 -71 19 -119 14 -31 28 -76 32 -100
16 -99 80 -248 138 -321 30 -38 39 -71 57 -208 7 -59 30 -124 62 -175 7 -11
25 -40 40 -64 16 -25 28 -54 28 -66 0 -12 16 -43 35 -70 19 -27 39 -71 45 -99
6 -28 17 -60 23 -71 7 -11 21 -42 32 -70 39 -107 165 -265 211 -265 29 0 51
-27 62 -77 5 -23 19 -54 31 -69 11 -15 21 -32 21 -40 0 -7 10 -25 23 -41 12
-15 31 -45 42 -67 11 -21 42 -54 69 -75 70 -52 216 -199 216 -218 0 -31 162
-213 189 -213 13 0 121 -107 121 -120 0 -5 51 -59 112 -120 101 -99 116 -110
149 -110 25 0 50 -11 85 -35 37 -27 56 -35 77 -31 26 5 37 -7 17 -19 -15 -10
-12 -25 8 -32 9 -3 31 -18 47 -34 17 -15 56 -53 88 -83 32 -30 68 -58 80 -61
27 -8 45 -15 129 -54 37 -17 70 -31 73 -31 13 0 85 -64 85 -75 0 -7 27 -35 59
-64 55 -47 64 -51 110 -51 27 0 53 -5 56 -11 4 -5 18 -14 31 -19 14 -6 28 -18
32 -29 10 -27 129 -131 169 -147 18 -8 33 -18 33 -23 0 -5 18 -20 40 -35 23
-15 46 -41 54 -61 8 -19 20 -35 26 -35 6 0 33 -21 60 -46 53 -50 108 -69 165
-58 29 5 39 1 79 -36 24 -23 46 -51 48 -63 2 -13 17 -29 38 -39 44 -21 64 -23
57 -3 -7 17 8 29 23 20 8 -5 8 -11 1 -19 -13 -16 -4 -26 24 -26 11 0 49 -21
84 -47 34 -27 75 -57 91 -69 26 -19 224 -101 290 -119 38 -11 107 -54 114 -70
3 -8 22 -22 43 -30 53 -23 459 -30 488 -9 13 10 33 12 67 8 40 -6 56 -2 105
24 32 16 74 33 93 37 21 4 55 26 83 52 53 49 55 49 170 24 45 -10 53 -9 92 15
26 15 67 28 100 31 47 5 68 14 123 54 57 42 73 49 113 49 58 0 161 51 196 96
16 22 36 34 61 39 20 3 48 17 62 30 14 12 39 26 57 30 17 3 37 13 44 21 6 8
20 14 31 14 19 0 57 21 93 50 23 19 89 53 185 96 80 35 94 46 136 109 189 281
214 307 326 340 30 8 64 25 74 36 11 12 47 44 81 71 71 56 185 185 213 239 11
22 37 47 63 62 37 22 50 39 85 111 33 69 48 90 82 111 93 59 156 134 173 205
4 14 36 52 73 84 52 47 73 75 101 134 33 69 130 182 156 182 12 0 157 149 157
162 0 5 13 27 29 47 37 47 61 95 61 121 0 12 8 34 18 48 48 69 94 237 102 372
3 58 10 114 16 125 6 11 26 51 45 89 22 45 50 82 82 109 53 45 53 48 31 155
-29 139 -36 418 -11 455 19 30 47 154 47 213 0 23 10 63 22 90 18 42 22 77 30
254 10 270 20 356 46 405 12 22 28 84 37 138 9 54 25 121 35 148 11 28 25 71
30 97 6 26 24 77 41 115 25 55 32 87 39 180 5 61 14 144 20 182 5 39 14 113
20 165 12 112 21 154 43 197 24 46 22 143 -4 194 -27 54 -23 189 10 304 12 44
27 121 32 170 9 88 16 144 39 297 6 43 22 110 35 149 32 92 32 153 1 221 -13
29 -27 70 -30 91 -4 21 -16 58 -27 83 -28 67 -25 86 27 139 64 66 66 77 43
186 -18 85 -19 102 -8 177 12 78 11 88 -9 151 -26 80 -27 115 -6 188 13 45 14
67 5 138 -8 60 -9 96 -1 132 7 27 11 147 11 278 0 127 0 295 0 375 1 90 -4
162 -12 190 -7 25 -14 101 -16 170 -5 291 -10 397 -17 408 -9 14 -19 164 -17
240 1 29 -3 70 -9 91 -13 48 -22 353 -24 766 -1 277 -3 324 -18 350 -34 63
-53 200 -39 295 10 73 10 97 -4 161 -9 40 -22 109 -29 151 -8 43 -21 91 -30
108 -9 16 -23 44 -32 60 -13 24 -14 39 -5 78 12 57 -1 125 -54 287 -44 135
-64 299 -47 376 18 78 15 144 -10 192 -29 57 -29 137 1 196 14 27 21 54 18 70
-12 59 -38 137 -58 175 -20 37 -41 156 -40 226 3 301 2 331 -15 425 -10 55
-17 134 -16 175 2 56 -3 90 -19 135 -79 224 -97 437 -56 675 9 52 17 144 17
204 0 109 0 109 43 155 23 26 67 78 97 116 99 125 148 165 208 165 15 1 45 14
67 30 22 16 56 37 75 47 19 9 46 27 60 39 26 24 124 68 252 114 42 15 89 37
104 49 17 13 41 21 65 21 32 0 46 7 77 39 45 46 81 63 227 102 140 37 202 64
241 100 25 24 58 36 194 70 99 25 183 52 210 67 59 35 107 52 150 52 19 0 49
9 65 20 19 13 47 20 77 20 62 0 95 14 143 59 33 32 49 40 92 44 29 3 74 16
100 27 27 12 85 25 133 29 70 7 96 14 151 45 36 20 75 36 86 36 11 0 54 18 97
40 44 23 91 40 110 40 19 0 53 7 77 16 24 8 73 20 108 25 42 6 96 25 155 54
88 44 92 45 190 45 79 0 107 4 127 18 166 111 172 115 290 149 129 37 186 60
236 97 23 17 52 25 105 30 40 4 93 16 117 27 24 10 73 24 110 30 113 18 164
29 177 40 38 31 195 98 247 104 37 5 91 23 145 50 65 31 103 43 152 47 96 8
423 121 473 163 41 36 133 75 175 75 15 0 52 12 82 26 30 14 93 32 140 40 144
25 276 64 385 113 22 10 56 22 75 26 19 4 46 16 60 26 14 10 57 28 95 39 39
12 115 44 170 71 74 36 120 52 175 59 99 14 230 60 365 128 61 31 128 59 150
63 22 4 65 12 95 18 30 6 72 13 92 16 22 4 61 23 95 49 56 41 155 86 191 86
10 0 50 14 89 30 40 17 106 35 148 40 82 10 110 22 169 69 21 17 46 31 54 31
8 0 39 13 67 29 29 16 70 33 91 37 42 8 120 34 249 83 44 17 113 40 153 51 40
11 95 31 122 45 27 14 59 25 70 25 11 0 42 11 68 24 26 13 80 29 121 35 41 6
95 22 120 35 25 13 64 32 86 43 25 13 82 25 156 33 111 12 118 12 180 -10 73
-25 315 -52 392 -43 35 4 52 12 63 29 15 23 99 44 173 44 31 0 129 51 176 91
11 10 45 27 75 39 30 12 59 26 65 31 5 5 15 9 22 9 22 0 123 79 143 112 10 17
21 61 25 99 4 39 14 79 24 91 32 43 41 79 41 158 0 44 5 111 12 148 11 64 10
72 -10 111 -18 34 -22 59 -22 130 0 85 -1 91 -35 140 -19 28 -35 54 -35 57 0
36 -135 161 -220 204 -22 11 -47 33 -57 48 -31 50 -115 121 -147 126 -17 3
-81 7 -143 10 -125 5 -137 9 -210 78 -74 71 -146 83 -260 46 -93 -30 -155 -33
-237 -12 -103 27 -151 12 -186 -56 -15 -30 -30 -41 -78 -59 -33 -12 -65 -28
-72 -36 -7 -8 -20 -15 -30 -15 -25 0 -70 -56 -70 -86 0 -16 -21 -47 -61 -90
-33 -36 -67 -80 -74 -98 -16 -38 -27 -47 -75 -67 -19 -7 -58 -28 -87 -45 -31
-19 -82 -37 -130 -47 -43 -8 -108 -29 -143 -46 -101 -46 -289 -118 -355 -136
-33 -8 -76 -22 -95 -31 -19 -9 -53 -24 -75 -35 -22 -10 -83 -35 -135 -55 -52
-20 -115 -47 -140 -59 -25 -12 -63 -28 -85 -35 -81 -24 -262 -94 -316 -121
-30 -15 -90 -35 -132 -43 -100 -21 -169 -48 -237 -91 -30 -19 -58 -35 -63 -35
-5 0 -49 -18 -97 -40 -48 -21 -125 -49 -171 -60 -45 -12 -101 -32 -124 -45
-22 -14 -70 -31 -105 -39 -36 -8 -108 -32 -160 -53 -88 -37 -220 -85 -465
-171 -55 -19 -161 -57 -235 -85 -74 -28 -155 -56 -180 -62 -25 -7 -56 -17 -68
-24 -11 -6 -52 -18 -89 -25 -37 -8 -104 -28 -148 -46 -140 -55 -316 -110 -433
-135 -75 -16 -131 -34 -168 -55 -30 -18 -83 -38 -117 -46 -34 -8 -96 -26 -137
-39 -41 -14 -123 -41 -181 -60 -59 -19 -139 -42 -178 -50 -39 -8 -97 -28 -129
-43 -31 -16 -80 -35 -109 -41 -29 -7 -83 -26 -122 -41 -39 -16 -95 -34 -126
-39 -31 -6 -82 -24 -113 -40 -82 -43 -162 -68 -239 -76 -50 -5 -83 -15 -124
-40 -57 -33 -140 -63 -239 -85 -30 -7 -75 -23 -100 -35 -25 -13 -81 -28 -125
-35 -196 -28 -223 -34 -268 -51 -26 -10 -80 -22 -120 -25 -54 -5 -90 -16 -147
-44 -41 -21 -95 -41 -120 -45 -25 -4 -99 -33 -165 -65 -66 -32 -142 -63 -170
-69 -27 -7 -70 -24 -95 -38 -34 -20 -61 -27 -120 -30 -79 -5 -101 -11 -189
-51 -30 -14 -75 -27 -100 -29 -66 -7 -151 -40 -186 -72 -57 -53 -141 -92 -217
-102 -49 -6 -84 -17 -110 -34 -21 -14 -62 -35 -91 -46 -28 -11 -59 -27 -68
-35 -9 -8 -38 -21 -66 -29 -27 -8 -65 -25 -84 -38 -31 -21 -72 -35 -153 -52
-16 -3 -46 -21 -67 -38 -35 -30 -105 -59 -174 -72 -31 -6 -86 -39 -148 -88
-27 -22 -48 -29 -84 -30 -47 -2 -47 -2 -84 72 -40 83 -59 216 -59 419 0 94 -2
107 -30 162 -16 32 -34 61 -40 65 -5 3 -10 22 -10 41 0 19 -13 76 -29 127 -56
173 -64 213 -58 276 6 73 -5 112 -59 211 -44 79 -74 183 -98 335 -8 50 -21
110 -30 135 -9 25 -16 56 -16 70 -1 39 -58 197 -128 356 -37 82 -41 99 -50
224 -8 103 -15 147 -32 185 -17 36 -24 72 -26 135 -3 129 -29 279 -52 304 -11
11 -22 32 -25 46 -3 14 -11 40 -18 58 -12 28 -11 36 4 65 21 39 13 119 -23
223 -34 97 -38 205 -10 244 38 53 33 123 -13 198 -37 59 -37 61 -37 165 0 110
-12 164 -49 214 -20 27 -20 35 -11 193 5 91 13 178 19 193 15 40 14 83 -4 118
-38 72 -65 174 -59 219 4 30 0 60 -11 90 -9 25 -25 84 -35 132 -12 55 -37 123
-70 188 -28 55 -60 125 -71 155 -16 44 -32 64 -84 105 -36 29 -85 75 -110 104
-58 69 -108 102 -170 116 -27 6 -61 22 -75 35 -87 81 -331 165 -482 165 -30 0
-69 10 -105 26 -43 20 -80 28 -143 32 -47 2 -94 9 -104 14 -10 6 -49 14 -85
19 -37 4 -73 10 -81 13 -8 3 -27 -1 -42 -10z m-1062 -1683 c23 -11 57 -40 77
-65 23 -28 51 -49 75 -57 20 -6 44 -18 53 -25 8 -8 31 -17 50 -21 115 -22 247
-140 311 -276 19 -40 45 -78 64 -92 18 -14 38 -42 45 -62 7 -21 22 -54 35 -73
12 -19 25 -52 28 -72 5 -26 18 -47 45 -70 68 -58 98 -156 67 -216 -9 -17 -16
-42 -16 -56 0 -14 -16 -67 -36 -118 -20 -51 -42 -109 -50 -128 -7 -19 -13 -59
-14 -88 0 -47 -4 -57 -39 -95 -34 -37 -111 -82 -173 -101 -9 -3 -26 -23 -38
-45 -15 -30 -34 -48 -69 -66 -27 -13 -56 -34 -65 -46 -44 -63 -141 -77 -252
-38 -43 16 -95 23 -196 28 -157 7 -164 11 -208 101 -42 89 -57 110 -165 238
-89 105 -125 194 -125 309 0 84 -14 126 -59 172 -17 17 -31 38 -31 46 0 7 -12
28 -27 46 -39 45 -36 104 6 158 46 58 66 180 40 248 -23 60 -15 125 24 206 23
48 45 78 58 82 11 4 29 25 39 48 10 23 33 57 52 75 35 33 35 33 206 30 166 -3
172 -2 194 20 28 27 43 28 94 3z m2089 -7151 c11 -12 22 -45 26 -79 3 -33 20
-90 37 -128 17 -37 36 -88 42 -113 7 -25 23 -62 37 -83 40 -58 52 -184 38
-398 -7 -96 7 -159 35 -159 40 0 57 -252 19 -286 -35 -31 -27 -119 15 -158 43
-42 50 -62 51 -171 1 -49 6 -103 12 -120 33 -88 43 -168 43 -333 0 -98 5 -183
11 -199 14 -38 42 -200 41 -243 -1 -19 -2 -66 -3 -105 -2 -76 34 -271 58 -319
9 -18 18 -81 24 -165 4 -75 13 -167 18 -206 6 -38 11 -91 11 -117 0 -25 9 -68
21 -95 18 -42 20 -65 18 -193 -1 -95 3 -178 13 -241 12 -71 14 -108 6 -145 -5
-29 -6 -90 -2 -149 4 -55 9 -208 10 -340 4 -444 12 -669 23 -705 9 -26 9 -62
1 -135 -12 -124 -33 -523 -27 -533 13 -20 -9 -830 -22 -846 -10 -12 -12 -30
-5 -74 17 -121 11 -191 -24 -267 -50 -110 -67 -212 -51 -313 11 -71 10 -91 -4
-150 -9 -37 -19 -101 -22 -142 -4 -46 -16 -98 -32 -133 -20 -47 -24 -69 -19
-110 14 -129 23 -753 15 -1032 -9 -309 -14 -356 -45 -403 -29 -43 -73 -180
-84 -262 -6 -41 -18 -111 -27 -155 -8 -44 -19 -111 -23 -150 -4 -38 -17 -95
-30 -125 -36 -89 -49 -148 -43 -201 5 -42 2 -54 -20 -86 -47 -68 -109 -332
-148 -627 -6 -49 -20 -99 -38 -135 -16 -31 -32 -67 -36 -81 -4 -14 -18 -41
-31 -60 -30 -45 -64 -143 -64 -185 0 -62 -13 -94 -56 -145 -24 -29 -44 -62
-44 -74 0 -72 -54 -165 -115 -202 -53 -30 -300 -289 -346 -362 -49 -77 -206
-235 -318 -320 -17 -13 -62 -35 -101 -49 -74 -27 -130 -76 -130 -112 0 -22
-62 -100 -94 -118 -11 -7 -37 -12 -56 -13 -20 0 -45 -7 -56 -15 -43 -30 -160
-83 -199 -90 -22 -4 -44 -10 -50 -14 -49 -37 -126 -55 -248 -61 -127 -5 -127
-5 -162 -42 -19 -21 -41 -38 -50 -38 -40 0 -114 26 -161 57 -38 25 -71 37
-120 45 -38 5 -88 18 -111 28 -22 11 -70 22 -105 26 -83 9 -111 22 -183 84
-33 29 -85 64 -115 78 -73 33 -136 85 -160 131 -26 51 -124 116 -198 131 -31
7 -67 21 -79 32 -12 12 -32 26 -44 32 -12 6 -35 36 -50 66 -37 73 -60 90 -121
90 -64 0 -94 17 -143 80 -43 55 -70 73 -125 85 -83 17 -215 88 -237 128 -7 12
-12 39 -13 59 0 51 -41 98 -83 98 -49 0 -109 20 -135 43 -32 30 -92 133 -92
160 -2 53 -25 81 -96 117 -71 36 -113 83 -151 170 -19 43 -110 199 -129 220
-7 9 -20 47 -29 84 -9 38 -32 99 -51 137 -23 47 -36 89 -40 132 -6 61 -44 147
-98 222 -56 77 -66 104 -66 178 0 60 -6 85 -35 152 -19 44 -35 91 -35 105 0
14 -29 84 -65 154 -35 71 -68 144 -71 164 -4 19 -26 76 -49 126 -32 70 -46
116 -59 201 -10 61 -22 126 -27 145 -19 69 -36 216 -31 276 3 51 -1 72 -28
140 -25 61 -34 101 -40 176 -5 69 -19 132 -48 225 -56 181 -71 277 -71 480 0
95 -5 199 -11 231 -7 33 -9 84 -6 113 3 30 11 142 16 249 6 107 16 213 22 235
11 37 12 83 7 230 -3 92 16 255 35 298 9 21 21 63 27 93 5 29 21 77 34 106 25
56 33 180 19 290 -5 38 -2 53 14 75 16 24 53 108 76 176 3 10 -1 50 -10 89
-15 72 -15 72 22 105 36 34 36 34 29 126 -8 103 -3 119 75 247 42 70 48 108
29 185 -13 51 -1 82 33 87 16 2 25 13 32 38 5 19 26 58 46 85 26 35 42 72 53
122 17 77 39 127 81 182 19 26 26 47 26 81 0 57 22 134 55 192 14 25 25 60 25
83 1 64 24 136 57 174 16 20 33 53 37 73 4 21 20 64 36 97 17 33 30 64 30 68
0 5 20 29 45 53 25 24 45 48 45 53 0 21 79 138 141 207 36 41 70 86 74 99 4
13 29 54 54 90 26 36 68 104 94 151 31 57 63 99 96 127 40 34 51 51 56 85 6
31 20 55 59 96 28 30 67 77 86 105 24 34 51 59 83 75 34 17 57 38 78 72 25 40
36 49 73 59 57 14 103 53 111 94 8 37 52 79 110 107 40 18 59 36 152 137 86
93 150 151 226 202 26 17 47 36 47 40 0 16 112 101 133 101 11 0 29 9 41 20
69 67 232 196 336 267 14 9 55 45 92 80 36 35 73 63 81 63 8 0 21 7 28 17 8 9
34 25 59 36 25 11 54 30 65 42 11 12 40 30 65 40 25 9 52 22 60 30 22 19 171
95 186 95 8 0 24 14 36 31 13 18 46 42 74 55 68 30 159 99 182 138 10 17 35
45 56 61 20 17 58 48 84 71 73 63 114 84 165 84 39 0 49 4 74 34 15 18 45 39
66 46 27 8 43 22 57 50 13 26 36 47 77 70 32 18 69 45 83 59 54 56 131 113
167 123 21 5 54 20 73 32 60 39 263 152 297 165 17 7 47 30 66 52 20 21 42 39
49 39 8 0 26 13 41 28 15 16 60 43 100 61 39 18 101 48 137 66 78 39 120 43
145 15z"/></g></svg>